<svg width="325" height="323" viewBox="0 0 325 323" fill="none" xmlns="http://www.w3.org/2000/svg">
<path d="M60.0803 204.795L50.4652 204.975L45.5938 205.047C43.9668 205.077 42.332 205.071 40.7004 205.082L40.4126 205.084L40.4113 204.795L40.3763 196.649L40.375 196.325L40.7004 196.327L50.3901 196.367C53.6201 196.37 56.8496 196.439 60.0797 196.473L60.258 196.475L60.2567 196.649C60.2443 198.028 60.2009 199.401 60.1717 200.759L60.0803 204.795ZM60.0803 204.795L59.9883 200.684C59.9591 199.328 59.9157 197.985 59.9034 196.649L60.0803 196.825C56.8502 196.858 53.6208 196.927 50.3907 196.931L40.7011 196.971L41.0245 196.65L40.9895 204.795L40.7004 204.508C42.2989 204.519 43.8942 204.513 45.4973 204.543L50.3155 204.615L60.0803 204.795Z" fill="#EBEBEB"/>
<path d="M49.2678 215.066L39.6527 215.246L34.7813 215.318C33.1543 215.349 31.5195 215.343 29.8879 215.354L29.6001 215.356L29.5988 215.066L29.5638 206.92L29.5625 206.597L29.8879 206.598L39.5775 206.639C42.8076 206.642 46.0371 206.711 49.2672 206.744L49.4454 206.746L49.4442 206.92C49.4318 208.3 49.3884 209.672 49.3592 211.031L49.2678 215.066ZM49.2678 215.066L49.1758 210.956C49.1466 209.599 49.1032 208.256 49.0909 206.92L49.2678 207.097C46.0377 207.129 42.8083 207.199 39.5782 207.202L29.8886 207.243L30.212 206.921L30.177 215.067L29.8879 214.779C31.4864 214.791 33.0817 214.784 34.6848 214.815L39.503 214.887L49.2678 215.066Z" fill="#EBEBEB"/>
<path d="M49.2678 38.8048L39.6527 38.9847L34.7813 39.0569C33.1543 39.0872 31.5195 39.0808 29.8879 39.0924L29.6001 39.0943L29.5988 38.8048L29.5638 30.6591L29.5625 30.3354L29.8879 30.3367L39.5775 30.3774C42.8076 30.3806 46.0371 30.4496 49.2672 30.4831L49.4454 30.485L49.4442 30.6591C49.4318 32.0384 49.3884 33.4111 49.3592 34.7697L49.2678 38.8048ZM49.2678 38.8048L49.1758 34.6943C49.1466 33.3383 49.1032 31.9951 49.0909 30.6591L49.2678 30.8352C46.0377 30.868 42.8083 30.9377 39.5782 30.9409L29.8886 30.9809L30.212 30.6591L30.177 38.8048L29.8879 38.5172C31.4864 38.5288 33.0817 38.5224 34.6848 38.5527L39.503 38.6249L49.2678 38.8048Z" fill="#EBEBEB"/>
<path d="M294.283 38.8048L284.668 38.9847L279.797 39.0569C278.17 39.0872 276.535 39.0808 274.904 39.0924L274.616 39.0943L274.614 38.8048L274.579 30.6591L274.578 30.3354L274.904 30.3367L284.593 30.3774C287.823 30.3806 291.053 30.4496 294.283 30.4831L294.461 30.485L294.46 30.6591C294.447 32.0384 294.404 33.4111 294.375 34.7697L294.283 38.8048ZM294.283 38.8048L294.191 34.6943C294.162 33.3383 294.119 31.9951 294.107 30.6591L294.283 30.8352C291.053 30.868 287.823 30.9377 284.594 30.9409L274.904 30.9815L275.228 30.6598L275.193 38.8055L274.904 38.5179C276.502 38.5295 278.097 38.523 279.7 38.5533L284.519 38.6256L294.283 38.8048Z" fill="#EBEBEB"/>
<path d="M283.471 49.0763L273.856 49.2562L268.984 49.3284C267.357 49.3587 265.723 49.3523 264.091 49.3639L263.803 49.3658L263.802 49.0763L263.767 40.9306L263.766 40.6069L264.091 40.6082L273.781 40.6488C277.011 40.6521 280.24 40.7211 283.47 40.7546L283.649 40.7565L283.647 40.9306C283.635 42.3098 283.592 43.6826 283.562 45.0412L283.471 49.0763ZM283.471 49.0763L283.379 44.9657C283.35 43.6097 283.306 42.2666 283.294 40.9306L283.471 41.1066C280.241 41.1395 277.011 41.2092 273.781 41.2124L264.092 41.253L264.415 40.9313L264.38 49.0769L264.091 48.7894C265.69 48.801 267.285 48.7945 268.888 48.8248L273.706 48.897L283.471 49.0763Z" fill="#EBEBEB"/>
<path d="M233.838 144.372L224.223 144.552L219.352 144.624C217.725 144.655 216.09 144.649 214.458 144.66L214.17 144.662L214.169 144.372L214.134 136.227L214.133 135.903L214.458 135.904L224.148 135.945C227.378 135.948 230.607 136.018 233.838 136.051L234.016 136.053L234.014 136.227C234.002 137.606 233.959 138.979 233.93 140.337L233.838 144.372ZM233.838 144.372L233.746 140.262C233.717 138.905 233.674 137.563 233.661 136.227L233.838 136.403C230.608 136.436 227.378 136.505 224.149 136.508L214.459 136.549L214.782 136.227L214.747 144.373L214.458 144.086C216.057 144.097 217.652 144.091 219.255 144.121L224.073 144.194L233.838 144.372Z" fill="#EBEBEB"/>
<path d="M223.033 154.644L213.418 154.824L208.547 154.896C206.92 154.926 205.285 154.92 203.654 154.931L203.366 154.933L203.364 154.644L203.329 146.498L203.328 146.175L203.654 146.176L213.343 146.216C216.573 146.22 219.803 146.289 223.033 146.322L223.211 146.324L223.21 146.498C223.197 147.877 223.154 149.25 223.125 150.609L223.033 154.644ZM223.033 154.644L222.941 150.533C222.912 149.177 222.869 147.834 222.857 146.498L223.033 146.674C219.803 146.707 216.574 146.777 213.344 146.78L203.654 146.821L203.978 146.499L203.943 154.645L203.654 154.357C205.252 154.369 206.847 154.362 208.45 154.392L213.269 154.465L223.033 154.644Z" fill="#EBEBEB"/>
<path d="M212.26 144.372L202.645 144.552L197.774 144.624C196.146 144.655 194.512 144.649 192.88 144.66L192.592 144.662L192.591 144.372L192.556 136.227L192.555 135.903L192.88 135.904L202.57 135.945C205.8 135.948 209.029 136.018 212.259 136.051L212.438 136.053L212.436 136.227C212.424 137.606 212.381 138.979 212.351 140.337L212.26 144.372ZM212.26 144.372L212.168 140.262C212.139 138.905 212.095 137.563 212.083 136.227L212.26 136.403C209.03 136.436 205.8 136.505 202.57 136.508L192.881 136.549L193.204 136.227L193.169 144.373L192.88 144.086C194.479 144.097 196.074 144.091 197.677 144.121L202.495 144.194L212.26 144.372Z" fill="#EBEBEB"/>
<path d="M294.283 215.066L284.668 215.246L279.797 215.318C278.17 215.349 276.535 215.343 274.904 215.354L274.616 215.356L274.614 215.066L274.579 206.92L274.578 206.597L274.904 206.598L284.593 206.639C287.823 206.642 291.053 206.711 294.283 206.744L294.461 206.746L294.46 206.92C294.447 208.3 294.404 209.672 294.375 211.031L294.283 215.066ZM294.283 215.066L294.191 210.956C294.162 209.599 294.119 208.256 294.107 206.92L294.283 207.096C291.053 207.129 287.824 207.199 284.594 207.202L274.904 207.243L275.228 206.921L275.193 215.067L274.904 214.779C276.502 214.791 278.097 214.784 279.7 214.815L284.519 214.887L294.283 215.066Z" fill="#EBEBEB"/>
<path d="M129.627 63.0278L120.012 63.2077L115.141 63.2799C113.514 63.3102 111.879 63.3037 110.247 63.3153L109.959 63.3173L109.958 63.0278L109.923 54.8821L109.922 54.5584L110.247 54.5597L119.937 54.6003C123.167 54.6035 126.396 54.6725 129.627 54.7061L129.805 54.708L129.804 54.8821C129.791 56.2613 129.748 57.6341 129.719 58.9927L129.627 63.0278ZM129.627 63.0278L129.535 58.9172C129.506 57.5612 129.463 56.2181 129.45 54.8821L129.627 55.0581C126.397 55.091 123.168 55.1606 119.938 55.1639L110.248 55.2045L110.571 54.8827L110.536 63.0284L110.247 62.7408C111.846 62.7524 113.441 62.746 115.044 62.7763L119.862 62.8485L129.627 63.0278Z" fill="#EBEBEB"/>
<path d="M274.377 116.991L278.193 110.871L276.309 109.71C275.754 109.368 275.454 108.746 275.51 108.099C275.54 107.742 275.552 107.383 275.544 107.023C275.53 106.376 275.87 105.774 276.443 105.469L278.396 104.427L274.973 98.0787L273.021 99.1207C272.448 99.4264 271.756 99.3748 271.223 99.0053C270.925 98.7996 270.618 98.6101 270.302 98.4379C269.73 98.1265 269.375 97.5326 269.395 96.8852L269.465 94.6813L262.229 94.4576L262.162 96.6692C262.143 97.3179 261.743 97.8821 261.153 98.1593C260.993 98.2348 260.834 98.3141 260.677 98.3979C260.52 98.4817 260.366 98.5694 260.215 98.6603C259.659 98.9943 258.969 99.0137 258.417 98.6739L256.519 97.5042L252.703 103.624L254.591 104.789C255.144 105.131 255.444 105.755 255.388 106.401C255.357 106.756 255.345 107.115 255.352 107.473C255.366 108.119 255.026 108.72 254.454 109.025L252.5 110.067L255.923 116.415L257.876 115.373C258.449 115.068 259.14 115.119 259.673 115.488C259.969 115.692 260.276 115.88 260.591 116.051C261.163 116.362 261.52 116.956 261.5 117.604L261.432 119.813L268.668 120.037L268.737 117.827C268.757 117.181 269.156 116.618 269.743 116.342C269.904 116.266 270.064 116.186 270.223 116.101C270.38 116.018 270.535 115.93 270.687 115.839C271.245 115.504 271.938 115.484 272.493 115.827L274.377 116.991ZM268.251 112.446C265.365 113.986 261.773 112.907 260.226 110.036C258.678 107.166 259.759 103.589 262.645 102.049C265.531 100.509 269.13 101.59 270.678 104.46C272.225 107.332 271.136 110.907 268.251 112.446Z" fill="#EBEBEB"/>
<path d="M65.8456 186.331L69.6617 180.211L67.7773 179.05C67.2231 178.708 66.923 178.085 66.9787 177.439C67.0098 177.082 67.0209 176.723 67.0131 176.362C66.9988 175.716 67.3385 175.114 67.9115 174.809L69.8646 173.767L66.442 167.419L64.4896 168.461C63.9165 168.766 63.2249 168.715 62.6914 168.345C62.3938 168.139 62.0866 167.95 61.7709 167.778C61.1992 167.466 60.8433 166.872 60.864 166.225L60.934 164.021L53.6979 163.797L53.6312 166.009C53.6117 166.658 53.2118 167.222 52.6219 167.499C52.4618 167.574 52.303 167.654 52.1461 167.738C51.9886 167.822 51.8343 167.909 51.6833 168C51.1277 168.334 50.4374 168.353 49.8857 168.014L47.9877 166.844L44.1716 172.964L46.0593 174.129C46.6129 174.471 46.913 175.095 46.8566 175.741C46.8255 176.097 46.8138 176.455 46.8209 176.813C46.8345 177.459 46.4949 178.06 45.9225 178.365L43.9688 179.407L47.3914 185.755L49.3451 184.713C49.9175 184.408 50.6085 184.459 51.142 184.827C51.4382 185.032 51.7448 185.22 52.0599 185.391C52.6323 185.702 52.9888 186.296 52.9687 186.944L52.9006 189.153L60.1367 189.376L60.2061 187.167C60.2262 186.521 60.6248 185.958 61.2121 185.682C61.3729 185.607 61.533 185.526 61.6918 185.442C61.8493 185.358 62.0036 185.27 62.1553 185.179C62.7141 184.844 63.407 184.825 63.9619 185.167L65.8456 186.331ZM59.7186 181.786C56.8327 183.326 53.2416 182.248 51.6936 179.377C50.1457 176.506 51.2269 172.929 54.1134 171.389C56.9993 169.849 60.5983 170.93 62.1462 173.801C63.6942 176.672 62.6045 180.247 59.7186 181.786Z" fill="#EBEBEB"/>
<path d="M139.959 69.1256L137.425 64.7558L136.081 65.5283C135.685 65.7559 135.199 65.734 134.816 65.4857C134.605 65.3484 134.386 65.2227 134.16 65.1079C133.754 64.9029 133.493 64.4947 133.493 64.042V62.4984H128.42V64.0427C128.42 64.4953 128.159 64.9035 127.753 65.1085C127.527 65.2227 127.307 65.349 127.096 65.4864C126.714 65.734 126.228 65.7566 125.832 65.5289L124.488 64.7565L121.953 69.1262L123.303 69.8994C123.699 70.1263 123.917 70.5583 123.894 71.0123C123.887 71.1354 123.884 71.2592 123.884 71.3837C123.884 71.5081 123.887 71.6319 123.894 71.7551C123.917 72.2071 123.701 72.6371 123.307 72.8635L121.953 73.6417L124.488 78.0115L125.836 77.2384C126.231 77.0114 126.718 77.034 127.101 77.2822C127.311 77.4189 127.529 77.5447 127.755 77.6588C128.16 77.8645 128.42 78.272 128.42 78.7246V80.2696H133.493V78.7246C133.493 78.272 133.754 77.8645 134.159 77.6588C134.384 77.5447 134.603 77.4189 134.813 77.2822C135.195 77.034 135.682 77.0114 136.077 77.2384L137.426 78.0115L139.96 73.6417L138.612 72.868C138.217 72.6417 138.001 72.2109 138.023 71.7583C138.03 71.6345 138.032 71.51 138.032 71.3843C138.032 71.2599 138.029 71.1361 138.023 71.0129C138 70.559 138.218 70.1263 138.614 69.8994L139.959 69.1256ZM135.111 71.3837C135.111 73.6656 133.252 75.5142 130.958 75.5142C128.664 75.5142 126.802 73.6656 126.802 71.3837C126.802 69.1017 128.664 67.2493 130.958 67.2493C133.252 67.2493 135.111 69.1017 135.111 71.3837Z" fill="#EBEBEB"/>
<path d="M57.6065 196.216C49.1349 204.465 47.7133 217.228 49.4985 228.406C49.5445 228.66 49.9393 228.591 49.9393 228.353C49.9393 225.808 49.8622 223.286 49.8699 220.772C49.916 220.657 49.9549 220.549 50.0015 220.433C52.212 218.834 54.2448 217.028 55.5049 214.552C56.9194 211.784 57.4755 208.662 58.5581 205.771C58.6586 205.495 58.3617 205.576 58.1678 205.719C53.0151 209.498 51.3725 213.567 49.8939 219.003C49.9633 216.182 50.1798 213.36 50.7904 210.538C51.9034 205.379 54.1061 200.267 57.8321 196.438C57.9701 196.292 57.7536 196.069 57.6065 196.216Z" fill="#263238"/>
<path d="M59.2024 197.177C60.6596 197.226 61.5736 199.543 62.7093 200.219C63.3102 200.579 63.8955 200.557 64.3175 199.968C65.4428 198.405 63.8988 196.477 62.4467 195.399C63.4852 195.824 64.3467 196.57 65.4662 196.782C66.1442 196.906 66.6712 196.655 66.8294 195.97C67.3227 193.84 64.6364 192.892 62.7935 192.847C63.6868 192.23 66.2479 190.55 64.8873 189.724C63.5085 188.895 60.5034 191.297 59.5232 192.087C58.0829 193.25 56.3645 194.987 56.2996 196.806C56.2154 198.929 58.0809 197.623 59.2024 197.177Z" fill="#008E7C"/>
<path opacity="0.1" d="M59.2024 197.177C60.6596 197.226 61.5736 199.543 62.7093 200.219C63.3102 200.579 63.8955 200.557 64.3175 199.968C65.4428 198.405 63.8988 196.477 62.4467 195.399C63.4852 195.824 64.3467 196.57 65.4662 196.782C66.1442 196.906 66.6712 196.655 66.8294 195.97C67.3227 193.84 64.6364 192.892 62.7935 192.847C63.6868 192.23 66.2479 190.55 64.8873 189.724C63.5085 188.895 60.5034 191.297 59.5232 192.087C58.0829 193.25 56.3645 194.987 56.2996 196.806C56.2154 198.929 58.0809 197.623 59.2024 197.177Z" fill="black"/>
<path d="M58.776 197.535C60.6396 196.692 64.2185 197.905 64.5231 197.203C65.1403 195.776 62.2796 194.796 60.7356 194.606C62.1578 194.223 64.8823 193.613 64.7986 192.248C64.6962 190.583 60.6195 192.015 58.5563 193.589C55.9569 195.572 55.9737 197.485 56.4035 197.868C56.9927 198.394 58.4681 197.674 58.776 197.535Z" fill="#008E7C"/>
<path d="M38.3189 195.399C47.0991 203.322 49.0087 216.021 47.652 227.26C47.6157 227.515 47.219 227.461 47.2099 227.223C47.1127 224.68 47.0932 222.157 46.9895 219.645C46.939 219.532 46.8962 219.426 46.845 219.312C44.5749 217.797 42.4747 216.069 41.1212 213.643C39.6017 210.931 38.9263 207.833 37.7348 204.985C37.624 204.712 37.9235 204.782 38.1231 204.917C43.4165 208.5 45.214 212.503 46.8994 217.879C46.7218 215.062 46.3977 212.25 45.6801 209.454C44.3707 204.341 41.9742 199.315 38.105 195.63C37.9591 195.49 38.1666 195.258 38.3189 195.399Z" fill="#263238"/>
<path d="M36.7634 196.42C35.3087 196.524 34.4848 198.874 33.3757 199.592C32.7891 199.975 32.2038 199.975 31.7591 199.402C30.5748 197.883 32.0436 195.898 33.4535 194.766C32.4319 195.23 31.5996 196.008 30.4892 196.262C29.8163 196.411 29.2803 196.181 29.0955 195.503C28.5212 193.392 31.1692 192.344 33.0088 192.23C32.0923 191.646 29.4689 190.064 30.7971 189.187C32.1428 188.307 35.2381 190.592 36.2474 191.346C37.7311 192.453 39.5144 194.125 39.6492 195.939C39.8145 198.057 37.901 196.822 36.7634 196.42Z" fill="#008E7C"/>
<path opacity="0.1" d="M36.7634 196.42C35.3087 196.524 34.4848 198.874 33.3757 199.592C32.7891 199.975 32.2038 199.975 31.7591 199.402C30.5748 197.883 32.0436 195.898 33.4535 194.766C32.4319 195.23 31.5996 196.008 30.4892 196.262C29.8163 196.411 29.2803 196.181 29.0955 195.503C28.5212 193.392 31.1692 192.344 33.0088 192.23C32.0923 191.646 29.4689 190.064 30.7971 189.187C32.1428 188.307 35.2381 190.592 36.2474 191.346C37.7311 192.453 39.5144 194.125 39.6492 195.939C39.8145 198.057 37.901 196.822 36.7634 196.42Z" fill="black"/>
<path d="M37.1972 196.761C35.3031 195.989 31.7722 197.337 31.4416 196.648C30.7707 195.244 33.5911 194.157 35.1268 193.909C33.6909 193.58 30.9451 193.074 30.9768 191.707C31.0151 190.039 35.1436 191.316 37.2659 192.81C39.9392 194.693 39.9956 196.606 39.5807 197.005C39.0116 197.552 37.5096 196.889 37.1972 196.761Z" fill="#008E7C"/>
<path d="M47.2952 216.324C47.9434 220.5 48.7472 224.817 50.0216 228.852C50.1435 229.219 50.6919 229.125 50.6355 228.729C50.0586 224.868 49.0072 221.079 48.4309 217.219C47.8449 213.312 47.5318 209.352 47.7567 205.401C48.1262 198.896 49.9024 191.976 54.1703 186.886C54.2642 186.765 54.0652 186.594 53.9687 186.706C45.4244 196.615 46.7838 208.765 46.7915 209.854C45.582 205.752 44.3354 201.05 39.7603 196.872C39.5632 196.692 39.4089 196.777 39.442 197.084C40.26 204.693 42.3869 208.665 46.822 212.733C46.9465 213.939 47.1027 215.139 47.2952 216.324Z" fill="#263238"/>
<path d="M54.2525 188.025C55.7894 187.346 57.9098 189.293 59.4305 189.425C60.2356 189.498 60.832 189.182 60.972 188.36C61.3492 186.174 58.7713 184.948 56.719 184.556C58.0115 184.477 59.2827 184.82 60.5513 184.478C61.3175 184.267 61.7375 183.744 61.5554 182.954C60.9888 180.496 57.7224 180.857 55.7875 181.734C56.402 180.646 58.2086 177.62 56.3793 177.445C54.5293 177.275 52.6268 181.271 52.0097 182.583C51.1034 184.511 50.1998 187.173 51.0529 189.093C52.0401 191.338 53.3145 189.048 54.2525 188.025Z" fill="#008E7C"/>
<path opacity="0.1" d="M54.2525 188.025C55.7894 187.346 57.9098 189.293 59.4305 189.425C60.2356 189.498 60.832 189.182 60.972 188.36C61.3492 186.174 58.7713 184.948 56.719 184.556C58.0115 184.477 59.2827 184.82 60.5513 184.478C61.3175 184.267 61.7375 183.744 61.5554 182.954C60.9888 180.496 57.7224 180.857 55.7875 181.734C56.402 180.646 58.2086 177.62 56.3793 177.445C54.5293 177.275 52.6268 181.271 52.0097 182.583C51.1034 184.511 50.1998 187.173 51.0529 189.093C52.0401 191.338 53.3145 189.048 54.2525 188.025Z" fill="black"/>
<path d="M53.9942 188.607C55.5013 186.8 59.8289 186.266 59.7893 185.386C59.707 183.596 56.2435 184.012 54.5452 184.587C55.8267 183.478 58.3444 181.48 57.5672 180.107C56.6182 178.43 53.1133 181.957 51.7689 184.624C50.0751 187.982 51.0604 189.959 51.7008 190.141C52.5791 190.391 53.7459 188.906 53.9942 188.607Z" fill="#008E7C"/>
<path d="M41.6744 218.615L37.9062 247.254H60.8365C60.3639 244.716 56.096 218.582 56.096 218.582L41.6744 218.615Z" fill="#008E7C"/>
<path d="M28.1484 247.35L61.6331 247.193L95.1183 247.136L162.088 247.028L229.058 247.136L262.543 247.192L296.028 247.35L262.543 247.508L229.058 247.564L162.088 247.671L95.1183 247.564L61.6331 247.506L28.1484 247.35Z" fill="#263238"/>
<path d="M162.083 303.429C215.446 303.429 258.705 297.345 258.705 289.84C258.705 282.335 215.446 276.251 162.083 276.251C108.72 276.251 65.4609 282.335 65.4609 289.84C65.4609 297.345 108.72 303.429 162.083 303.429Z" fill="#EBEBEB"/>
<path d="M102.178 147.103L98.1528 131.351L66.3652 139.387L62.1641 122.945L87.5666 65.3568L100.166 62.1715L112.416 110.118L122.588 107.546L126.818 124.103L116.647 126.675L120.671 142.427L102.178 147.103ZM80.3986 118.212L96.1193 114.239L90.9192 93.887L80.3986 118.212Z" fill="#263238"/>
<path d="M193.227 94.5176C193.227 99.7378 192.431 104.542 190.841 108.932C189.25 113.322 187.063 117.118 184.281 120.321C181.496 123.524 178.217 126.016 174.442 127.795C170.664 129.574 166.549 130.464 162.097 130.464C157.643 130.464 153.51 129.574 149.693 127.795C145.877 126.015 142.576 123.524 139.794 120.321C137.01 117.118 134.844 113.322 133.295 108.932C131.744 104.542 130.969 99.7378 130.969 94.5176C130.969 89.298 131.744 84.493 133.295 80.1039C134.845 75.7141 137.01 71.9182 139.794 68.7149C142.576 65.5116 145.877 63.002 149.693 61.1818C153.51 59.3635 157.643 58.453 162.097 58.453C166.549 58.453 170.663 59.3635 174.442 61.1818C178.217 63.002 181.496 65.5116 184.281 68.7149C187.063 71.9182 189.25 75.7141 190.841 80.1039C192.431 84.493 193.227 89.298 193.227 94.5176ZM174.024 94.5176C174.024 88.9827 172.91 84.493 170.685 81.0524C168.457 77.6124 165.596 75.8921 162.098 75.8921C158.44 75.8921 155.518 77.6124 153.332 81.0524C151.144 84.493 150.052 88.9827 150.052 94.5176C150.052 100.054 151.144 104.524 153.332 107.923C155.518 111.325 158.44 113.025 162.098 113.025C165.596 113.025 168.457 111.325 170.685 107.923C172.911 104.524 174.024 100.054 174.024 94.5176Z" fill="#263238"/>
<path d="M227.466 144.067L230.079 128.024L197.703 122.806L200.431 106.059L246.784 63.2935L259.617 65.3613L251.663 114.195L262.024 115.865L259.277 132.729L248.917 131.059L246.304 147.103L227.466 144.067ZM219.051 108.94L235.062 111.521L238.438 90.7926L219.051 108.94Z" fill="#263238"/>
<path d="M135.302 47.0238C133.94 47.0238 132.706 46.7588 131.597 46.2294C130.488 45.7001 129.537 44.9966 128.743 44.1197C127.948 43.2434 127.333 42.2401 126.897 41.1117C126.461 39.9833 126.242 38.8285 126.242 37.6472C126.242 36.4144 126.473 35.2338 126.936 34.1048C127.398 32.9764 128.036 31.9776 128.847 31.109C129.659 30.2405 130.624 29.5506 131.741 29.038C132.858 28.526 134.071 28.27 135.381 28.27C136.725 28.27 137.951 28.5434 139.06 29.0902C140.169 29.637 141.116 30.3533 141.901 31.2393C142.687 32.1252 143.298 33.1324 143.734 34.2608C144.171 35.3898 144.389 36.5356 144.389 37.6995C144.389 38.933 144.162 40.1084 143.709 41.2291C143.254 42.3491 142.626 43.3388 141.823 44.1984C141.02 45.0579 140.06 45.7439 138.943 46.2559C137.825 46.7679 136.612 47.0238 135.302 47.0238ZM129.908 37.6466C129.908 38.4455 130.03 39.2186 130.274 39.9646C130.519 40.7113 130.872 41.3716 131.335 41.9442C131.797 42.5174 132.365 42.9771 133.037 43.3247C133.708 43.6722 134.473 43.8456 135.328 43.8456C136.201 43.8456 136.974 43.6677 137.646 43.3118C138.318 42.9565 138.885 42.4826 139.348 41.8919C139.81 41.3019 140.16 40.6378 140.395 39.8995C140.631 39.1612 140.749 38.4107 140.749 37.646C140.749 36.8477 140.622 36.0746 140.369 35.3279C140.115 34.5813 139.758 33.9216 139.295 33.3484C138.833 32.7752 138.265 32.32 137.594 31.9808C136.922 31.6423 136.166 31.4727 135.329 31.4727C134.456 31.4727 133.679 31.6507 132.998 32.0066C132.317 32.3625 131.75 32.8313 131.296 33.4129C130.842 33.9951 130.498 34.6548 130.262 35.3924C130.026 36.132 129.908 36.8825 129.908 37.6466Z" fill="#263238"/>
<path d="M153.163 47.1543C152.045 47.1543 151.042 46.9635 150.152 46.5811C149.261 46.1994 148.506 45.6823 147.886 45.0317C147.266 44.3804 146.791 43.6292 146.459 42.7781C146.127 41.9276 145.961 41.0327 145.961 40.0951C145.961 39.1402 146.127 38.2375 146.459 37.3863C146.79 36.5359 147.266 35.7847 147.886 35.1334C148.506 34.4822 149.261 33.9657 150.152 33.5834C151.042 33.2016 152.045 33.0101 153.163 33.0101C154.28 33.0101 155.279 33.2016 156.161 33.5834C157.042 33.9657 157.794 34.4822 158.413 35.1334C159.033 35.7847 159.509 36.5359 159.841 37.3863C160.172 38.2375 160.338 39.1402 160.338 40.0951C160.338 41.0327 160.172 41.9276 159.841 42.7781C159.509 43.6292 159.038 44.3798 158.427 45.0317C157.816 45.6829 157.065 46.2 156.175 46.5811C155.284 46.9628 154.28 47.1543 153.163 47.1543ZM149.575 40.0951C149.575 40.7032 149.667 41.2545 149.85 41.749C150.033 42.2442 150.286 42.6736 150.609 43.0386C150.932 43.4029 151.311 43.6853 151.748 43.8852C152.184 44.0851 152.655 44.185 153.162 44.185C153.668 44.185 154.14 44.0851 154.576 43.8852C155.012 43.686 155.392 43.4036 155.715 43.0386C156.038 42.6736 156.291 42.2397 156.474 41.7361C156.657 41.2325 156.749 40.6774 156.749 40.0693C156.749 39.4793 156.657 38.9326 156.474 38.4283C156.29 37.9247 156.038 37.4908 155.715 37.1258C155.391 36.7609 155.011 36.4791 154.576 36.2792C154.14 36.0793 153.668 35.9794 153.162 35.9794C152.655 35.9794 152.184 36.0839 151.748 36.2921C151.311 36.5004 150.932 36.7873 150.609 37.1516C150.285 37.5166 150.032 37.9505 149.85 38.4541C149.666 38.9583 149.575 39.5051 149.575 40.0951Z" fill="#263238"/>
<path d="M170.917 47.1543C169.835 47.1543 168.892 46.9157 168.09 46.438C167.287 45.9608 166.658 45.3141 166.204 44.4978V52.4423H162.695V33.2448H165.759V35.5887C166.265 34.7904 166.92 34.1604 167.723 33.7001C168.525 33.2403 169.451 33.0101 170.498 33.0101C171.424 33.0101 172.279 33.1971 173.064 33.5705C173.85 33.9438 174.527 34.4474 175.094 35.0812C175.661 35.715 176.106 36.4617 176.43 37.3212C176.753 38.1807 176.914 39.0886 176.914 40.0435C176.914 41.0333 176.766 41.9624 176.469 42.8303C176.172 43.6989 175.757 44.4546 175.225 45.0968C174.692 45.7396 174.059 46.2426 173.326 46.6075C172.594 46.9718 171.791 47.1543 170.917 47.1543ZM169.74 44.185C170.263 44.185 170.748 44.0722 171.193 43.8465C171.638 43.6208 172.017 43.3172 172.332 42.9348C172.646 42.5531 172.89 42.1101 173.065 41.6059C173.24 41.1023 173.327 40.5819 173.327 40.0435C173.327 39.4703 173.231 38.9364 173.039 38.4419C172.846 37.9467 172.581 37.5172 172.24 37.1523C171.9 36.788 171.498 36.501 171.036 36.2928C170.573 36.0845 170.071 35.98 169.531 35.98C169.199 35.98 168.859 36.0368 168.51 36.1496C168.16 36.2625 167.838 36.423 167.541 36.6319C167.244 36.8402 166.978 37.0839 166.742 37.3612C166.507 37.6391 166.327 37.9434 166.205 38.2729V41.4769C166.52 42.2584 167 42.9051 167.646 43.4171C168.29 43.9291 168.989 44.185 169.74 44.185Z" fill="#263238"/>
<path d="M184.48 47.1543C183.328 47.1543 182.201 46.9718 181.102 46.6075C180.002 46.2432 179.059 45.7215 178.273 45.0445L179.583 42.8567C180.421 43.4474 181.237 43.8942 182.031 44.1979C182.826 44.5022 183.615 44.6538 184.401 44.6538C185.099 44.6538 185.649 44.5235 186.051 44.263C186.452 44.0025 186.653 43.6292 186.653 43.143C186.653 42.6568 186.418 42.3009 185.946 42.0752C185.475 41.8496 184.706 41.5891 183.641 41.2937C182.751 41.0507 181.992 40.8159 181.363 40.5903C180.734 40.3646 180.228 40.1086 179.844 39.8217C179.46 39.5354 179.181 39.2053 179.006 38.8319C178.831 38.4586 178.745 38.0111 178.745 37.4901C178.745 36.7957 178.88 36.1709 179.15 35.6144C179.421 35.0592 179.801 34.5853 180.289 34.1946C180.778 33.8038 181.351 33.5046 182.005 33.2964C182.659 33.0881 183.37 32.9836 184.139 32.9836C185.169 32.9836 186.132 33.1313 187.032 33.4266C187.931 33.7219 188.756 34.1991 189.507 34.8593L188.092 36.9691C187.394 36.4481 186.718 36.0664 186.062 35.8233C185.408 35.5802 184.758 35.459 184.112 35.459C183.518 35.459 183.02 35.5809 182.619 35.8233C182.217 36.0664 182.016 36.4571 182.016 36.9955C182.016 37.2386 182.064 37.4385 182.161 37.5946C182.256 37.7506 182.41 37.8899 182.619 38.0111C182.829 38.133 183.103 38.2503 183.444 38.3625C183.784 38.476 184.207 38.5927 184.714 38.7139C185.656 38.957 186.463 39.2001 187.135 39.4432C187.807 39.6863 188.357 39.9642 188.785 40.2763C189.213 40.589 189.527 40.9494 189.728 41.3569C189.928 41.7651 190.029 42.2558 190.029 42.829C190.029 44.1663 189.532 45.2212 188.536 45.9936C187.544 46.768 186.19 47.1543 184.48 47.1543Z" fill="#263238"/>
<path d="M192.984 39.939V28.2173H196.493V39.939H192.984ZM192.984 46.8938V42.9605H196.493V46.8938H192.984Z" fill="#263238"/>
<path d="M175.442 202.667H152.422V204.543H175.442V202.667Z" fill="#37474F"/>
<path d="M175.442 205.11H152.422V206.986H175.442V205.11Z" fill="#37474F"/>
<path d="M175.442 207.554H152.422V209.429H175.442V207.554Z" fill="#37474F"/>
<path d="M175.442 209.997H152.422V211.873H175.442V209.997Z" fill="#37474F"/>
<path d="M175.442 212.44H152.422V214.316H175.442V212.44Z" fill="#37474F"/>
<path d="M185.406 261.181H141.641V263.057H185.406V261.181Z" fill="#37474F"/>
<path d="M185.406 263.624H141.641V265.5H185.406V263.624Z" fill="#37474F"/>
<path d="M185.406 266.067H141.641V267.943H185.406V266.067Z" fill="#37474F"/>
<path d="M185.406 268.511H141.641V270.386H185.406V268.511Z" fill="#37474F"/>
<path d="M185.406 270.954H141.641V272.83H185.406V270.954Z" fill="#37474F"/>
<path d="M122.446 187.162C122.467 186.908 112.867 183.709 112.867 183.709L113.434 150.898L126.165 148.181L122.446 187.162Z" fill="#008E7C"/>
<path opacity="0.2" d="M122.446 187.162C122.467 186.908 112.867 183.709 112.867 183.709L113.434 150.898L126.165 148.181L122.446 187.162Z" fill="black"/>
<path d="M210.383 200.041C210.45 199.795 220.572 200.078 220.572 200.078L231.39 169.077L220.378 162.168L210.383 200.041Z" fill="#008E7C"/>
<path opacity="0.2" d="M210.383 200.041C210.45 199.795 220.572 200.078 220.572 200.078L231.39 169.077L220.378 162.168L210.383 200.041Z" fill="black"/>
<path d="M120.594 199.244C120.594 199.244 124.153 146.178 127.275 128.722C127.275 128.722 191.719 133.57 226.509 146.797C226.509 146.797 208.573 208.779 207.645 211.855C207.645 211.855 162.264 202.963 120.594 199.244Z" fill="#008E7C"/>
<path opacity="0.1" d="M178.119 135.808C177.072 142.197 176.011 148.585 174.914 154.966L171.592 174.102L171.413 173.832L193.006 178.935L203.791 181.534L214.564 184.186L203.734 181.775L192.917 179.313L171.304 174.291L171.086 174.24L171.125 174.021L174.564 154.904C175.72 148.534 176.913 142.17 178.119 135.808Z" fill="black"/>
<path opacity="0.1" d="M175.748 139.45C175.76 140.035 175.291 140.637 174.616 140.696C174.29 140.727 173.935 140.623 173.669 140.393C173.403 140.162 173.244 139.808 173.242 139.45C173.244 139.092 173.402 138.737 173.668 138.507C173.933 138.274 174.29 138.173 174.616 138.203C175.291 138.262 175.76 138.864 175.748 139.45ZM175.748 139.45C175.746 139.155 175.614 138.864 175.393 138.678C175.171 138.492 174.881 138.416 174.617 138.446C174.073 138.509 173.721 138.994 173.728 139.45C173.72 139.906 174.072 140.394 174.617 140.455C174.881 140.485 175.172 140.409 175.394 140.222C175.614 140.035 175.746 139.745 175.748 139.45Z" fill="black"/>
<path opacity="0.1" d="M174.623 147.345C174.635 147.931 174.166 148.533 173.491 148.591C173.165 148.622 172.81 148.518 172.544 148.288C172.278 148.058 172.119 147.703 172.117 147.345C172.119 146.988 172.277 146.632 172.543 146.402C172.808 146.17 173.165 146.068 173.491 146.098C174.167 146.158 174.636 146.761 174.623 147.345ZM174.623 147.345C174.621 147.05 174.489 146.76 174.268 146.574C174.046 146.387 173.756 146.311 173.492 146.341C172.948 146.404 172.596 146.89 172.603 147.345C172.595 147.801 172.947 148.289 173.492 148.351C173.756 148.38 174.047 148.304 174.269 148.117C174.49 147.932 174.621 147.641 174.623 147.345Z" fill="black"/>
<path opacity="0.1" d="M173.225 155.688C173.236 156.274 172.767 156.876 172.093 156.934C171.766 156.965 171.411 156.862 171.145 156.631C170.88 156.401 170.721 156.046 170.719 155.688C170.721 155.331 170.878 154.975 171.145 154.745C171.41 154.513 171.766 154.411 172.093 154.441C172.768 154.501 173.237 155.103 173.225 155.688ZM173.225 155.688C173.222 155.393 173.091 155.103 172.87 154.917C172.648 154.73 172.357 154.654 172.094 154.684C171.55 154.747 171.197 155.233 171.205 155.688C171.196 156.144 171.548 156.632 172.094 156.694C172.357 156.724 172.649 156.647 172.87 156.461C173.091 156.274 173.222 155.984 173.225 155.688Z" fill="black"/>
<path opacity="0.1" d="M171.834 164.031C171.846 164.617 171.377 165.219 170.702 165.277C170.376 165.307 170.02 165.204 169.755 164.974C169.489 164.744 169.33 164.389 169.328 164.031C169.329 163.674 169.488 163.318 169.754 163.088C170.019 162.856 170.376 162.754 170.702 162.784C171.378 162.843 171.846 163.446 171.834 164.031ZM171.834 164.031C171.832 163.736 171.7 163.446 171.478 163.26C171.257 163.073 170.966 162.997 170.702 163.028C170.158 163.09 169.806 163.576 169.814 164.031C169.805 164.487 170.157 164.975 170.702 165.037C170.966 165.066 171.257 164.99 171.479 164.804C171.7 164.617 171.832 164.327 171.834 164.031Z" fill="black"/>
<path opacity="0.1" d="M176.576 177.337C176.589 177.922 176.119 178.524 175.445 178.582C175.118 178.613 174.763 178.51 174.497 178.279C174.231 178.049 174.072 177.695 174.07 177.337C174.072 176.979 174.23 176.624 174.496 176.393C174.761 176.161 175.118 176.059 175.445 176.09C176.119 176.148 176.588 176.751 176.576 177.337ZM176.576 177.337C176.574 177.041 176.442 176.751 176.22 176.565C175.999 176.379 175.708 176.302 175.445 176.333C174.901 176.395 174.548 176.881 174.556 177.337C174.547 177.793 174.899 178.281 175.445 178.342C175.708 178.372 175.999 178.296 176.221 178.109C176.442 177.922 176.573 177.632 176.576 177.337Z" fill="black"/>
<path opacity="0.1" d="M184.498 179.258C184.511 179.843 184.041 180.445 183.366 180.503C183.04 180.534 182.684 180.43 182.419 180.2C182.153 179.97 181.994 179.615 181.992 179.258C181.994 178.9 182.152 178.544 182.418 178.314C182.683 178.082 183.04 177.98 183.366 178.011C184.042 178.07 184.511 178.672 184.498 179.258ZM184.498 179.258C184.496 178.962 184.364 178.672 184.143 178.486C183.921 178.299 183.631 178.223 183.367 178.254C182.823 178.316 182.471 178.802 182.478 179.258C182.47 179.713 182.822 180.202 183.367 180.263C183.631 180.292 183.922 180.216 184.144 180.029C184.364 179.843 184.496 179.553 184.498 179.258Z" fill="black"/>
<path opacity="0.1" d="M192.412 181.179C192.424 181.765 191.955 182.366 191.28 182.425C190.954 182.455 190.599 182.352 190.333 182.122C190.067 181.892 189.908 181.537 189.906 181.179C189.908 180.821 190.066 180.466 190.332 180.236C190.597 180.004 190.954 179.902 191.28 179.932C191.955 179.991 192.424 180.594 192.412 181.179ZM192.412 181.179C192.41 180.884 192.278 180.594 192.057 180.407C191.835 180.221 191.545 180.145 191.281 180.175C190.737 180.238 190.385 180.723 190.392 181.179C190.384 181.635 190.736 182.123 191.281 182.184C191.545 182.214 191.836 182.138 192.058 181.951C192.278 181.765 192.409 181.474 192.412 181.179Z" fill="black"/>
<path opacity="0.1" d="M200.334 183.1C200.346 183.685 199.877 184.287 199.202 184.346C198.876 184.376 198.52 184.273 198.255 184.043C197.989 183.812 197.83 183.458 197.828 183.1C197.83 182.742 197.988 182.387 198.254 182.157C198.519 181.924 198.876 181.823 199.202 181.853C199.878 181.912 200.346 182.514 200.334 183.1ZM200.334 183.1C200.332 182.805 200.2 182.514 199.979 182.328C199.757 182.142 199.467 182.066 199.203 182.096C198.659 182.158 198.307 182.644 198.314 183.1C198.306 183.556 198.658 184.044 199.203 184.105C199.467 184.135 199.758 184.059 199.98 183.872C200.2 183.685 200.332 183.395 200.334 183.1Z" fill="black"/>
<path opacity="0.1" d="M208.244 185.107C208.211 185.692 207.697 186.256 207.02 186.263C206.692 186.268 206.346 186.138 206.098 185.888C205.85 185.638 205.719 185.273 205.745 184.916C205.775 184.559 205.96 184.217 206.243 184.008C206.526 183.797 206.889 183.722 207.212 183.778C207.881 183.888 208.301 184.525 208.244 185.107ZM208.244 185.107C208.264 184.812 208.156 184.513 207.949 184.31C207.743 184.107 207.459 184.009 207.194 184.019C206.646 184.04 206.257 184.497 206.23 184.952C206.186 185.406 206.499 185.92 207.038 186.023C207.299 186.073 207.595 186.019 207.83 185.85C208.065 185.681 208.219 185.402 208.244 185.107Z" fill="black"/>
<path opacity="0.1" d="M170.436 172.374C170.447 172.96 169.978 173.562 169.304 173.62C168.977 173.651 168.622 173.548 168.356 173.317C168.09 173.087 167.932 172.732 167.93 172.374C167.932 172.017 168.09 171.661 168.356 171.431C168.621 171.199 168.977 171.096 169.304 171.127C169.979 171.186 170.448 171.789 170.436 172.374ZM170.436 172.374C170.433 172.079 170.302 171.789 170.08 171.603C169.858 171.416 169.568 171.34 169.304 171.37C168.76 171.433 168.407 171.919 168.415 172.374C168.407 172.83 168.759 173.318 169.304 173.38C169.568 173.409 169.859 173.333 170.08 173.146C170.302 172.96 170.433 172.67 170.436 172.374Z" fill="black"/>
<path opacity="0.2" d="M157.11 186.198C164.625 179.477 165.24 167.967 158.482 160.492C151.725 153.016 140.155 152.405 132.639 159.126C125.124 165.848 124.509 177.357 131.267 184.833C138.024 192.309 149.594 192.92 157.11 186.198Z" fill="black"/>
<path d="M158.592 177.831C161.461 170.291 157.642 161.864 150.062 159.01C142.481 156.156 134.01 159.955 131.141 167.495C128.271 175.035 132.09 183.461 139.671 186.316C147.251 189.17 155.722 185.371 158.592 177.831Z" fill="#263238"/>
<path d="M143.986 167.295L140.555 166.743L139.999 170.155L143.43 170.708L143.986 167.295Z" fill="#008E7C"/>
<path d="M141.111 163.33L137.68 162.777L137.124 166.19L140.555 166.743L141.111 163.33Z" fill="#008E7C"/>
<path d="M154.829 165.541L151.398 164.988L150.843 168.401L154.274 168.954L154.829 165.541Z" fill="#008E7C"/>
<path d="M138.9 176.904L135.469 176.351L134.913 179.764L138.344 180.317L138.9 176.904Z" fill="#008E7C"/>
<path d="M152.618 179.115L149.188 178.562L148.632 181.975L152.063 182.528L152.618 179.115Z" fill="#008E7C"/>
<path d="M142.884 174.044L139.453 173.491L138.897 176.904L142.328 177.457L142.884 174.044Z" fill="#008E7C"/>
<path d="M146.868 171.223L143.438 170.67L142.882 174.082L146.313 174.635L146.868 171.223Z" fill="#008E7C"/>
<path d="M150.845 168.401L147.414 167.848L146.858 171.261L150.289 171.814L150.845 168.401Z" fill="#008E7C"/>
<path d="M149.743 175.148L146.312 174.595L145.757 178.008L149.188 178.56L149.743 175.148Z" fill="#008E7C"/>
<path d="M208.135 191.819C214.541 184.042 213.396 172.573 205.579 166.201C197.761 159.83 186.231 160.968 179.825 168.744C173.419 176.521 174.564 187.99 182.382 194.362C190.199 200.733 201.729 199.595 208.135 191.819Z" fill="#008E7C"/>
<path opacity="0.2" d="M208.135 191.819C214.541 184.042 213.396 172.573 205.579 166.201C197.761 159.83 186.231 160.968 179.825 168.744C173.419 176.521 174.564 187.99 182.382 194.362C190.199 200.733 201.729 199.595 208.135 191.819Z" fill="black"/>
<path opacity="0.2" d="M211.779 184.501C211.695 184.86 211.599 185.206 211.491 185.552L175.82 177.984C175.905 177.351 176.019 176.718 176.168 176.079C178.505 166.301 188.371 160.256 198.207 162.579C208.038 164.903 214.115 174.716 211.779 184.501Z" fill="black"/>
<path d="M199.631 193.762C207.11 190.654 210.64 182.104 207.515 174.664C204.39 167.225 195.794 163.714 188.315 166.822C180.836 169.93 177.307 178.481 180.431 185.92C183.556 193.359 192.152 196.871 199.631 193.762Z" fill="#263238"/>
<path d="M197.671 172.313L194.289 171.514L190.289 188.257L193.671 189.056L197.671 172.313Z" fill="#008E7C"/>
<path d="M212.851 184.159L175.383 175.301C177.842 165.012 188.223 158.654 198.568 161.099C208.913 163.545 215.309 173.869 212.851 184.159Z" fill="#008E7C"/>
<path opacity="0.2" d="M212.851 184.159L175.383 175.301C177.842 165.012 188.223 158.654 198.568 161.099C208.913 163.545 215.309 173.869 212.851 184.159Z" fill="black"/>
<path opacity="0.1" d="M162.141 191.11C162.235 189.655 162.773 188.179 163.834 187.012C164.357 186.424 165.055 185.962 165.824 185.681C166.597 185.399 167.431 185.349 168.223 185.416C169.029 185.51 169.851 185.792 170.523 186.298C171.181 186.813 171.686 187.486 171.983 188.21C172.595 189.653 172.661 191.195 172.365 192.626C172.121 191.196 171.75 189.808 171.075 188.668C170.405 187.52 169.346 186.806 168.084 186.695C166.797 186.536 165.541 186.88 164.529 187.73C163.517 188.578 162.744 189.792 162.141 191.11Z" fill="black"/>
<path d="M125.617 153.982C125.769 152.037 125.989 150.101 126.174 148.161C126.382 146.224 126.596 144.288 126.833 142.355C127.058 140.421 127.311 138.49 127.56 136.559C127.804 134.627 128.085 132.7 128.346 130.77L128.415 130.255L128.94 130.288C133.162 130.552 137.376 130.892 141.584 131.322C143.687 131.537 145.788 131.78 147.886 132.048C149.981 132.348 152.078 132.624 154.16 133.003L141.509 132.224L128.871 131.411L129.465 130.928C129.178 132.854 128.911 134.783 128.607 136.706C128.307 138.63 128.012 140.555 127.69 142.476C127.378 144.398 127.045 146.318 126.704 148.236C126.342 150.151 126.013 152.071 125.617 153.982Z" fill="white"/>
<path d="M128.656 168.693C129.081 166.355 130.149 164.127 131.584 162.187C131.941 161.699 132.348 161.248 132.739 160.784C133.162 160.35 133.602 159.929 134.037 159.503C134.51 159.12 134.989 158.74 135.475 158.372C135.992 158.046 136.502 157.707 137.027 157.394C137.58 157.13 138.129 156.857 138.688 156.606L140.426 156.008L142.226 155.638C142.83 155.55 143.444 155.532 144.05 155.487C146.49 155.424 148.891 155.942 151.095 156.83C148.749 156.393 146.412 156.15 144.107 156.369C141.809 156.581 139.575 157.265 137.578 158.384C135.565 159.477 133.782 160.985 132.277 162.736C130.777 164.496 129.536 166.49 128.656 168.693Z" fill="white"/>
<path d="M179.141 173.61C179.886 171.353 181.253 169.294 182.944 167.569C183.365 167.135 183.831 166.744 184.282 166.338C184.761 165.966 185.256 165.61 185.745 165.247C186.268 164.932 186.794 164.622 187.327 164.324C187.884 164.073 188.436 163.806 189 163.568C189.585 163.383 190.167 163.189 190.754 163.016L192.56 162.662L194.393 162.544C195.004 162.539 195.614 162.606 196.221 162.644C198.646 162.917 200.952 163.76 203.012 164.942C200.749 164.187 198.468 163.625 196.155 163.526C193.849 163.421 191.542 163.792 189.408 164.626C187.264 165.432 185.288 166.68 183.554 168.208C181.823 169.746 180.317 171.549 179.141 173.61Z" fill="white"/>
<path d="M122.634 231.945C117.946 231.945 107.683 230.897 101.079 222.45C92.6301 211.645 95.6838 190.911 95.8174 190.033L99.4857 190.587C99.4552 190.787 96.5401 210.634 104.008 220.185C111.309 229.522 124.551 228.181 124.684 228.165L125.101 231.832C124.957 231.85 124.049 231.945 122.634 231.945Z" fill="#008E7C"/>
<path opacity="0.4" d="M122.634 231.945C117.946 231.945 107.683 230.897 101.079 222.45C92.6301 211.645 95.6838 190.911 95.8174 190.033L99.4857 190.587C99.4552 190.787 96.5401 210.634 104.008 220.185C111.309 229.522 124.551 228.181 124.684 228.165L125.101 231.832C124.957 231.85 124.049 231.945 122.634 231.945Z" fill="white"/>
<path d="M100.567 193.098C99.8978 193.098 99.2146 193.043 98.5191 192.931C92.3311 191.934 89.5917 188.251 88.3828 185.336C87.1713 182.415 86.8912 178.882 87.5505 174.835L95.3979 176.1C94.9895 178.607 95.1081 180.817 95.7317 182.32C96.1764 183.393 97.0398 184.682 99.7902 185.125C101.046 185.327 102.405 185.22 103.827 183.086C104.924 181.44 105.584 179.198 105.815 177.779L113.662 179.043C113.481 180.16 112.711 184.067 110.452 187.456C107.995 191.142 104.537 193.098 100.567 193.098Z" fill="#008E7C"/>
<path d="M130.384 242.507C130.371 242.339 123.736 241.285 123.736 241.285L120.516 219.746L128.552 216.588L130.384 242.507Z" fill="#008E7C"/>
<path opacity="0.2" d="M130.384 242.507C130.371 242.339 123.736 241.285 123.736 241.285L120.516 219.746L128.552 216.588L130.384 242.507Z" fill="black"/>
<path d="M195.977 242.547C195.994 242.38 202.651 241.471 202.651 241.471L206.349 220.008L198.385 216.674L195.977 242.547Z" fill="#008E7C"/>
<path opacity="0.2" d="M195.977 242.547C195.994 242.38 202.651 241.471 202.651 241.471L206.349 220.008L198.385 216.674L195.977 242.547Z" fill="black"/>
<path d="M127.626 211.765C127.626 211.765 181.29 209.482 199.417 212.488C199.417 212.488 194.094 264.14 193.806 265.142C193.806 265.142 140.424 264.998 132.08 265.142C132.08 265.142 127.557 230.795 127.626 211.765Z" fill="#008E7C"/>
<path opacity="0.2" d="M143.922 225.919C143.922 225.919 173.217 224.768 183.113 226.283C183.113 226.283 180.207 252.329 180.051 252.834C180.051 252.834 150.909 252.762 146.354 252.834C146.353 252.834 144.351 235.008 143.922 225.919Z" fill="black"/>
<path opacity="0.2" d="M147.928 252.823C147.257 252.823 146.725 252.831 146.353 252.836C146.353 252.836 144.354 235.007 143.922 225.918C143.922 225.918 144.588 225.892 145.752 225.853L147.928 252.823Z" fill="black"/>
<path d="M156.569 232.345C154.927 231.831 153.177 232.737 152.66 234.369C152.142 236.005 153.055 237.743 154.697 238.258C156.337 238.772 158.085 237.866 158.602 236.233C159.12 234.602 158.21 232.86 156.569 232.345ZM158.241 236.119C157.787 237.555 156.251 238.35 154.81 237.898C153.369 237.446 152.569 235.92 153.024 234.484C153.478 233.051 155.014 232.254 156.456 232.707C157.895 233.158 158.696 234.686 158.241 236.119ZM156.569 232.345C154.927 231.831 153.177 232.737 152.66 234.369C152.142 236.005 153.055 237.743 154.697 238.258C156.337 238.772 158.085 237.866 158.602 236.233C159.12 234.602 158.21 232.86 156.569 232.345ZM158.241 236.119C157.787 237.555 156.251 238.35 154.81 237.898C153.369 237.446 152.569 235.92 153.024 234.484C153.478 233.051 155.014 232.254 156.456 232.707C157.895 233.158 158.696 234.686 158.241 236.119ZM156.569 232.345C154.927 231.831 153.177 232.737 152.66 234.369C152.142 236.005 153.055 237.743 154.697 238.258C156.337 238.772 158.085 237.866 158.602 236.233C159.12 234.602 158.21 232.86 156.569 232.345ZM158.241 236.119C157.787 237.555 156.251 238.35 154.81 237.898C153.369 237.446 152.569 235.92 153.024 234.484C153.478 233.051 155.014 232.254 156.456 232.707C157.895 233.158 158.696 234.686 158.241 236.119ZM157.607 229.071C154.145 227.987 150.459 229.9 149.368 233.338C148.278 236.779 150.198 240.449 153.658 241.532C157.115 242.616 160.805 240.705 161.895 237.265C162.986 233.826 161.065 230.154 157.607 229.071ZM159.066 236.377C158.469 238.262 156.444 239.312 154.551 238.718C152.658 238.125 151.603 236.11 152.199 234.226C152.796 232.341 154.823 231.293 156.715 231.886C158.607 232.48 159.662 234.495 159.066 236.377ZM158.602 236.234C159.12 234.602 158.21 232.861 156.569 232.346C154.927 231.832 153.177 232.738 152.66 234.37C152.142 236.005 153.055 237.744 154.697 238.258C156.337 238.773 158.085 237.867 158.602 236.234ZM158.241 236.119C157.787 237.555 156.251 238.35 154.81 237.898C153.369 237.446 152.569 235.92 153.024 234.484C153.478 233.051 155.014 232.254 156.456 232.707C157.895 233.158 158.696 234.686 158.241 236.119ZM156.569 232.345C154.927 231.831 153.177 232.737 152.66 234.369C152.142 236.005 153.055 237.743 154.697 238.258C156.337 238.772 158.085 237.866 158.602 236.233C159.12 234.602 158.21 232.86 156.569 232.345ZM158.241 236.119C157.787 237.555 156.251 238.35 154.81 237.898C153.369 237.446 152.569 235.92 153.024 234.484C153.478 233.051 155.014 232.254 156.456 232.707C157.895 233.158 158.696 234.686 158.241 236.119ZM156.569 232.345C154.927 231.831 153.177 232.737 152.66 234.369C152.142 236.005 153.055 237.743 154.697 238.258C156.337 238.772 158.085 237.866 158.602 236.233C159.12 234.602 158.21 232.86 156.569 232.345ZM158.241 236.119C157.787 237.555 156.251 238.35 154.81 237.898C153.369 237.446 152.569 235.92 153.024 234.484C153.478 233.051 155.014 232.254 156.456 232.707C157.895 233.158 158.696 234.686 158.241 236.119Z" fill="#008E7C"/>
<path d="M154.945 241.651L152.537 240.896L152.133 242.634L154.275 243.305L154.945 241.651Z" fill="#008E7C"/>
<path d="M150.617 239.407L149.45 237.179L147.93 238.124L148.967 240.106L150.617 239.407Z" fill="#008E7C"/>
<path d="M149.148 234.776L149.906 232.38L148.16 231.979L147.484 234.109L149.148 234.776Z" fill="#008E7C"/>
<path d="M151.405 230.47L153.645 229.31L152.695 227.797L150.703 228.829L151.405 230.47Z" fill="#008E7C"/>
<path d="M156.062 229.013L158.471 229.768L158.875 228.03L156.733 227.359L156.062 229.013Z" fill="#008E7C"/>
<path d="M160.391 231.256L161.557 233.484L163.078 232.54L162.04 230.559L160.391 231.256Z" fill="#008E7C"/>
<path d="M161.845 235.888L161.086 238.283L162.833 238.686L163.508 236.555L161.845 235.888Z" fill="#008E7C"/>
<path d="M159.6 240.193L157.359 241.354L158.309 242.867L160.301 241.835L159.6 240.193Z" fill="#008E7C"/>
<path d="M167.153 241.462C166.182 240.833 164.883 241.107 164.251 242.072C163.617 243.039 163.893 244.33 164.865 244.96C165.835 245.588 167.133 245.315 167.765 244.349C168.397 243.384 168.124 242.091 167.153 241.462ZM167.552 244.21C166.997 245.06 165.856 245.299 165.003 244.747C164.151 244.195 163.91 243.06 164.465 242.211C165.02 241.364 166.161 241.124 167.014 241.676C167.866 242.228 168.107 243.362 167.552 244.21ZM167.153 241.462C166.182 240.833 164.883 241.107 164.251 242.072C163.617 243.039 163.893 244.33 164.865 244.96C165.835 245.588 167.133 245.315 167.765 244.349C168.397 243.384 168.124 242.091 167.153 241.462ZM167.552 244.21C166.997 245.06 165.856 245.299 165.003 244.747C164.151 244.195 163.91 243.06 164.465 242.211C165.02 241.364 166.161 241.124 167.014 241.676C167.866 242.228 168.107 243.362 167.552 244.21ZM167.153 241.462C166.182 240.833 164.883 241.107 164.251 242.072C163.617 243.039 163.893 244.33 164.865 244.96C165.835 245.588 167.133 245.315 167.765 244.349C168.397 243.384 168.124 242.091 167.153 241.462ZM167.552 244.21C166.997 245.06 165.856 245.299 165.003 244.747C164.151 244.195 163.91 243.06 164.465 242.211C165.02 241.364 166.161 241.124 167.014 241.676C167.866 242.228 168.107 243.362 167.552 244.21ZM168.422 239.526C166.374 238.2 163.635 238.777 162.303 240.812C160.971 242.847 161.548 245.572 163.595 246.897C165.64 248.222 168.38 247.646 169.713 245.611C171.045 243.577 170.467 240.85 168.422 239.526ZM168.04 244.526C167.31 245.641 165.806 245.958 164.686 245.232C163.567 244.507 163.248 243.011 163.978 241.896C164.708 240.781 166.212 240.466 167.332 241.191C168.45 241.916 168.769 243.412 168.04 244.526ZM167.765 244.349C168.397 243.384 168.124 242.092 167.153 241.463C166.182 240.834 164.883 241.108 164.251 242.072C163.617 243.039 163.893 244.331 164.865 244.96C165.835 245.589 167.133 245.315 167.765 244.349ZM167.552 244.21C166.997 245.06 165.856 245.299 165.003 244.747C164.151 244.195 163.91 243.06 164.465 242.211C165.02 241.364 166.161 241.124 167.014 241.676C167.866 242.228 168.107 243.362 167.552 244.21ZM167.153 241.462C166.182 240.833 164.883 241.107 164.251 242.072C163.617 243.039 163.893 244.33 164.865 244.96C165.835 245.588 167.133 245.315 167.765 244.349C168.397 243.384 168.124 242.091 167.153 241.462ZM167.552 244.21C166.997 245.06 165.856 245.299 165.003 244.747C164.151 244.195 163.91 243.06 164.465 242.211C165.02 241.364 166.161 241.124 167.014 241.676C167.866 242.228 168.107 243.362 167.552 244.21ZM167.153 241.462C166.182 240.833 164.883 241.107 164.251 242.072C163.617 243.039 163.893 244.33 164.865 244.96C165.835 245.588 167.133 245.315 167.765 244.349C168.397 243.384 168.124 242.091 167.153 241.462ZM167.552 244.21C166.997 245.06 165.856 245.299 165.003 244.747C164.151 244.195 163.91 243.06 164.465 242.211C165.02 241.364 166.161 241.124 167.014 241.676C167.866 242.228 168.107 243.362 167.552 244.21Z" fill="#DBDBDB"/>
<path d="M164.409 247.205L162.984 246.282L162.406 247.336L163.674 248.157L164.409 247.205Z" fill="#DBDBDB"/>
<path d="M162.01 244.971L161.658 243.317L160.5 243.656L160.813 245.127L162.01 244.971Z" fill="#DBDBDB"/>
<path d="M161.903 241.704L162.83 240.287L161.77 239.712L160.945 240.973L161.903 241.704Z" fill="#DBDBDB"/>
<path d="M164.141 239.318L165.805 238.968L165.464 237.817L163.984 238.127L164.141 239.318Z" fill="#DBDBDB"/>
<path d="M167.43 239.21L168.854 240.133L169.432 239.078L168.165 238.258L167.43 239.21Z" fill="#DBDBDB"/>
<path d="M169.836 241.444L170.187 243.098L171.345 242.759L171.033 241.287L169.836 241.444Z" fill="#DBDBDB"/>
<path d="M169.943 244.711L169.016 246.128L170.075 246.702L170.901 245.442L169.943 244.711Z" fill="#DBDBDB"/>
<path d="M167.687 247.097L166.023 247.447L166.364 248.598L167.844 248.287L167.687 247.097Z" fill="#DBDBDB"/>
<path d="M198.117 259.131L200.18 259.513L206.078 219.776L203.728 219.346L198.117 259.131Z" fill="#008E7C"/>
<path d="M180.047 252.834L183.11 226.283L203.726 219.346C203.726 219.346 198.115 259.56 198.115 259.131L180.047 252.834Z" fill="#008E7C"/>
<path opacity="0.4" d="M180.047 252.834L183.11 226.283L203.726 219.346C203.726 219.346 198.115 259.56 198.115 259.131L180.047 252.834Z" fill="white"/>
<path d="M130.095 227.359C129.759 225.159 129.578 222.942 129.44 220.722C129.376 219.612 129.348 218.5 129.323 217.389C129.301 216.277 129.281 215.164 129.315 214.052L129.324 213.76L129.61 213.744C133.705 213.526 137.798 213.258 141.896 213.08C145.993 212.879 150.089 212.697 154.189 212.569C150.102 212.937 146.013 213.25 141.923 213.546C137.834 213.864 133.741 214.092 129.65 214.369L129.944 214.062L129.927 217.382L129.966 220.704C129.972 221.813 129.992 222.92 130.024 224.029L130.095 227.359Z" fill="white"/>
<path d="M185.992 226.673C187.269 226.069 188.566 225.508 189.879 224.99C191.188 224.46 192.508 223.959 193.844 223.498C195.182 223.044 196.525 222.599 197.89 222.222C199.252 221.84 200.628 221.487 202.033 221.258L202.379 221.202L202.317 221.53C201.994 223.249 201.655 224.966 201.255 226.673C201.405 224.926 201.616 223.189 201.843 221.456L202.126 221.728C200.765 222.051 199.414 222.429 198.067 222.824C196.721 223.225 195.379 223.647 194.041 224.08L185.992 226.673Z" fill="white"/>
<path opacity="0.1" d="M139.008 211.873L139.355 218.513L139.652 225.156L140.167 238.444L140.569 251.736L140.73 258.383L140.84 265.032L140.492 258.391L140.195 251.749L139.681 238.461L139.28 225.169L139.119 218.522L139.008 211.873Z" fill="black"/>
<path opacity="0.1" d="M137.097 215.876C137.225 216.447 136.884 217.13 136.236 217.319C135.921 217.413 135.553 217.382 135.246 217.208C134.94 217.035 134.714 216.719 134.641 216.368C134.572 216.017 134.656 215.638 134.871 215.36C135.085 215.08 135.414 214.91 135.74 214.875C136.413 214.801 136.993 215.3 137.097 215.876ZM137.097 215.876C137.035 215.587 136.849 215.328 136.595 215.189C136.341 215.05 136.041 215.032 135.788 215.114C135.268 215.282 135.018 215.827 135.117 216.273C135.199 216.721 135.641 217.131 136.188 217.084C136.452 217.061 136.722 216.93 136.902 216.703C137.082 216.476 137.153 216.166 137.097 215.876Z" fill="black"/>
<path opacity="0.1" d="M137.558 223.838C137.686 224.41 137.345 225.092 136.697 225.282C136.382 225.376 136.014 225.345 135.707 225.171C135.401 224.997 135.174 224.681 135.102 224.331C135.033 223.979 135.117 223.6 135.332 223.322C135.546 223.043 135.875 222.872 136.201 222.838C136.874 222.763 137.454 223.262 137.558 223.838ZM137.558 223.838C137.496 223.549 137.31 223.291 137.056 223.151C136.802 223.012 136.502 222.995 136.249 223.077C135.729 223.245 135.479 223.79 135.578 224.236C135.66 224.684 136.102 225.093 136.649 225.046C136.913 225.024 137.183 224.892 137.364 224.665C137.543 224.439 137.614 224.128 137.558 223.838Z" fill="black"/>
<path opacity="0.1" d="M137.855 232.291C137.983 232.863 137.642 233.545 136.993 233.734C136.679 233.829 136.311 233.798 136.004 233.623C135.698 233.45 135.471 233.134 135.399 232.783C135.329 232.433 135.414 232.053 135.629 231.775C135.843 231.495 136.172 231.325 136.498 231.291C137.171 231.216 137.751 231.715 137.855 232.291ZM137.855 232.291C137.793 232.002 137.607 231.743 137.353 231.604C137.099 231.465 136.799 231.447 136.546 231.529C136.026 231.697 135.776 232.242 135.875 232.688C135.957 233.137 136.399 233.545 136.945 233.498C137.21 233.476 137.48 233.344 137.66 233.117C137.84 232.891 137.911 232.581 137.855 232.291Z" fill="black"/>
<path opacity="0.1" d="M138.136 240.743C138.264 241.315 137.924 241.997 137.275 242.186C136.96 242.28 136.592 242.249 136.285 242.075C135.979 241.902 135.753 241.586 135.68 241.235C135.611 240.884 135.695 240.505 135.91 240.227C136.124 239.948 136.453 239.777 136.779 239.743C137.452 239.668 138.032 240.167 138.136 240.743ZM138.136 240.743C138.075 240.454 137.888 240.195 137.634 240.056C137.38 239.917 137.08 239.899 136.827 239.981C136.307 240.149 136.057 240.694 136.156 241.14C136.238 241.589 136.68 241.998 137.227 241.951C137.491 241.928 137.761 241.797 137.941 241.57C138.121 241.344 138.192 241.033 138.136 240.743Z" fill="black"/>
<path opacity="0.1" d="M138.433 249.195C138.561 249.767 138.22 250.449 137.572 250.639C137.257 250.733 136.889 250.702 136.582 250.528C136.276 250.355 136.049 250.039 135.977 249.688C135.908 249.336 135.992 248.957 136.207 248.679C136.421 248.4 136.75 248.229 137.076 248.195C137.749 248.12 138.329 248.619 138.433 249.195ZM138.433 249.195C138.371 248.906 138.185 248.648 137.931 248.509C137.677 248.369 137.377 248.352 137.124 248.434C136.604 248.602 136.354 249.147 136.453 249.593C136.535 250.042 136.977 250.451 137.524 250.404C137.788 250.381 138.058 250.249 138.239 250.022C138.418 249.796 138.489 249.485 138.433 249.195Z" fill="black"/>
<path opacity="0.1" d="M138.722 257.647C138.85 258.219 138.509 258.901 137.861 259.091C137.546 259.185 137.178 259.154 136.871 258.98C136.565 258.806 136.339 258.491 136.266 258.14C136.197 257.789 136.281 257.409 136.496 257.131C136.71 256.851 137.039 256.681 137.365 256.647C138.038 256.572 138.617 257.071 138.722 257.647ZM138.722 257.647C138.66 257.358 138.474 257.1 138.22 256.96C137.966 256.821 137.666 256.804 137.413 256.886C136.893 257.054 136.643 257.599 136.742 258.045C136.824 258.494 137.266 258.903 137.813 258.855C138.077 258.833 138.347 258.701 138.527 258.474C138.707 258.247 138.778 257.937 138.722 257.647Z" fill="black"/>
<path d="M141.346 270.572L110.961 279.731L112.037 283.262L142.422 274.103L141.346 270.572Z" fill="#008E7C"/>
<path opacity="0.4" d="M141.346 270.572L110.961 279.731L112.037 283.262L142.422 274.103L141.346 270.572Z" fill="white"/>
<path d="M126.809 273.755L123.273 274.873L124.944 280.097L128.479 278.979L126.809 273.755Z" fill="#008E7C"/>
<path d="M111.804 288.436L103.963 254.662L80.2969 260.244L91.9506 293.158L111.804 288.436Z" fill="#008E7C"/>
<path d="M117.053 286.719L111.802 288.436L103.961 254.662L111.514 256.451L117.053 286.719Z" fill="#008E7C"/>
<path opacity="0.2" d="M117.053 286.719L111.802 288.436L103.961 254.662L111.514 256.451L117.053 286.719Z" fill="black"/>
<path d="M141.903 276.343C144.128 276.343 145.931 274.549 145.931 272.336C145.931 270.123 144.128 268.329 141.903 268.329C139.678 268.329 137.875 270.123 137.875 272.336C137.875 274.549 139.678 276.343 141.903 276.343Z" fill="#008E7C"/>
<path d="M183.357 270.474L182.273 274.003L212.64 283.225L213.723 279.696L183.357 270.474Z" fill="#008E7C"/>
<path opacity="0.4" d="M183.357 270.474L182.273 274.003L212.64 283.225L213.723 279.696L183.357 270.474Z" fill="white"/>
<path d="M197.924 273.673L196.242 278.893L199.775 280.019L201.457 274.799L197.924 273.673Z" fill="#008E7C"/>
<path d="M212.883 288.407L220.796 254.649L244.451 260.281L232.727 293.171L212.883 288.407Z" fill="#008E7C"/>
<path d="M207.641 286.678L212.888 288.407L220.802 254.649L213.245 256.423L207.641 286.678Z" fill="#008E7C"/>
<path opacity="0.2" d="M207.641 286.678L212.888 288.407L220.802 254.649L213.245 256.423L207.641 286.678Z" fill="black"/>
<path d="M178.797 272.235C178.792 274.448 180.592 276.246 182.817 276.251C185.041 276.255 186.848 274.465 186.854 272.252C186.858 270.039 185.059 268.242 182.834 268.237C180.609 268.231 178.801 270.022 178.797 272.235Z" fill="#008E7C"/>
<path d="M209.197 230.578C209.292 230.489 219.052 221.484 230.533 224.565C242.273 227.716 251.967 245.306 252.063 245.484L255.326 243.729C254.902 242.948 244.792 224.563 231.498 221.003C217.978 217.376 207.098 227.473 206.641 227.905L209.197 230.578Z" fill="#008E7C"/>
<path opacity="0.4" d="M209.197 230.578C209.292 230.489 219.052 221.484 230.533 224.565C242.273 227.716 251.967 245.306 252.063 245.484L255.326 243.729C254.902 242.948 244.792 224.563 231.498 221.003C217.978 217.376 207.098 227.473 206.641 227.905L209.197 230.578Z" fill="white"/>
<path d="M247.74 263.192L254.771 259.5C254.096 258.229 253.265 256.044 253.144 254.072C252.988 251.516 254.008 250.617 255.132 250.026C257.596 248.732 259.066 249.245 260.07 249.833C261.479 250.66 262.911 252.353 264.103 254.599L271.134 250.907C269.21 247.282 266.847 244.629 264.111 243.023C261.381 241.422 256.964 240.122 251.421 243.032C247.1 245.301 244.894 249.392 245.209 254.551C245.457 258.611 247.209 262.191 247.74 263.192Z" fill="#008E7C"/>
<path d="M210.672 218.256C212.196 217.209 213.755 216.222 215.321 215.245C216.882 214.262 218.47 213.321 220.057 212.381C221.653 211.455 223.249 210.529 224.871 209.647L227.304 208.325C228.127 207.905 228.939 207.465 229.772 207.062C229.014 207.591 228.234 208.084 227.465 208.597L225.124 210.074C223.562 211.057 221.975 211.997 220.387 212.936C218.791 213.862 217.195 214.787 215.573 215.669C213.955 216.559 212.331 217.438 210.672 218.256Z" fill="#263238"/>
<path d="M206.641 233.345C208.823 234.582 210.891 235.978 212.932 237.412C214.961 238.863 216.961 240.353 218.846 242.004C216.663 240.768 214.595 239.372 212.555 237.936C210.527 236.485 208.527 234.995 206.641 233.345Z" fill="#263238"/>
<path d="M210.227 231.489C211.911 231.998 213.569 232.573 215.222 233.158C216.879 233.736 218.518 234.361 220.156 234.986C221.789 235.626 223.421 236.267 225.035 236.954L227.456 237.987C228.254 238.354 229.06 238.699 229.851 239.084C229.007 238.836 228.177 238.548 227.34 238.282L224.854 237.417C223.198 236.838 221.559 236.214 219.921 235.587C218.289 234.947 216.656 234.306 215.043 233.618C213.426 232.937 211.814 232.246 210.227 231.489Z" fill="#263238"/>
<path d="M215.016 219.671C216.63 219.254 218.255 218.907 219.884 218.569C221.51 218.225 223.146 217.931 224.782 217.636C226.42 217.357 228.059 217.079 229.706 216.85L232.177 216.509C233.004 216.419 233.828 216.307 234.66 216.236C233.854 216.451 233.041 216.625 232.232 216.821L229.792 217.339C228.165 217.682 226.529 217.977 224.894 218.27C223.255 218.548 221.617 218.827 219.97 219.055C218.324 219.292 216.676 219.517 215.016 219.671Z" fill="#263238"/>
<path d="M176.109 229.711C176.383 228.406 176.823 227.135 177.392 225.923C177.962 224.712 178.659 223.55 179.535 222.518C180.412 221.497 181.492 220.596 182.792 220.098C184.092 219.616 185.579 219.62 186.883 220.138C188.202 220.649 189.242 221.751 189.803 223.019C190.094 223.652 190.276 224.331 190.351 225.026C190.417 225.719 190.389 226.44 190.112 227.132C189.97 227.473 189.749 227.816 189.395 228.045C189.224 228.164 189.015 228.232 188.809 228.263C188.607 228.292 188.4 228.283 188.164 228.202C187.73 228.018 187.513 227.671 187.326 227.359C187.16 227.034 187.031 226.701 186.944 226.365C186.579 225.019 186.543 223.65 186.607 222.297C186.8 219.601 187.512 216.905 188.972 214.585C189.709 213.438 190.633 212.383 191.783 211.611C192.917 210.835 194.245 210.301 195.601 210.146C196.268 209.985 196.958 210 197.639 209.967C197.98 209.931 198.319 210.014 198.66 210.031C198.997 210.075 199.344 210.07 199.672 210.167C201.019 210.408 202.285 210.945 203.468 211.596C204.643 212.27 205.69 213.135 206.645 214.074C207.592 215.022 208.454 216.06 209.146 217.202C207.613 215.026 205.639 213.137 203.312 211.872C202.141 211.266 200.903 210.769 199.6 210.568C199.281 210.48 198.948 210.495 198.622 210.459C198.295 210.449 197.969 210.375 197.641 210.419C196.987 210.467 196.328 210.464 195.69 210.635C194.383 210.818 193.171 211.341 192.104 212.069C191.031 212.799 190.167 213.8 189.472 214.897C188.096 217.114 187.422 219.733 187.254 222.336C187.18 223.636 187.213 224.966 187.54 226.201C187.696 226.792 187.977 227.457 188.386 227.644C188.439 227.649 188.474 227.676 188.537 227.678C188.601 227.673 188.669 227.687 188.729 227.672C188.852 227.652 188.972 227.619 189.075 227.546C189.288 227.413 189.456 227.177 189.57 226.906C189.797 226.358 189.839 225.708 189.782 225.082C189.718 224.452 189.556 223.826 189.294 223.246C188.781 222.086 187.872 221.084 186.694 220.593C185.522 220.098 184.149 220.058 182.933 220.479C181.71 220.915 180.654 221.753 179.774 222.725C178.007 224.692 176.817 227.152 176.109 229.711Z" fill="#263238"/>
<path d="M116.211 246.421C116.836 245.248 117.756 244.233 118.83 243.431C119.903 242.629 121.135 242.007 122.46 241.702C123.779 241.388 125.195 241.383 126.514 241.781C127.834 242.174 129.023 242.944 129.975 243.925C130.933 244.905 131.649 246.095 132.141 247.361C132.624 248.629 132.914 249.988 132.811 251.377C132.742 252.061 132.603 252.799 132.059 253.39C131.789 253.681 131.373 253.873 130.966 253.88C130.576 253.876 130.207 253.818 129.85 253.628C129.494 253.446 129.208 253.128 129.046 252.778C128.88 252.426 128.819 252.054 128.802 251.694C128.776 250.972 128.933 250.286 129.146 249.634C129.581 248.327 130.296 247.149 131.13 246.082C131.97 245.016 132.958 244.067 134.065 243.277C136.261 241.69 139.059 240.809 141.788 241.164C143.135 241.345 144.472 241.732 145.651 242.416C146.84 243.077 147.871 243.994 148.712 245.043C149.552 246.096 150.207 247.279 150.711 248.512C151.216 249.745 151.588 251.033 151.771 252.347C151.226 249.763 150.158 247.254 148.456 245.251C147.613 244.25 146.598 243.391 145.445 242.786C144.302 242.158 143.02 241.822 141.73 241.678C139.137 241.398 136.506 242.22 134.414 243.76C132.325 245.288 130.616 247.422 129.752 249.835C129.548 250.437 129.406 251.066 129.425 251.672C129.439 252.274 129.652 252.852 130.137 253.095C130.366 253.226 130.677 253.277 130.948 253.282C131.21 253.275 131.444 253.171 131.631 252.978C132.009 252.585 132.171 251.943 132.229 251.327C132.331 250.067 132.069 248.764 131.616 247.56C131.157 246.353 130.475 245.227 129.594 244.285C128.714 243.344 127.605 242.61 126.379 242.211C125.154 241.806 123.812 241.772 122.536 242.041C119.984 242.581 117.62 244.168 116.211 246.421Z" fill="#263238"/>
<path d="M86.2199 90.7069C86.1467 88.0536 85.5808 85.3822 84.3394 83.0545C83.7178 81.9016 82.8932 80.8364 81.8107 80.1226C80.7301 79.4249 79.3883 79.138 78.1314 79.3405C76.8693 79.5378 75.7459 80.2954 74.9694 81.2993C74.5759 81.801 74.268 82.3691 74.0554 82.9661C73.8492 83.5606 73.7338 84.2016 73.8233 84.7877C73.868 85.0772 73.975 85.3461 74.15 85.526C74.233 85.622 74.3412 85.682 74.456 85.731C74.5111 85.76 74.5804 85.7626 74.6407 85.7826C74.7029 85.7955 74.7431 85.7768 74.7956 85.7845C75.2371 85.7007 75.6701 85.121 75.9631 84.5846C76.5769 83.4626 76.9283 82.1788 77.1688 80.8989C77.6297 78.332 77.6037 75.6284 76.7993 73.1485C76.3883 71.9189 75.7881 70.7409 74.922 69.7782C74.0605 68.8174 73.0091 68.0218 71.784 67.5336C71.2051 67.2164 70.5647 67.0636 69.9411 66.8611C69.6332 66.7412 69.2987 66.736 68.9785 66.667C68.6537 66.6251 68.3335 66.531 68.0029 66.5407C66.6889 66.4265 65.3679 66.6155 64.085 66.9256C61.5213 67.602 59.1514 68.9677 57.1406 70.717C58.087 69.7724 59.1722 68.969 60.3195 68.2726C61.4727 67.5878 62.6965 66.9965 63.9995 66.6206C65.3031 66.2692 66.6624 66.0474 68.0275 66.1338C68.3704 66.117 68.7043 66.2054 69.0433 66.2421C69.3778 66.3053 69.7272 66.306 70.05 66.422C70.7034 66.6161 71.3769 66.7651 71.9856 67.0791C73.2652 67.5511 74.4268 68.3854 75.3421 69.4087C76.2729 70.4301 76.9173 71.6745 77.3581 72.9628C78.2195 75.562 78.2636 78.3501 77.804 81.0137C77.5422 82.3433 77.1772 83.6638 76.5011 84.8844C76.3352 85.19 76.1303 85.4828 75.8911 85.7587C75.6351 86.0179 75.3408 86.3036 74.876 86.379C74.6271 86.4016 74.4242 86.361 74.2343 86.2849C74.0424 86.2049 73.8551 86.0902 73.7176 85.9341C73.4292 85.6278 73.2963 85.2416 73.2412 84.8779C73.1375 84.1403 73.2833 83.4336 73.5134 82.7753C73.7526 82.1182 74.093 81.5025 74.5273 80.957C75.3758 79.8595 76.6508 79.0355 78.0542 78.8524C79.4447 78.6589 80.8902 79.0084 82.0369 79.7854C83.1791 80.5778 84.0121 81.7094 84.6194 82.9094C85.2216 84.1197 85.6197 85.4131 85.8828 86.724C86.1447 88.0355 86.2672 89.3747 86.2199 90.7069Z" fill="#263238"/>
<path d="M229.363 124.341C226.752 123.793 224.008 123.717 221.443 124.375C220.171 124.707 218.937 125.256 217.986 126.136C217.052 127.018 216.458 128.25 216.363 129.513C216.261 130.779 216.74 132.043 217.54 133.028C217.938 133.526 218.423 133.956 218.956 134.301C219.489 134.639 220.089 134.901 220.683 134.951C220.977 134.975 221.264 134.935 221.481 134.807C221.594 134.75 221.678 134.659 221.753 134.56C221.794 134.513 221.813 134.447 221.847 134.394C221.874 134.337 221.865 134.293 221.885 134.245C221.906 133.798 221.44 133.244 220.984 132.836C220.031 131.981 218.858 131.341 217.663 130.81C215.261 129.765 212.612 129.159 210 129.358C208.702 129.469 207.41 129.775 206.266 130.387C205.126 130.996 204.103 131.828 203.34 132.899C202.895 133.385 202.596 133.969 202.253 134.524C202.064 134.795 201.981 135.116 201.839 135.41C201.722 135.715 201.555 136.002 201.488 136.324C201.07 137.568 200.947 138.89 200.95 140.203C201.013 142.84 201.796 145.452 203.036 147.805C202.334 146.67 201.802 145.432 201.389 144.16C200.989 142.885 200.696 141.563 200.633 140.215C200.594 138.872 200.694 137.505 201.097 136.205C201.16 135.869 201.324 135.566 201.44 135.247C201.58 134.938 201.662 134.601 201.851 134.316C202.193 133.729 202.496 133.112 202.945 132.596C203.705 131.469 204.792 130.54 206.005 129.894C207.221 129.231 208.588 128.899 209.95 128.773C212.692 128.547 215.428 129.154 217.925 130.22C219.164 130.783 220.369 131.444 221.404 132.384C221.664 132.615 221.903 132.881 222.117 133.178C222.311 133.486 222.521 133.837 222.486 134.305C222.451 134.55 222.363 134.738 222.245 134.904C222.122 135.071 221.965 135.225 221.781 135.321C221.415 135.529 221.006 135.567 220.637 135.535C219.891 135.463 219.235 135.158 218.645 134.782C218.059 134.397 217.536 133.924 217.103 133.377C216.228 132.3 215.721 130.874 215.869 129.474C216.004 128.085 216.683 126.768 217.71 125.84C218.751 124.92 220.051 124.379 221.366 124.071C222.69 123.771 224.047 123.687 225.39 123.739C226.734 123.791 228.071 123.985 229.363 124.341Z" fill="#263238"/>
<path d="M189.228 82.6231C188.785 81.0956 188.725 79.4617 188.975 77.8839C189.223 76.3061 189.76 74.754 190.638 73.3948C191.503 72.0343 192.709 70.8576 194.168 70.1077C195.623 69.352 197.282 69.0238 198.914 69.0734C200.551 69.1173 202.159 69.539 203.641 70.2108C205.115 70.8924 206.501 71.8131 207.574 73.0795C208.086 73.7172 208.579 74.4607 208.609 75.3943C208.622 75.8553 208.434 76.348 208.102 76.682C207.772 76.9953 207.413 77.25 206.96 77.3809C206.514 77.517 206.018 77.4834 205.593 77.3223C205.166 77.1623 204.806 76.8999 204.494 76.6098C203.873 76.0204 203.433 75.3073 203.069 74.5748C202.347 73.1014 201.967 71.5036 201.784 69.9C201.606 68.2939 201.652 66.6632 201.933 65.0699C202.475 61.8923 204.121 58.8238 206.743 56.8584C208.043 55.8932 209.506 55.1117 211.085 54.7139C212.654 54.2877 214.304 54.2122 215.904 54.4063C217.507 54.6036 219.063 55.0659 220.533 55.6972C222.004 56.3291 223.408 57.117 224.676 58.0842C222.042 56.3123 219.016 55.0434 215.867 54.7339C214.301 54.5752 212.702 54.6816 211.198 55.122C209.685 55.5347 208.296 56.3142 207.063 57.2672C205.844 58.2377 204.807 59.4312 204.049 60.7885C203.285 62.1425 202.786 63.6391 202.522 65.1724C202.017 68.2339 202.343 71.4946 203.643 74.2975C203.978 74.9868 204.388 75.649 204.924 76.1603C205.449 76.6697 206.142 77.0037 206.79 76.7993C207.109 76.7168 207.423 76.4982 207.668 76.2674C207.898 76.0333 208.017 75.7303 208.013 75.3969C208.005 74.7199 207.594 74.0293 207.121 73.4483C206.139 72.2748 204.812 71.3753 203.404 70.7189C201.988 70.0657 200.449 69.6666 198.894 69.5963C197.341 69.5254 195.766 69.8227 194.373 70.5094C192.977 71.189 191.796 72.2858 190.93 73.5844C189.2 76.1855 188.522 79.5236 189.228 82.6231Z" fill="#263238"/>
<path d="M114.023 246.562C112.57 246.107 111.023 246.909 110.565 248.353C110.107 249.799 110.914 251.337 112.367 251.793C113.818 252.248 115.364 251.447 115.822 250.002C116.279 248.558 115.474 247.017 114.023 246.562ZM115.502 249.901C115.1 251.17 113.742 251.874 112.467 251.474C111.192 251.075 110.484 249.724 110.887 248.454C111.289 247.186 112.647 246.482 113.923 246.882C115.196 247.281 115.904 248.632 115.502 249.901ZM114.023 246.562C112.57 246.107 111.023 246.909 110.565 248.353C110.107 249.799 110.914 251.337 112.367 251.793C113.818 252.248 115.364 251.447 115.822 250.002C116.279 248.558 115.474 247.017 114.023 246.562ZM115.502 249.901C115.1 251.17 113.742 251.874 112.467 251.474C111.192 251.075 110.484 249.724 110.887 248.454C111.289 247.186 112.647 246.482 113.923 246.882C115.196 247.281 115.904 248.632 115.502 249.901ZM114.023 246.562C112.57 246.107 111.023 246.909 110.565 248.353C110.107 249.799 110.914 251.337 112.367 251.793C113.818 252.248 115.364 251.447 115.822 250.002C116.279 248.558 115.474 247.017 114.023 246.562ZM115.502 249.901C115.1 251.17 113.742 251.874 112.467 251.474C111.192 251.075 110.484 249.724 110.887 248.454C111.289 247.186 112.647 246.482 113.923 246.882C115.196 247.281 115.904 248.632 115.502 249.901ZM114.941 243.665C111.879 242.706 108.617 244.399 107.653 247.441C106.689 250.484 108.387 253.731 111.448 254.689C114.506 255.648 117.77 253.958 118.734 250.914C119.699 247.872 118 244.624 114.941 243.665ZM116.231 250.129C115.703 251.796 113.912 252.725 112.238 252.2C110.563 251.675 109.629 249.893 110.158 248.226C110.686 246.559 112.478 245.632 114.153 246.157C115.826 246.681 116.759 248.463 116.231 250.129ZM115.822 250.001C116.279 248.557 115.474 247.017 114.023 246.562C112.57 246.107 111.023 246.909 110.565 248.352C110.107 249.799 110.914 251.336 112.367 251.792C113.818 252.248 115.364 251.446 115.822 250.001ZM115.502 249.901C115.1 251.17 113.742 251.874 112.467 251.474C111.192 251.075 110.484 249.724 110.887 248.454C111.289 247.186 112.647 246.482 113.923 246.882C115.196 247.281 115.904 248.632 115.502 249.901ZM114.023 246.562C112.57 246.107 111.023 246.909 110.565 248.353C110.107 249.799 110.914 251.337 112.367 251.793C113.818 252.248 115.364 251.447 115.822 250.002C116.279 248.558 115.474 247.017 114.023 246.562ZM115.502 249.901C115.1 251.17 113.742 251.874 112.467 251.474C111.192 251.075 110.484 249.724 110.887 248.454C111.289 247.186 112.647 246.482 113.923 246.882C115.196 247.281 115.904 248.632 115.502 249.901ZM114.023 246.562C112.57 246.107 111.023 246.909 110.565 248.353C110.107 249.799 110.914 251.337 112.367 251.793C113.818 252.248 115.364 251.447 115.822 250.002C116.279 248.558 115.474 247.017 114.023 246.562ZM115.502 249.901C115.1 251.17 113.742 251.874 112.467 251.474C111.192 251.075 110.484 249.724 110.887 248.454C111.289 247.186 112.647 246.482 113.923 246.882C115.196 247.281 115.904 248.632 115.502 249.901Z" fill="#455A64"/>
<path d="M112.597 254.794L110.467 254.127L110.109 255.664L112.004 256.258L112.597 254.794Z" fill="#455A64"/>
<path d="M108.768 252.809L107.736 250.838L106.391 251.674L107.308 253.427L108.768 252.809Z" fill="#455A64"/>
<path d="M107.471 248.712L108.142 246.593L106.597 246.237L106 248.122L107.471 248.712Z" fill="#455A64"/>
<path d="M109.465 244.903L111.446 243.877L110.606 242.538L108.844 243.451L109.465 244.903Z" fill="#455A64"/>
<path d="M113.586 243.614L115.717 244.281L116.074 242.745L114.179 242.151L113.586 243.614Z" fill="#455A64"/>
<path d="M117.414 245.598L118.446 247.57L119.792 246.734L118.874 244.981L117.414 245.598Z" fill="#455A64"/>
<path d="M118.711 249.695L118.039 251.815L119.584 252.171L120.181 250.285L118.711 249.695Z" fill="#455A64"/>
<path d="M116.708 253.504L114.727 254.531L115.567 255.869L117.329 254.956L116.708 253.504Z" fill="#455A64"/>
<path d="M221.526 228.139C224.449 224.222 223.625 218.689 219.688 215.783C215.749 212.876 210.187 213.695 207.265 217.611C204.343 221.528 205.166 227.061 209.104 229.969C213.041 232.875 218.604 232.057 221.526 228.139ZM217.726 225.333C216.36 227.164 213.764 227.546 211.925 226.189C210.085 224.83 209.7 222.248 211.066 220.417C212.43 218.587 215.027 218.205 216.868 219.564C218.706 220.922 219.09 223.504 217.726 225.333Z" fill="#263238"/>
<path d="M210.687 230.686L207.945 228.662L206.656 230.704L209.095 232.505L210.687 230.686Z" fill="#263238"/>
<path d="M206.161 225.914L205.66 222.554L203.297 223.092L203.742 226.081L206.161 225.914Z" fill="#263238"/>
<path d="M206.344 219.352L208.379 216.624L206.325 215.342L204.516 217.768L206.344 219.352Z" fill="#263238"/>
<path d="M211.144 214.842L214.522 214.345L213.981 211.994L210.977 212.436L211.144 214.842Z" fill="#263238"/>
<path d="M217.742 215.028L220.484 217.052L221.773 215.009L219.334 213.209L217.742 215.028Z" fill="#263238"/>
<path d="M222.281 219.8L222.781 223.16L225.144 222.622L224.7 219.633L222.281 219.8Z" fill="#263238"/>
<path d="M222.09 226.362L220.055 229.09L222.108 230.372L223.918 227.946L222.09 226.362Z" fill="#263238"/>
<path d="M217.292 230.871L213.914 231.369L214.455 233.719L217.459 233.278L217.292 230.871Z" fill="#263238"/>
<path d="M211.211 223.299L213.097 225.665L216.101 225.222L217.216 222.415L215.332 220.05L212.328 220.491L211.211 223.299ZM214.787 222.088C215.214 222.404 215.303 223.002 214.986 223.427C214.669 223.851 214.067 223.941 213.639 223.625C213.213 223.311 213.124 222.71 213.44 222.286C213.758 221.861 214.361 221.774 214.787 222.088Z" fill="#263238"/>
<path d="M228.169 56.1414C226.898 55.7429 225.544 56.4451 225.143 57.7083C224.743 58.974 225.448 60.3197 226.72 60.7182C227.989 61.1166 229.342 60.4151 229.743 59.1507C230.144 57.8875 229.439 56.5392 228.169 56.1414ZM229.464 59.0623C229.112 60.1733 227.923 60.7891 226.807 60.4396C225.692 60.0901 225.072 58.9076 225.424 57.7966C225.775 56.6869 226.964 56.0711 228.081 56.4206C229.196 56.7701 229.816 57.9526 229.464 59.0623ZM228.169 56.1414C226.898 55.7429 225.544 56.4451 225.143 57.7083C224.743 58.974 225.448 60.3197 226.72 60.7182C227.989 61.1166 229.342 60.4151 229.743 59.1507C230.144 57.8875 229.439 56.5392 228.169 56.1414ZM229.464 59.0623C229.112 60.1733 227.923 60.7891 226.807 60.4396C225.692 60.0901 225.072 58.9076 225.424 57.7966C225.775 56.6869 226.964 56.0711 228.081 56.4206C229.196 56.7701 229.816 57.9526 229.464 59.0623ZM228.169 56.1414C226.898 55.7429 225.544 56.4451 225.143 57.7083C224.743 58.974 225.448 60.3197 226.72 60.7182C227.989 61.1166 229.342 60.4151 229.743 59.1507C230.144 57.8875 229.439 56.5392 228.169 56.1414ZM229.464 59.0623C229.112 60.1733 227.923 60.7891 226.807 60.4396C225.692 60.0901 225.072 58.9076 225.424 57.7966C225.775 56.6869 226.964 56.0711 228.081 56.4206C229.196 56.7701 229.816 57.9526 229.464 59.0623ZM228.973 53.6067C226.294 52.7672 223.44 54.2483 222.596 56.91C221.752 59.573 223.238 62.414 225.917 63.2528C228.594 64.0917 231.449 62.6126 232.292 59.9489C233.136 57.2872 231.649 54.445 228.973 53.6067ZM230.102 59.2622C229.64 60.7207 228.072 61.5338 226.607 61.0741C225.141 60.6143 224.324 59.0552 224.787 57.5967C225.249 56.1382 226.818 55.3264 228.282 55.7861C229.747 56.2452 230.564 57.8043 230.102 59.2622ZM229.744 59.1507C230.144 57.8875 229.44 56.5392 228.17 56.1414C226.899 55.7429 225.544 56.4451 225.144 57.7083C224.743 58.974 225.449 60.3197 226.72 60.7182C227.99 61.116 229.343 60.4151 229.744 59.1507ZM229.464 59.0623C229.112 60.1733 227.923 60.7891 226.807 60.4396C225.692 60.0901 225.072 58.9076 225.424 57.7966C225.775 56.6869 226.964 56.0711 228.081 56.4206C229.196 56.7701 229.816 57.9526 229.464 59.0623ZM228.169 56.1414C226.898 55.7429 225.544 56.4451 225.143 57.7083C224.743 58.974 225.448 60.3197 226.72 60.7182C227.989 61.1166 229.342 60.4151 229.743 59.1507C230.144 57.8875 229.439 56.5392 228.169 56.1414ZM229.464 59.0623C229.112 60.1733 227.923 60.7891 226.807 60.4396C225.692 60.0901 225.072 58.9076 225.424 57.7966C225.775 56.6869 226.964 56.0711 228.081 56.4206C229.196 56.7701 229.816 57.9526 229.464 59.0623ZM228.169 56.1414C226.898 55.7429 225.544 56.4451 225.143 57.7083C224.743 58.974 225.448 60.3197 226.72 60.7182C227.989 61.1166 229.342 60.4151 229.743 59.1507C230.144 57.8875 229.439 56.5392 228.169 56.1414ZM229.464 59.0623C229.112 60.1733 227.923 60.7891 226.807 60.4396C225.692 60.0901 225.072 58.9076 225.424 57.7966C225.775 56.6869 226.964 56.0711 228.081 56.4206C229.196 56.7701 229.816 57.9526 229.464 59.0623Z" fill="#263238"/>
<path d="M226.911 63.3444L225.047 62.7602L224.734 64.1052L226.393 64.6249L226.911 63.3444Z" fill="#263238"/>
<path d="M223.565 61.6073L222.662 59.8831L221.484 60.6137L222.288 62.1476L223.565 61.6073Z" fill="#263238"/>
<path d="M222.427 58.0223L223.015 56.1678L221.663 55.8571L221.141 57.5064L222.427 58.0223Z" fill="#263238"/>
<path d="M224.176 54.6893L225.91 53.7911L225.175 52.6202L223.633 53.4191L224.176 54.6893Z" fill="#263238"/>
<path d="M227.773 53.561L229.638 54.1451L229.951 52.8001L228.293 52.2804L227.773 53.561Z" fill="#263238"/>
<path d="M231.125 55.2981L232.028 57.0229L233.205 56.2917L232.402 54.7578L231.125 55.2981Z" fill="#263238"/>
<path d="M232.267 58.8831L231.68 60.7375L233.032 61.049L233.554 59.3996L232.267 58.8831Z" fill="#263238"/>
<path d="M230.515 62.216L228.781 63.1142L229.516 64.2851L231.058 63.4862L230.515 62.216Z" fill="#263238"/>
<path d="M203.404 148.26C202.133 147.861 200.779 148.564 200.378 149.827C199.978 151.092 200.683 152.438 201.955 152.837C203.225 153.235 204.577 152.534 204.978 151.269C205.378 150.006 204.674 148.658 203.404 148.26ZM204.698 151.181C204.346 152.292 203.158 152.908 202.042 152.558C200.927 152.209 200.308 151.026 200.659 149.915C201.01 148.805 202.199 148.19 203.316 148.539C204.43 148.889 205.05 150.071 204.698 151.181ZM203.404 148.26C202.133 147.861 200.779 148.564 200.378 149.827C199.978 151.092 200.683 152.438 201.955 152.837C203.225 153.235 204.577 152.534 204.978 151.269C205.378 150.006 204.674 148.658 203.404 148.26ZM204.698 151.181C204.346 152.292 203.158 152.908 202.042 152.558C200.927 152.209 200.308 151.026 200.659 149.915C201.01 148.805 202.199 148.19 203.316 148.539C204.43 148.889 205.05 150.071 204.698 151.181ZM203.404 148.26C202.133 147.861 200.779 148.564 200.378 149.827C199.978 151.092 200.683 152.438 201.955 152.837C203.225 153.235 204.577 152.534 204.978 151.269C205.378 150.006 204.674 148.658 203.404 148.26ZM204.698 151.181C204.346 152.292 203.158 152.908 202.042 152.558C200.927 152.209 200.308 151.026 200.659 149.915C201.01 148.805 202.199 148.19 203.316 148.539C204.43 148.889 205.05 150.071 204.698 151.181ZM204.208 145.725C201.528 144.886 198.674 146.367 197.83 149.028C196.987 151.692 198.472 154.532 201.151 155.371C203.828 156.21 206.683 154.731 207.527 152.067C208.371 149.406 206.884 146.563 204.208 145.725ZM205.336 151.381C204.874 152.839 203.307 153.652 201.841 153.193C200.376 152.733 199.559 151.174 200.021 149.715C200.483 148.257 202.052 147.445 203.517 147.905C204.981 148.364 205.798 149.923 205.336 151.381ZM204.978 151.269C205.378 150.006 204.674 148.658 203.404 148.26C202.133 147.861 200.779 148.564 200.378 149.827C199.978 151.092 200.683 152.438 201.955 152.837C203.225 153.235 204.577 152.534 204.978 151.269ZM204.698 151.181C204.346 152.292 203.158 152.908 202.042 152.558C200.927 152.209 200.308 151.026 200.659 149.915C201.01 148.805 202.199 148.19 203.316 148.539C204.43 148.889 205.05 150.071 204.698 151.181ZM203.404 148.26C202.133 147.861 200.779 148.564 200.378 149.827C199.978 151.092 200.683 152.438 201.955 152.837C203.225 153.235 204.577 152.534 204.978 151.269C205.378 150.006 204.674 148.658 203.404 148.26ZM204.698 151.181C204.346 152.292 203.158 152.908 202.042 152.558C200.927 152.209 200.308 151.026 200.659 149.915C201.01 148.805 202.199 148.19 203.316 148.539C204.43 148.889 205.05 150.071 204.698 151.181ZM203.404 148.26C202.133 147.861 200.779 148.564 200.378 149.827C199.978 151.092 200.683 152.438 201.955 152.837C203.225 153.235 204.577 152.534 204.978 151.269C205.378 150.006 204.674 148.658 203.404 148.26ZM204.698 151.181C204.346 152.292 203.158 152.908 202.042 152.558C200.927 152.209 200.308 151.026 200.659 149.915C201.01 148.805 202.199 148.19 203.316 148.539C204.43 148.889 205.05 150.071 204.698 151.181Z" fill="#263238"/>
<path d="M202.145 155.463L200.281 154.879L199.969 156.224L201.627 156.743L202.145 155.463Z" fill="#263238"/>
<path d="M198.799 153.726L197.897 152.002L196.719 152.732L197.522 154.266L198.799 153.726Z" fill="#263238"/>
<path d="M197.662 150.141L198.25 148.286L196.897 147.975L196.375 149.625L197.662 150.141Z" fill="#263238"/>
<path d="M199.41 146.808L201.144 145.91L200.409 144.739L198.867 145.538L199.41 146.808Z" fill="#263238"/>
<path d="M203.008 145.679L204.872 146.264L205.185 144.919L203.527 144.399L203.008 145.679Z" fill="#263238"/>
<path d="M206.359 147.416L207.262 149.141L208.44 148.41L207.636 146.876L206.359 147.416Z" fill="#263238"/>
<path d="M207.501 151.002L206.914 152.856L208.266 153.167L208.789 151.518L207.501 151.002Z" fill="#263238"/>
<path d="M205.749 154.334L204.016 155.233L204.75 156.404L206.292 155.605L205.749 154.334Z" fill="#263238"/>
<path d="M61.6317 75.738C62.6312 71.6578 60.1155 67.5433 56.0135 66.5491C51.9103 65.5548 47.7733 68.0572 46.7737 72.1375C45.7742 76.219 48.2899 80.3341 52.3932 81.3284C56.4958 82.322 60.6321 79.8196 61.6317 75.738ZM57.6723 74.7786C57.205 76.6859 55.2745 77.8542 53.3584 77.3893C51.441 76.9245 50.2664 75.0043 50.7337 73.097C51.2005 71.1909 53.1315 70.0232 55.049 70.4881C56.9645 70.9524 58.139 72.8726 57.6723 74.7786Z" fill="#263238"/>
<path d="M53.8943 81.3671L51.0376 80.6746L50.7031 82.7244L53.2435 83.3402L53.8943 81.3671Z" fill="#263238"/>
<path d="M48.6904 79.0922L47.1626 76.593L45.4688 77.8071L46.8274 80.0297L48.6904 79.0922Z" fill="#263238"/>
<path d="M46.632 73.8236L47.3282 70.9826L45.2675 70.6493L44.6484 73.1769L46.632 73.8236Z" fill="#263238"/>
<path d="M48.9113 68.6485L51.4231 67.1287L50.2032 65.4438L47.9688 66.796L48.9113 68.6485Z" fill="#263238"/>
<path d="M54.2188 66.5981L57.0755 67.2906L57.4106 65.2408L54.8696 64.625L54.2188 66.5981Z" fill="#263238"/>
<path d="M59.4219 68.8729L60.9497 71.3721L62.6435 70.158L61.2849 67.9354L59.4219 68.8729Z" fill="#263238"/>
<path d="M61.4853 74.1415L60.7891 76.9831L62.8498 77.3158L63.4688 74.7882L61.4853 74.1415Z" fill="#263238"/>
<path d="M59.1994 79.3166L56.6875 80.8364L57.9081 82.5212L60.1425 81.1691L59.1994 79.3166Z" fill="#263238"/>
<path d="M51.8259 75.3337L54.1187 76.5827L56.3518 75.2299L56.2915 72.6321L54 71.3837L51.7656 72.7339L51.8259 75.3337ZM54.2548 73.1821C54.7008 73.2897 54.9724 73.7346 54.8635 74.1783C54.7552 74.6199 54.308 74.8921 53.862 74.7837C53.4179 74.676 53.145 74.2292 53.2533 73.7875C53.3622 73.3445 53.8108 73.0744 54.2548 73.1821Z" fill="#263238"/>
<path d="M234.416 154.367C232.673 151.726 231.693 148.756 231.693 145.615C231.693 134.528 243.933 125.538 259.023 125.538C274.113 125.538 286.342 134.528 286.342 145.615C286.342 156.703 274.113 165.693 259.023 165.693C251.706 165.693 245.073 163.585 240.172 160.138L230.758 162.519L234.416 154.367Z" fill="white"/>
<path d="M234.424 154.367C232.778 151.929 231.747 149.05 231.639 146.093C231.557 143.141 232.288 140.155 233.812 137.601C235.302 135.029 237.425 132.86 239.823 131.115C242.224 129.36 244.928 128.035 247.75 127.104C250.572 126.165 253.513 125.603 256.479 125.367C259.45 125.151 262.441 125.334 265.377 125.817C266.106 125.966 266.846 126.065 267.567 126.256L269.725 126.833L271.834 127.574C272.535 127.826 273.202 128.165 273.887 128.457C276.579 129.73 279.102 131.399 281.225 133.506C283.342 135.604 285.049 138.168 285.95 141.036C286.848 143.895 286.914 147.032 286.039 149.907C285.189 152.791 283.521 155.381 281.432 157.507C279.339 159.641 276.836 161.339 274.158 162.642C271.481 163.96 268.596 164.818 265.671 165.347C262.74 165.847 259.75 166.061 256.782 165.853C253.815 165.667 250.868 165.128 248.044 164.2C245.224 163.276 242.51 161.986 240.094 160.259L240.216 160.281L230.783 162.588L230.641 162.623L230.701 162.491L234.424 154.367ZM234.424 154.367L230.83 162.547L230.748 162.45L240.143 159.995L240.208 159.978L240.265 160.018C245.112 163.346 250.959 165.079 256.81 165.39C259.743 165.57 262.692 165.331 265.573 164.814C268.451 164.282 271.286 163.431 273.908 162.13C276.53 160.845 278.973 159.175 281.003 157.092C283.029 155.017 284.63 152.507 285.439 149.734C286.274 146.969 286.194 143.967 285.333 141.225C284.476 138.47 282.839 135.987 280.786 133.94C278.729 131.887 276.268 130.246 273.633 128.99C272.962 128.703 272.31 128.367 271.622 128.118L269.553 127.385L267.433 126.811C266.726 126.621 265.997 126.523 265.28 126.374C262.393 125.886 259.446 125.709 256.517 125.896C253.592 126.103 250.686 126.632 247.895 127.533C245.104 128.427 242.427 129.71 240.046 131.418C237.665 133.116 235.567 135.238 234.054 137.741C232.514 140.232 231.746 143.162 231.78 146.088C231.839 149.02 232.817 151.904 234.424 154.367Z" fill="#263238"/>
<path d="M244.968 148.902V150.395H238.852V141.634H244.856V143.127H240.564V145.237H244.273V146.619H240.564V148.902L244.968 148.902Z" fill="#263238"/>
<path d="M246.305 150.396V141.634H250.201C250.606 141.634 250.98 141.719 251.323 141.888C251.666 142.057 251.961 142.279 252.209 142.554C252.458 142.83 252.652 143.143 252.792 143.492C252.933 143.842 253.003 144.194 253.003 144.547C253.003 145.114 252.86 145.631 252.575 146.096C252.29 146.561 251.903 146.896 251.415 147.101L253.425 150.396H251.502L249.704 147.459H248.017V150.396H246.305ZM248.017 145.966H250.163C250.32 145.966 250.467 145.929 250.603 145.855C250.74 145.78 250.857 145.68 250.957 145.552C251.056 145.425 251.135 145.275 251.192 145.102C251.251 144.929 251.28 144.744 251.28 144.547C251.28 144.341 251.246 144.152 251.181 143.98C251.114 143.807 251.026 143.657 250.914 143.53C250.802 143.402 250.674 143.303 250.529 143.233C250.384 143.163 250.237 143.128 250.088 143.128H248.017V145.966H248.017Z" fill="#263238"/>
<path d="M254.555 150.396V141.634H258.451C258.856 141.634 259.23 141.719 259.573 141.888C259.915 142.057 260.211 142.279 260.459 142.554C260.708 142.83 260.902 143.143 261.042 143.492C261.183 143.842 261.253 144.194 261.253 144.547C261.253 145.114 261.11 145.631 260.825 146.096C260.54 146.561 260.153 146.896 259.665 147.101L261.675 150.396H259.751L257.953 147.459H256.266V150.396H254.555ZM256.267 145.966H258.413C258.57 145.966 258.717 145.929 258.853 145.855C258.99 145.78 259.107 145.68 259.207 145.552C259.306 145.425 259.385 145.275 259.442 145.102C259.501 144.929 259.53 144.744 259.53 144.547C259.53 144.341 259.496 144.152 259.431 143.98C259.364 143.807 259.276 143.657 259.164 143.53C259.052 143.402 258.924 143.303 258.779 143.233C258.634 143.163 258.487 143.128 258.338 143.128H256.267V145.966Z" fill="#263238"/>
<path d="M266.565 150.457C265.92 150.457 265.336 150.332 264.81 150.081C264.284 149.83 263.834 149.497 263.458 149.082C263.081 148.667 262.79 148.191 262.583 147.657C262.377 147.122 262.273 146.575 262.273 146.016C262.273 145.432 262.383 144.873 262.602 144.337C262.821 143.803 263.123 143.33 263.507 142.918C263.892 142.507 264.349 142.18 264.878 141.938C265.407 141.695 265.982 141.573 266.602 141.573C267.239 141.573 267.82 141.703 268.345 141.962C268.871 142.221 269.32 142.56 269.691 142.98C270.063 143.399 270.353 143.877 270.56 144.412C270.766 144.947 270.87 145.489 270.87 146.04C270.87 146.625 270.762 147.182 270.547 147.712C270.332 148.243 270.034 148.712 269.654 149.119C269.274 149.527 268.819 149.852 268.29 150.094C267.76 150.336 267.186 150.457 266.565 150.457ZM264.009 146.015C264.009 146.394 264.067 146.76 264.183 147.113C264.299 147.467 264.467 147.78 264.685 148.051C264.905 148.323 265.174 148.541 265.492 148.705C265.81 148.87 266.172 148.952 266.578 148.952C266.991 148.952 267.357 148.868 267.675 148.699C267.993 148.531 268.262 148.307 268.481 148.027C268.701 147.747 268.866 147.432 268.978 147.083C269.09 146.734 269.145 146.378 269.145 146.016C269.145 145.638 269.085 145.272 268.966 144.918C268.846 144.564 268.677 144.251 268.457 143.98C268.238 143.708 267.969 143.492 267.651 143.332C267.333 143.172 266.975 143.091 266.578 143.091C266.164 143.091 265.797 143.176 265.474 143.344C265.152 143.513 264.883 143.735 264.668 144.011C264.453 144.287 264.289 144.599 264.178 144.949C264.065 145.298 264.009 145.653 264.009 146.015Z" fill="#263238"/>
<path d="M272.188 150.396V141.635H276.083C276.488 141.635 276.862 141.719 277.205 141.888C277.548 142.057 277.844 142.279 278.092 142.554C278.34 142.83 278.535 143.143 278.675 143.492C278.816 143.842 278.886 144.194 278.886 144.547C278.886 145.114 278.743 145.631 278.458 146.096C278.173 146.561 277.786 146.896 277.298 147.101L279.308 150.396H277.385L275.587 147.459H273.899V150.396H272.188ZM273.899 145.966H276.046C276.203 145.966 276.35 145.929 276.486 145.855C276.623 145.781 276.741 145.68 276.84 145.552C276.939 145.425 277.017 145.275 277.075 145.102C277.133 144.929 277.163 144.744 277.163 144.547C277.163 144.341 277.129 144.152 277.063 143.98C276.997 143.807 276.909 143.657 276.796 143.53C276.685 143.402 276.557 143.303 276.412 143.233C276.267 143.163 276.12 143.128 275.971 143.128H273.9V145.966H273.899Z" fill="#263238"/>
</svg>
