<svg width="20" height="18" viewBox="0 0 20 18" fill="none" xmlns="http://www.w3.org/2000/svg">
<g clip-path="url(#clip0_1099_2525)">
<path d="M15.7292 9.31252C15.7906 9.5262 15.7697 9.75504 15.6706 9.95415C15.5715 10.1533 15.4014 10.3082 15.1937 10.3887C14.9728 10.473 14.7275 10.4667 14.5113 10.3712C14.2951 10.2757 14.1256 10.0988 14.0397 9.87903V9.87091C13.7991 9.22191 13.4599 8.61367 13.0339 8.06751C12.2687 7.08064 11.1463 6.43207 9.90723 6.26086C9.22848 6.16753 8.53926 6.18067 7.86459 6.29982H7.83366C7.61016 6.32716 7.38456 6.26917 7.20215 6.1375C7.10731 6.07006 7.02703 5.9843 6.96607 5.88531C6.90512 5.78632 6.86474 5.67612 6.84733 5.56125L6.83594 5.51905C6.8095 5.29622 6.86756 5.07157 6.9987 4.88924C7.06755 4.7964 7.15424 4.71816 7.25372 4.65908C7.3532 4.6 7.46348 4.56126 7.57813 4.54512H7.59766C8.47003 4.39634 9.36054 4.38648 10.236 4.5159C11.0501 4.63971 11.8335 4.91503 12.5456 5.32751C13.2587 5.74431 13.8892 6.28786 14.4059 6.93125C14.9568 7.63321 15.3959 8.41557 15.708 9.25084C15.7161 9.2705 15.7211 9.29132 15.7227 9.31252H15.7292ZM2.57487 17.143C2.19889 17.143 1.78223 17.1218 1.32813 17.078C0.874024 17.0342 0.431315 16.9887 0 16.9417V15.3915H2.66602C2.81896 15.4073 2.97264 15.3694 3.10059 15.2844C3.17795 15.2213 3.22854 15.1315 3.24219 15.0328C3.25448 14.951 3.26155 14.8686 3.26335 14.786V14.4744C3.2711 14.3368 3.23767 14.2001 3.16732 14.0816C3.1222 14.0294 3.06485 13.9893 3.00039 13.9646C2.93592 13.94 2.86634 13.9316 2.79785 13.9403H2.35352C2.23037 13.9296 2.10731 13.9617 2.00521 14.0312C1.9307 14.0988 1.88522 14.1924 1.87826 14.2926H0.0211589L0.232747 9.59821H4.90886V11.3513H1.90918L1.85872 12.4875C1.98032 12.399 2.12267 12.3431 2.27214 12.3252C2.43377 12.3011 2.59699 12.2892 2.76042 12.2895H3.52865C3.86546 12.2758 4.19902 12.3598 4.48893 12.5314C4.7346 12.6879 4.92785 12.914 5.04395 13.1807C5.16802 13.4732 5.22956 13.7883 5.22461 14.1059V15.2097C5.24173 15.601 5.14203 15.9885 4.93815 16.3232C4.72674 16.6223 4.42063 16.8419 4.06901 16.9465C3.58733 17.0905 3.08567 17.1568 2.58301 17.143H2.57487ZM8.16081 17.1332C7.78026 17.1584 7.40126 17.065 7.07637 16.8657C6.75148 16.6665 6.49681 16.3714 6.34766 16.0213C6.17659 15.6384 6.06254 15.2326 6.00912 14.8169C5.94355 14.3327 5.91146 13.8446 5.91309 13.356C5.90648 12.8301 5.94295 12.3046 6.02214 11.7847C6.08334 11.3581 6.22706 10.9474 6.44531 10.5754C6.65692 10.235 6.96508 9.965 7.33073 9.79949C7.80304 9.6017 8.31297 9.50918 8.82487 9.52841C9.16723 9.5256 9.5095 9.54077 9.85026 9.57386C10.1202 9.6007 10.3881 9.64406 10.6527 9.70372C10.9017 9.76216 11.1605 9.82708 11.4307 9.90013V11.4211C11.2826 11.3951 11.0938 11.3708 10.8643 11.3513C10.6348 11.3318 10.376 11.314 10.0977 11.301C9.81934 11.288 9.51498 11.2815 9.19922 11.2815C8.89901 11.2615 8.59892 11.3221 8.33008 11.4568C8.22724 11.5301 8.14084 11.6239 8.07638 11.7324C8.01193 11.8408 7.97084 11.9615 7.95573 12.0866C7.88605 12.506 7.85554 12.9309 7.86459 13.356C7.86097 13.6943 7.87782 14.0325 7.91504 14.3689C7.93284 14.5766 7.98797 14.7795 8.0778 14.9678C8.14332 15.0968 8.25137 15.1994 8.38379 15.2584C8.52133 15.3156 8.6694 15.3432 8.81836 15.3395C9.04076 15.3405 9.26303 15.3285 9.48405 15.3038C9.67937 15.2795 9.82748 15.2584 9.92839 15.2389V14.265H8.88835V12.7213C9.03646 12.7018 9.21387 12.684 9.41895 12.671C9.62403 12.658 9.83562 12.645 10.0553 12.6353C10.2751 12.6255 10.4753 12.6207 10.6559 12.6207C10.8984 12.6207 11.1117 12.6207 11.2972 12.6207C11.4828 12.6207 11.6537 12.6206 11.8083 12.6353V17.078H10.3337L10.07 16.5911C9.83134 16.7356 9.57755 16.8537 9.31315 16.9433C8.9437 17.0757 8.55334 17.1406 8.16081 17.1348V17.1332ZM19.9609 7.962C20.0304 8.1861 20.0089 8.42842 19.9012 8.63692C19.7935 8.84542 19.6081 9.00347 19.3848 9.07716C19.1584 9.14931 18.9129 9.13127 18.6996 9.02684C18.594 8.97394 18.5001 8.90062 18.4233 8.81117C18.3464 8.72171 18.2882 8.6179 18.252 8.50578V8.49279C17.8532 7.24642 17.2564 6.07196 16.4844 5.01423C15.8082 4.09665 14.9444 3.3326 13.9502 2.77256C12.9529 2.22937 11.8509 1.90453 10.7178 1.81973C9.39792 1.72721 8.0717 1.84446 6.78874 2.1671C6.67567 2.19427 6.55833 2.19879 6.4435 2.1804C6.32867 2.16201 6.21864 2.12107 6.11979 2.05996C5.91802 1.93616 5.77262 1.73874 5.71452 1.50969C5.71296 1.5011 5.71296 1.49231 5.71452 1.48372C5.6648 1.26098 5.70515 1.02768 5.82682 0.83443C5.95126 0.635142 6.14855 0.491941 6.37696 0.435117H6.403C7.88262 0.0633762 9.41291 -0.0665456 10.9342 0.0504131C12.2988 0.157287 13.6243 0.556075 14.8205 1.21964C16.0167 1.8832 17.0555 2.79597 17.8662 3.89583C18.7606 5.10389 19.4526 6.44859 19.9154 7.87759C19.9366 7.90449 19.9521 7.93542 19.9609 7.96849V7.962Z" fill="#008E7C"/>
</g>
<defs>
<clipPath id="clip0_1099_2525">
<rect width="20" height="17.1429" fill="white"/>
</clipPath>
</defs>
</svg>
