<svg width="391" height="261" viewBox="0 0 391 261" fill="none" xmlns="http://www.w3.org/2000/svg">
<path d="M191.38 85.4571C190.966 85.4571 190.548 85.3894 190.146 85.2499L183.771 83.0407C182.498 82.5997 181.55 81.5042 181.295 80.1812L180.021 73.5557C179.767 72.2332 180.241 70.8638 181.259 69.9818L186.36 65.565C187.378 64.683 188.801 64.4097 190.074 64.8507L196.449 67.0598C197.721 67.5009 198.67 68.5963 198.924 69.9193L200.199 76.5448C200.453 77.8673 199.979 79.2362 198.961 80.1182L193.859 84.535C193.163 85.1384 192.277 85.4571 191.38 85.4571ZM185.344 79.1778L191.3 81.2418L196.067 77.115L194.876 70.9242L188.919 68.8598L184.153 72.9866L185.344 79.1778Z" fill="#F5F5F5"/>
<path d="M265.742 66.2164C265.328 66.2164 264.911 66.1487 264.509 66.0092L261.282 64.8913C260.009 64.4498 259.06 63.3538 258.806 62.0313L258.162 58.6787C257.907 57.3567 258.381 55.9879 259.399 55.1054L261.982 52.8691C263.001 51.9871 264.424 51.7137 265.696 52.1553L268.922 53.2737C270.195 53.7147 271.144 54.8107 271.398 56.1337L272.043 59.4863C272.297 60.8093 271.823 62.1776 270.806 63.0596L268.223 65.2959C267.526 65.8977 266.64 66.2164 265.742 66.2164ZM262.855 61.028L265.664 62.0011L267.911 60.0554L267.349 57.1365L264.54 56.1628L262.293 58.1086L262.855 61.028Z" fill="#F5F5F5"/>
<path d="M354.904 115.28C354.08 115.28 353.286 114.907 352.763 114.255L350.945 111.987C350.335 111.225 350.175 110.187 350.529 109.278L351.585 106.569C351.938 105.66 352.758 105.003 353.722 104.855L356.596 104.414C357.558 104.266 358.538 104.647 359.15 105.409L360.967 107.677C361.578 108.438 361.737 109.476 361.383 110.386L360.328 113.094C359.974 114.003 359.155 114.66 358.19 114.808L355.316 115.249C355.179 115.27 355.041 115.28 354.904 115.28ZM357.011 106.465C356.977 106.465 356.945 106.468 356.912 106.473L354.038 106.914C353.806 106.949 353.61 107.107 353.525 107.325L352.47 110.034C352.385 110.252 352.423 110.501 352.57 110.684L354.388 112.952C354.534 113.135 354.774 113.226 355 113.19L357.874 112.75C358.105 112.714 358.301 112.557 358.386 112.339L359.442 109.63C359.526 109.412 359.488 109.163 359.342 108.98V108.98L357.524 106.712C357.399 106.556 357.208 106.465 357.011 106.465Z" fill="#E0E0E0"/>
<path d="M30.5463 137.91C29.4878 137.91 28.4673 137.429 27.7946 136.59L23.5225 131.262C22.7384 130.283 22.5338 128.949 22.9888 127.781L25.4677 121.416C25.9233 120.247 26.9756 119.404 28.2153 119.214L34.9663 118.178C36.208 117.988 37.4634 118.478 38.248 119.457L42.5201 124.786C43.3047 125.764 43.5093 127.098 43.0543 128.266L40.5749 134.631C40.1198 135.8 39.067 136.644 37.8268 136.835L31.0758 137.87C30.8998 137.896 30.7228 137.91 30.5463 137.91ZM26.4112 129.037L30.5947 134.256L37.2056 133.242L39.633 127.01L35.4494 121.791L28.839 122.805L26.4112 129.037Z" fill="#E0E0E0"/>
<path d="M47.8256 91.2396H43.7998C42.8235 91.2396 41.9139 90.7148 41.4261 89.8692L39.4132 86.3823C38.9248 85.5368 38.9248 84.4871 39.4132 83.6415L41.4261 80.1546C41.9139 79.3091 42.8235 78.7842 43.7998 78.7842H47.8256C48.8013 78.7842 49.7109 79.3091 50.1993 80.1541L52.2127 83.641C52.7011 84.4866 52.7011 85.5363 52.2127 86.3818L50.1993 89.8687C49.7109 90.7148 48.8013 91.2396 47.8256 91.2396ZM43.7993 80.8679C43.565 80.8679 43.3463 80.994 43.2291 81.197L41.2162 84.6839C41.0991 84.887 41.0991 85.139 41.2162 85.342L43.2291 88.8289C43.3463 89.032 43.565 89.158 43.7993 89.158H47.8251C48.0594 89.158 48.278 89.032 48.3952 88.8289L50.4081 85.342C50.5252 85.139 50.5252 84.887 50.4081 84.6839L48.3952 81.197C48.278 80.994 48.0594 80.8679 47.8251 80.8679H43.7993Z" fill="#EBEBEB"/>
<path d="M116.499 51.8542L108.65 46.9142L99.0105 30.648L85.6033 22.4387L83.0078 25.2492L84.3714 27.0794L88.6013 32.7562L105.406 55.3115L112.258 59.0816L116.499 51.8542Z" fill="#EBEBEB"/>
<path d="M106.631 63.549L104.383 56.0581L79.6906 27.85L76.3984 29.7978L81.6113 44.6295L95.9453 58.7083L99.1578 67.5013L106.631 63.549Z" fill="#EBEBEB"/>
<path d="M119.989 53.2497C119.989 53.2497 147.873 68.5521 153.49 73.7181C159.107 78.8842 172.232 100.391 170.899 103.138C169.566 105.885 168.546 106.239 165.521 103.597C162.496 100.954 152.721 86.1954 150.093 83.8107C147.465 81.4261 114.805 62.265 114.805 62.265L119.989 53.2497Z" fill="#E0E0E0"/>
<path d="M101.119 59.8038C105.996 59.8038 109.949 55.8505 109.949 50.9738C109.949 46.0971 105.996 42.1438 101.119 42.1438C96.2424 42.1438 92.2891 46.0971 92.2891 50.9738C92.2891 55.8505 96.2424 59.8038 101.119 59.8038Z" fill="#EBEBEB"/>
<path d="M98.8976 59.5199C98.9049 59.4736 99.6568 59.7308 101.054 59.7423C101.751 59.7589 102.607 59.6486 103.554 59.3736C104.499 59.094 105.536 58.6083 106.509 57.8351C107.474 57.0629 108.396 56.0143 109.002 54.6856C109.596 53.3641 109.957 51.7927 109.777 50.161C109.712 49.3461 109.506 48.5235 109.182 47.7326C109.036 47.3291 108.819 46.9537 108.618 46.5668C108.378 46.2023 108.148 45.8254 107.856 45.4885C106.747 44.0947 105.127 43.0507 103.307 42.5592C101.476 42.101 99.5532 42.2239 97.9058 42.9013C97.4861 43.0528 97.1019 43.2705 96.715 43.472C96.3505 43.7115 95.9783 43.9343 95.6539 44.2155C94.9859 44.7486 94.4058 45.3672 93.9513 46.0472C92.9995 47.3848 92.5497 48.9332 92.4257 50.3776C92.3081 51.8333 92.6028 53.1985 93.0698 54.3424C93.5431 55.4916 94.2116 56.4204 94.901 57.1249C95.595 57.8262 96.2886 58.3396 96.9056 58.6645C98.1322 59.3346 98.9138 59.4757 98.8976 59.5199C98.8966 59.5246 98.8492 59.5142 98.7576 59.4903C98.6514 59.4606 98.5175 59.4231 98.352 59.3768C98.1723 59.3299 97.9531 59.2617 97.7053 59.1508C97.4543 59.0482 97.1607 58.9363 96.8556 58.7566C96.224 58.4422 95.5102 57.9345 94.7937 57.2311C94.082 56.5246 93.3885 55.5858 92.8933 54.4164C92.4044 53.2522 92.0915 51.8557 92.2019 50.3614C92.3185 48.8796 92.773 47.2864 93.7456 45.905C94.2106 45.2037 94.8052 44.5643 95.4914 44.0135C95.8247 43.7234 96.2068 43.4923 96.5822 43.2449C96.9805 43.0362 97.3762 42.8112 97.8079 42.654C99.5042 41.9527 101.49 41.823 103.376 42.2958C105.253 42.8013 106.923 43.8817 108.063 45.3198C108.363 45.6671 108.6 46.056 108.845 46.4325C109.053 46.8313 109.274 47.2187 109.424 47.6347C109.755 48.4501 109.963 49.2977 110.027 50.1365C110.204 51.8167 109.826 53.4287 109.206 54.7798C108.575 56.1387 107.622 57.2061 106.628 57.9845C105.626 58.765 104.563 59.2471 103.598 59.5179C102.63 59.7834 101.759 59.8792 101.054 59.8464C100.701 59.8547 100.39 59.8094 100.12 59.7766C99.8494 59.7532 99.625 59.7058 99.4448 59.6595C99.2772 59.6194 99.1429 59.5871 99.0351 59.5611C98.9429 59.5387 98.8966 59.5241 98.8976 59.5199Z" fill="#E0E0E0"/>
<path d="M99.8499 55.7993C97.1846 55.1063 95.5862 52.3843 96.2787 49.7195C96.9717 47.0542 99.6937 45.4558 102.359 46.1482C105.024 46.8407 106.623 49.5633 105.93 52.2281C105.237 54.8928 102.515 56.4918 99.8499 55.7993Z" fill="#E0E0E0"/>
<path d="M99.8491 55.7994C99.8554 55.7656 100.282 55.903 101.067 55.902C101.838 55.8994 103.023 55.6885 104.121 54.8148C104.66 54.3806 105.173 53.7922 105.51 53.0482C105.841 52.3083 106.041 51.43 105.939 50.5193C105.901 50.0643 105.786 49.605 105.605 49.164C105.43 48.7199 105.181 48.2935 104.863 47.9124C104.244 47.135 103.34 46.5534 102.324 46.279C101.303 46.0234 100.231 46.0916 99.3107 46.4691C98.8473 46.6466 98.422 46.8981 98.0533 47.2011C97.68 47.4984 97.3556 47.8431 97.1016 48.2221C96.5689 48.9683 96.3153 49.8326 96.244 50.6396C96.1763 51.4534 96.3383 52.2172 96.5975 52.8587C97.1318 54.1567 98.0638 54.9174 98.7359 55.2949C99.4217 55.6791 99.8606 55.7666 99.8491 55.7994C99.8491 55.7994 99.4013 55.751 98.6849 55.3886C97.9836 55.0319 96.9995 54.2728 96.4205 52.9337C96.1399 52.2719 95.9587 51.4768 96.0196 50.6245C96.0842 49.7795 96.3414 48.8704 96.8954 48.081C97.1604 47.6807 97.4993 47.3151 97.8904 47.0001C98.2772 46.6794 98.7245 46.4123 99.2123 46.2228C100.181 45.8219 101.315 45.7469 102.393 46.0171C103.465 46.3056 104.419 46.9236 105.069 47.7452C105.403 48.1482 105.663 48.5991 105.845 49.0677C106.033 49.5337 106.151 50.0174 106.187 50.4964C106.287 51.4555 106.069 52.375 105.714 53.144C105.352 53.9177 104.807 54.5243 104.239 54.9658C103.082 55.8536 101.853 56.0374 101.066 56.0072C100.264 55.9749 99.8491 55.7994 99.8491 55.7994Z" fill="#E0E0E0"/>
<path d="M110.965 57.8394L114.572 51.5622C115.629 49.7217 117.979 49.087 119.82 50.1444L120.157 50.3386C121.998 51.3961 122.632 53.7459 121.575 55.5864L117.968 61.8636C116.911 63.7042 114.561 64.3389 112.72 63.2814L112.383 63.0872C110.542 62.0292 109.907 59.6799 110.965 57.8394Z" fill="#EBEBEB"/>
<path d="M110.96 57.839C110.999 57.8525 110.649 58.3206 110.528 59.3052C110.477 59.793 110.52 60.4069 110.76 61.0603C110.888 61.3826 111.063 61.7122 111.299 62.0262C111.543 62.3344 111.845 62.6234 112.208 62.8634C112.577 63.0935 112.981 63.3419 113.427 63.4871C113.875 63.6371 114.371 63.7064 114.879 63.6704C115.893 63.6038 116.952 63.0737 117.627 62.148C118.823 60.1507 120.091 57.866 121.452 55.5194C122.11 54.3765 122.095 52.9301 121.47 51.856C121.174 51.3108 120.734 50.8641 120.232 50.5439C119.716 50.2154 119.197 49.9337 118.631 49.8332C117.509 49.6046 116.365 49.9217 115.575 50.5611C114.759 51.1843 114.397 52.1356 113.918 52.8843C113.025 54.402 112.297 55.6391 111.777 56.5238C111.529 56.933 111.332 57.2595 111.182 57.5062C111.045 57.7291 110.968 57.8436 110.96 57.839C110.952 57.8343 111.013 57.7104 111.136 57.4781C111.274 57.2251 111.457 56.8898 111.685 56.4701C112.187 55.5751 112.89 54.3239 113.751 52.788C113.972 52.3996 114.201 51.9934 114.441 51.5706C114.684 51.1395 115.014 50.7214 115.435 50.3846C116.267 49.6989 117.48 49.3505 118.68 49.5874C119.284 49.6905 119.85 49.9946 120.371 50.3247C120.909 50.6647 121.382 51.1427 121.702 51.7253C122.374 52.8739 122.395 54.4281 121.687 55.6537C120.32 58.0113 119.067 60.2585 117.829 62.2953C117.102 63.2799 115.969 63.8344 114.894 63.8948C114.355 63.9276 113.831 63.8485 113.359 63.685C112.879 63.5194 112.482 63.2674 112.101 63.0222C111.723 62.765 111.411 62.4567 111.162 62.1303C110.92 61.7976 110.744 61.4503 110.618 61.1124C110.382 60.4277 110.355 59.792 110.423 59.2927C110.491 58.7897 110.65 58.4257 110.754 58.1847C110.881 57.9525 110.952 57.8348 110.96 57.839Z" fill="#E0E0E0"/>
<path d="M100.18 71.9447C100.18 71.9447 110.744 101.945 114.928 108.328C119.112 114.711 138.198 131.158 141.125 130.29C144.053 129.422 144.567 128.472 142.452 125.058C140.337 121.643 127.364 109.599 125.438 106.618C123.513 103.637 109.918 68.2958 109.918 68.2958L100.18 71.9447Z" fill="#E0E0E0"/>
<path d="M106.191 63.7656L99.4113 66.3038C97.4234 67.0478 96.4149 69.2633 97.1589 71.2512L97.2953 71.6157C98.0394 73.6036 100.255 74.6121 102.243 73.8681L109.023 71.3298C111.011 70.5853 112.019 68.3703 111.275 66.3824L111.139 66.018C110.395 64.0301 108.179 63.0215 106.191 63.7656Z" fill="#EBEBEB"/>
<path d="M106.188 63.7655C106.184 63.7572 106.312 63.7057 106.562 63.6187C106.818 63.5547 107.202 63.4573 107.709 63.4724C108.213 63.4859 108.837 63.6161 109.473 63.9597C109.786 64.1399 110.1 64.3695 110.389 64.6621C110.671 64.961 110.924 65.3202 111.117 65.7342C111.296 66.1502 111.481 66.5829 111.566 67.0832C111.651 67.5758 111.644 68.1058 111.523 68.6322C111.289 69.6829 110.558 70.7107 109.468 71.2678C107.257 72.1582 104.836 73.0287 102.288 73.9951C100.963 74.4939 99.4329 74.221 98.4093 73.3703C97.886 72.9605 97.4913 72.4164 97.2435 71.8301C97.0024 71.2621 96.7947 70.6539 96.791 70.0416C96.752 68.8191 97.293 67.6789 98.1047 66.9697C98.5056 66.6084 98.9716 66.3517 99.4366 66.1814C99.8927 66.0138 100.331 65.8529 100.75 65.6993C102.405 65.099 103.754 64.6095 104.719 64.2596C105.17 64.1019 105.53 63.9759 105.803 63.8811C106.052 63.7968 106.184 63.7572 106.188 63.7655C106.191 63.7744 106.065 63.8311 105.823 63.9316C105.555 64.0389 105.2 64.1805 104.756 64.358C103.799 64.7277 102.46 65.2442 100.817 65.8789C100.001 66.2298 99.0034 66.4329 98.2557 67.1368C97.4966 67.8122 96.9972 68.8889 97.041 70.0333C97.0483 70.6081 97.2414 71.1663 97.482 71.7286C97.7163 72.2758 98.0859 72.7819 98.5754 73.163C99.5334 73.9545 100.958 74.2054 102.193 73.7415C104.73 72.7798 107.19 71.9009 109.356 71.0455C110.379 70.5295 111.074 69.571 111.305 68.5817C111.423 68.0865 111.435 67.5857 111.36 67.1186C111.289 66.6557 111.11 66.2158 110.943 65.8144C110.765 65.4176 110.529 65.0719 110.265 64.7819C109.994 64.4976 109.697 64.2721 109.4 64.0925C108.794 63.7499 108.196 63.6078 107.706 63.5786C106.713 63.537 106.195 63.8067 106.188 63.7655Z" fill="#E0E0E0"/>
<path d="M372.648 236.44C372.648 236.515 293.279 236.576 195.395 236.576C97.4767 236.576 18.125 236.515 18.125 236.44C18.125 236.366 97.4772 236.305 195.395 236.305C293.279 236.305 372.648 236.365 372.648 236.44Z" fill="#263238"/>
<path d="M45.7891 176.874C45.9333 176.438 62.1562 123.404 62.1562 123.404L61.7501 116.818L65.993 109.832L71.2632 111.573L70.5421 119.405L66.7964 125.099L50.4548 178.382L45.7891 176.874Z" fill="#E0E0E0"/>
<path d="M45.7891 176.874C45.7891 176.874 45.8984 176.903 46.102 176.966C46.3123 177.031 46.6112 177.124 47.0033 177.245C47.7973 177.495 48.9594 177.861 50.4693 178.336L50.4089 178.367C53.0482 169.715 59.153 149.702 66.6699 125.06L66.6756 125.041L66.686 125.025C67.8721 123.221 69.142 121.289 70.4301 119.33L70.4088 119.392C70.6384 116.893 70.8821 114.243 71.1289 111.56L71.2215 111.701C71.0841 111.656 70.9352 111.606 70.7857 111.557C69.1602 111.02 67.5477 110.488 65.9514 109.96L66.1091 109.902C64.6669 112.276 63.2491 114.609 61.8646 116.887L61.8839 116.81C62.0214 119.055 62.1562 121.253 62.2869 123.395L62.2885 123.419L62.2817 123.442C57.54 138.849 53.4335 152.193 50.5094 161.694C49.0391 166.445 47.8665 170.233 47.0584 172.842C46.6534 174.141 46.3399 175.144 46.1254 175.832C46.0187 176.168 45.9375 176.425 45.8797 176.607C45.8234 176.783 45.7891 176.874 45.7891 176.874C45.7891 176.874 45.8094 176.789 45.8588 176.618C45.9119 176.438 45.9864 176.184 46.0843 175.853C46.2899 175.168 46.5893 174.17 46.9767 172.879C47.766 170.271 48.912 166.485 50.3485 161.737C53.2502 152.207 57.3255 138.821 62.0307 123.366L62.0255 123.413C61.8928 121.27 61.7563 119.072 61.6168 116.827L61.6142 116.785L61.6361 116.749C63.0195 114.47 64.4362 112.136 65.8774 109.762L65.9331 109.67L66.0352 109.704C67.6315 110.23 69.2446 110.763 70.8696 111.3C71.0185 111.349 71.1679 111.398 71.3054 111.444L71.4079 111.477L71.3981 111.585C71.1507 114.268 70.9065 116.918 70.6759 119.416L70.6728 119.45L70.654 119.478C69.3648 121.436 68.0939 123.367 66.9068 125.171L66.9229 125.137C59.3311 149.757 53.1653 169.751 50.4995 178.396L50.485 178.442L50.4391 178.427C48.9256 177.926 47.7603 177.54 46.9642 177.276C46.58 177.147 46.2863 177.048 46.0801 176.978C45.8838 176.911 45.7891 176.874 45.7891 176.874Z" fill="#263238"/>
<path d="M41.903 179.452L34.6168 189.305L24.4274 226.266C24.4274 226.266 22.9622 233.804 31.2903 235.946C40.6415 238.351 42.7986 231.189 42.7986 231.189L52.7058 195.091L52.5574 182.564L55.003 179.81C55.495 179.256 55.2592 178.379 54.5558 178.146L42.8564 174.282C42.1493 174.049 41.4355 174.619 41.5073 175.361L41.903 179.452Z" fill="#008E7C"/>
<path d="M52.6451 182.999C52.6227 183.071 50.1704 182.356 47.1687 181.403C44.1661 180.451 41.7507 179.621 41.7736 179.549C41.796 179.478 44.2478 180.192 47.251 181.145C50.2521 182.098 52.668 182.928 52.6451 182.999Z" fill="#263238"/>
<path d="M52.71 195.091C52.7053 195.109 52.4461 195.062 51.9801 194.962C51.5135 194.863 50.8429 194.704 50.0166 194.497C48.364 194.082 46.0939 193.453 43.6161 192.662C41.1382 191.87 38.9233 191.067 37.3363 190.447C36.5423 190.138 35.904 189.878 35.4666 189.689C35.0287 189.5 34.7902 189.388 34.797 189.371C34.8038 189.354 35.0558 189.433 35.5051 189.59C36.0018 189.767 36.6397 189.995 37.404 190.268C39.0066 190.841 41.2262 191.613 43.6994 192.404C46.172 193.193 48.4291 193.85 50.0666 194.311C50.8476 194.532 51.499 194.716 52.0066 194.86C52.4638 194.991 52.7147 195.073 52.71 195.091Z" fill="#263238"/>
<g opacity="0.3">
<path d="M28.0911 227.314L27.8412 227.24C26.9305 226.97 26.4109 226.013 26.6806 225.103L35.8282 194.207C36.0979 193.296 37.0549 192.776 37.9655 193.046L38.2155 193.12C39.1261 193.39 39.6457 194.347 39.376 195.257L30.2284 226.153C29.9587 227.064 29.0018 227.583 28.0911 227.314Z" fill="black"/>
</g>
<g opacity="0.3">
<path d="M33.2864 229.024L33.0365 228.95C32.1259 228.681 31.6062 227.724 31.8759 226.813L41.0235 195.917C41.2932 195.006 42.2502 194.487 43.1609 194.757L43.4108 194.83C44.3214 195.1 44.8411 196.057 44.5713 196.968L35.4238 227.864C35.1546 228.774 34.1976 229.294 33.2864 229.024Z" fill="black"/>
</g>
<g opacity="0.3">
<path d="M38.7942 230.656L38.5443 230.583C37.6337 230.313 37.114 229.356 37.3837 228.445L46.5313 197.549C46.801 196.639 47.758 196.119 48.6687 196.388L48.9186 196.462C49.8292 196.732 50.3489 197.689 50.0792 198.6L40.9316 229.495C40.6624 230.407 39.7054 230.926 38.7942 230.656Z" fill="black"/>
</g>
<path d="M66.761 125.083C66.7365 125.154 65.6983 124.859 64.4419 124.424C63.1855 123.99 62.1869 123.58 62.2114 123.51C62.2358 123.439 63.2741 123.734 64.5304 124.168C65.7868 124.603 66.7854 125.012 66.761 125.083Z" fill="#263238"/>
<path d="M71.2927 111.572C71.3084 111.577 71.2428 111.835 71.1095 112.303C70.959 112.808 70.7606 113.477 70.518 114.294C69.9812 116.022 69.2523 118.368 68.4223 121.041L68.3817 121.171L68.2521 121.125C67.4778 120.856 66.676 120.576 65.8539 120.29C65.0052 119.992 64.1773 119.701 63.3833 119.423L63.2656 119.382L63.2989 119.262C64.0523 116.586 64.7126 114.24 65.1989 112.512C65.4378 111.702 65.6336 111.039 65.7815 110.537C65.9226 110.076 66.0075 109.827 66.0231 109.832C66.0387 109.836 65.9845 110.093 65.871 110.562C65.7424 111.069 65.5722 111.739 65.3644 112.557C64.9016 114.291 64.2721 116.647 63.5546 119.333L63.4708 119.172C64.2658 119.449 65.0942 119.738 65.9434 120.034C66.765 120.322 67.5663 120.603 68.34 120.874L68.1698 120.959C69.0351 118.298 69.7953 115.961 70.3545 114.241C70.6279 113.434 70.8517 112.773 71.0215 112.274C71.1818 111.815 71.2771 111.568 71.2927 111.572Z" fill="#263238"/>
<path d="M224.841 58.6073C224.426 58.6073 224.009 58.5396 223.607 58.4001L217.232 56.1909C215.96 55.7499 215.011 54.6549 214.756 53.3324L213.482 46.7059C213.227 45.3834 213.702 44.0141 214.721 43.132L219.821 38.7158C220.839 37.8348 222.263 37.5609 223.534 38.0014L229.91 40.2106C231.183 40.6516 232.132 41.7476 232.386 43.0706L233.66 49.6951C233.914 51.0191 233.439 52.3879 232.421 53.2689L227.321 57.6847C226.625 58.2881 225.738 58.6073 224.841 58.6073ZM218.804 52.327L224.761 54.3909L229.527 50.2641L228.336 44.0734L222.379 42.009L217.613 46.1358L218.804 52.327Z" fill="#E0E0E0"/>
<path d="M218.807 52.3271C218.8 52.3339 218.764 52.1917 218.702 51.9153C218.636 51.6096 218.549 51.203 218.44 50.6943C218.216 49.5915 217.902 48.0477 217.518 46.1556C217.51 46.1197 217.525 46.0827 217.55 46.0604C218.905 44.8774 220.52 43.4664 222.298 41.9132C222.334 41.882 222.382 41.8747 222.424 41.8893C224.268 42.5255 226.282 43.2212 228.382 43.9459C228.304 43.8548 228.492 44.0709 228.472 44.0495L228.473 44.0511L228.473 44.0542L228.474 44.0605L228.477 44.0735L228.482 44.099L228.492 44.15L228.511 44.2521L228.55 44.4551L228.628 44.8597C228.68 45.1289 228.731 45.3965 228.782 45.6626C228.884 46.1942 228.985 46.7195 229.084 47.2376C229.281 48.2727 229.472 49.2765 229.656 50.2413C229.665 50.2876 229.647 50.3335 229.614 50.3621C227.823 51.9002 226.204 53.2893 224.831 54.4681C224.803 54.4926 224.764 54.4983 224.732 54.4873C222.914 53.836 221.431 53.3044 220.371 52.9248C219.883 52.7442 219.493 52.5999 219.2 52.4911C218.935 52.3896 218.8 52.3339 218.807 52.3271C218.815 52.3209 218.965 52.3635 219.242 52.451C219.543 52.5484 219.943 52.678 220.445 52.84C221.502 53.194 222.982 53.6892 224.797 54.2963L224.698 54.315C226.061 53.1248 227.668 51.721 229.446 50.1679L229.404 50.2887C229.217 49.3244 229.022 48.3211 228.821 47.287C228.721 46.7695 228.62 46.2447 228.517 45.7131C228.466 45.447 228.413 45.1799 228.362 44.9107L228.284 44.5062L228.245 44.3031L228.225 44.2016L228.215 44.1505L228.21 44.125L228.208 44.1125L228.207 44.1063L228.206 44.1032L228.206 44.1016C228.186 44.0787 228.373 44.2948 228.293 44.2031C226.195 43.4732 224.182 42.7729 222.339 42.1319L222.465 42.108C220.674 43.6455 219.046 45.0425 217.682 46.214L217.714 46.1187C218.056 48.0014 218.334 49.5374 218.533 50.6344C218.622 51.1535 218.693 51.568 218.746 51.8798C218.794 52.1662 218.815 52.3209 218.807 52.3271Z" fill="#263238"/>
<path d="M224.833 58.6074C224.832 58.5934 225.059 58.6022 225.478 58.5241C225.89 58.4434 226.511 58.2581 227.143 57.7572C228.379 56.6747 230.144 55.1289 232.319 53.2237C232.86 52.764 233.282 52.1173 233.484 51.3723C233.582 50.9995 233.625 50.6043 233.604 50.2044C233.58 49.8087 233.474 49.3989 233.398 48.9782C233.071 47.3001 232.723 45.5085 232.356 43.6232C232.264 43.1462 232.189 42.6813 231.978 42.2517C231.778 41.8206 231.489 41.4249 231.131 41.0964C230.774 40.7673 230.345 40.5096 229.879 40.3435C229.394 40.1758 228.905 40.0066 228.411 39.8358C227.423 39.4943 226.418 39.1465 225.397 38.7935C224.887 38.617 224.373 38.4389 223.856 38.2598C223.337 38.063 222.836 37.9276 222.293 37.9307C221.758 37.9338 221.227 38.0484 220.748 38.2723C220.26 38.4863 219.87 38.8377 219.46 39.1991C218.643 39.9056 217.839 40.6012 217.048 41.2854C216.259 41.969 215.483 42.6407 214.724 43.2983C214.002 43.9517 213.582 44.8842 213.537 45.8115C213.502 46.278 213.601 46.7263 213.691 47.1913C213.778 47.651 213.864 48.1045 213.949 48.5518C214.119 49.4458 214.284 50.3143 214.443 51.1536C214.606 51.9887 214.747 52.8135 214.911 53.5731C215.112 54.3182 215.536 54.9659 216.076 55.4236C216.345 55.6542 216.64 55.8406 216.947 55.9807C217.252 56.1171 217.579 56.2171 217.885 56.329C218.502 56.5466 219.084 56.7518 219.629 56.9444C220.712 57.3292 221.648 57.6614 222.419 57.9358C223.188 58.1992 223.769 58.4533 224.188 58.5247C224.606 58.6022 224.833 58.5939 224.833 58.6074C224.833 58.6074 224.606 58.6402 224.179 58.5783C223.747 58.5226 223.157 58.2825 222.385 58.0352C221.609 57.7733 220.668 57.4552 219.579 57.0876C219.032 56.9012 218.448 56.7028 217.829 56.492C217.52 56.3821 217.2 56.2894 216.872 56.1473C216.549 56.0031 216.237 55.8099 215.952 55.5699C215.381 55.0935 214.927 54.4145 214.71 53.6278C214.533 52.839 214.392 52.0366 214.223 51.1957C214.059 50.3569 213.89 49.4895 213.716 48.5966C213.629 48.1498 213.541 47.6963 213.452 47.2371C213.363 46.7857 213.252 46.2968 213.288 45.7985C213.333 44.8077 213.779 43.809 214.55 43.1067C215.31 42.4459 216.086 41.7712 216.876 41.0844C217.665 40.3992 218.469 39.7025 219.285 38.995C219.492 38.8185 219.686 38.6404 219.911 38.4634C220.136 38.2936 220.379 38.1468 220.636 38.0265C221.15 37.786 221.72 37.6626 222.294 37.6595C222.865 37.6516 223.444 37.812 223.946 38.0041C224.463 38.1832 224.977 38.3618 225.487 38.5389C226.507 38.8929 227.512 39.2418 228.499 39.5849C228.993 39.7567 229.483 39.9275 229.967 40.0962C230.467 40.2753 230.926 40.5528 231.307 40.9063C231.69 41.2588 231.997 41.6832 232.21 42.145C232.435 42.6047 232.515 43.1124 232.602 43.5763C232.961 45.4627 233.302 47.2564 233.621 48.9361C233.693 49.3552 233.798 49.7639 233.823 50.1929C233.843 50.6168 233.794 51.0349 233.688 51.428C233.469 52.2137 233.016 52.8936 232.446 53.3695C230.245 55.2486 228.46 56.7731 227.209 57.841C226.549 58.3429 225.91 58.5142 225.488 58.5788C225.059 58.6397 224.833 58.6074 224.833 58.6074Z" fill="#263238"/>
<path d="M180.467 47.7681C179.643 47.7681 178.849 47.3948 178.326 46.7419L176.508 44.4744C175.897 43.7127 175.738 42.6744 176.092 41.7648L177.147 39.0563C177.502 38.1467 178.321 37.4902 179.285 37.3423L182.158 36.9018C183.124 36.755 184.102 37.1351 184.712 37.8963L186.53 40.1643C187.14 40.9255 187.3 41.9637 186.946 42.8733L185.891 45.5824C185.537 46.492 184.718 47.1485 183.752 47.2969L180.879 47.7374C180.742 47.7577 180.604 47.7681 180.467 47.7681ZM182.573 38.9527C182.541 38.9527 182.508 38.9553 182.474 38.9605L179.602 39.401C179.37 39.4364 179.173 39.5942 179.088 39.8129L178.034 42.5209C177.948 42.7395 177.987 42.9889 178.133 43.1717L179.951 45.4392C180.098 45.6225 180.333 45.7136 180.565 45.6782L183.438 45.2377C183.669 45.2023 183.866 45.0445 183.951 44.8264L185.006 42.1179C185.091 41.8997 185.053 41.6503 184.907 41.4675L183.089 39.2C182.962 39.0423 182.771 38.9527 182.573 38.9527Z" fill="#E0E0E0"/>
<path d="M182.579 38.9527C182.578 38.9465 182.657 38.9251 182.802 38.9631C182.874 38.984 182.962 39.0215 183.048 39.0933C183.135 39.1688 183.204 39.2651 183.295 39.3677C183.675 39.8238 184.173 40.4221 184.774 41.1442C184.853 41.2405 184.933 41.3389 185.014 41.4389C185.101 41.5581 185.153 41.706 185.158 41.8601C185.169 42.0158 185.104 42.1751 185.057 42.2944C185.008 42.424 184.958 42.5557 184.908 42.6896C184.702 43.2284 184.483 43.8007 184.254 44.401C184.196 44.5515 184.137 44.704 184.079 44.8581C184.014 45.0388 183.871 45.2033 183.691 45.2918C183.494 45.3856 183.321 45.3783 183.155 45.4137C182.985 45.4402 182.813 45.4673 182.64 45.4944C181.937 45.5996 181.249 45.7198 180.47 45.8203C180.245 45.8208 180.024 45.7224 179.877 45.5553C179.761 45.41 179.645 45.2658 179.53 45.1226C179.303 44.8394 179.08 44.5603 178.861 44.2859C178.642 44.0115 178.428 43.7418 178.217 43.4773L178.06 43.28C178.005 43.2149 177.945 43.1207 177.914 43.0306C177.846 42.8463 177.854 42.6354 177.926 42.4625C178.164 41.8648 178.39 41.2957 178.603 40.7594C178.709 40.4939 178.812 40.2367 178.912 39.9883C178.965 39.8696 178.996 39.7395 179.088 39.6124C179.173 39.4927 179.293 39.4036 179.423 39.3526C180.424 39.1693 181.182 39.0985 181.731 39.0209C182.272 38.9543 182.577 38.9262 182.579 38.9527C182.578 38.9637 182.506 38.972 182.365 39.0053C182.192 39.0392 181.989 39.0787 181.748 39.1256C181.222 39.2297 180.406 39.3469 179.495 39.5301C179.399 39.5708 179.312 39.639 179.251 39.7285C179.192 39.8108 179.158 39.9389 179.107 40.0644C179.012 40.3143 178.914 40.5736 178.813 40.8412C178.607 41.3801 178.389 41.9523 178.159 42.5531C178.109 42.6791 178.107 42.8166 178.153 42.9426C178.191 43.0603 178.315 43.1769 178.42 43.3149C178.632 43.5778 178.849 43.8465 179.069 44.1193C179.289 44.3932 179.513 44.6712 179.74 44.9539C179.853 45.0935 179.966 45.2335 180.08 45.3746C180.176 45.4845 180.323 45.5491 180.471 45.5491C181.2 45.4402 181.912 45.334 182.6 45.2314C182.773 45.2054 182.946 45.1794 183.116 45.1539C183.287 45.1221 183.467 45.1185 183.576 45.0596C183.699 44.9992 183.793 44.8951 183.842 44.7655C183.903 44.6119 183.963 44.4598 184.022 44.3099C184.259 43.7127 184.486 43.1431 184.699 42.6073C184.752 42.4745 184.804 42.3433 184.856 42.2147C184.912 42.0783 184.955 41.9799 184.951 41.8648C184.949 41.7529 184.914 41.643 184.852 41.554C184.775 41.4551 184.699 41.3577 184.626 41.2629C184.052 40.5184 183.576 39.9019 183.214 39.4323C182.932 38.9366 182.565 38.9772 182.579 38.9527Z" fill="#263238"/>
<path d="M180.462 47.7681C180.462 47.7587 180.583 47.7405 180.809 47.7145C181.064 47.6702 181.393 47.6124 181.803 47.5411C182.246 47.4666 182.773 47.3781 183.379 47.2761C183.689 47.2235 184.012 47.186 184.326 47.0464C184.643 46.9173 184.95 46.7132 185.214 46.4425C185.479 46.1691 185.692 45.8333 185.83 45.4355C185.983 45.0351 186.142 44.6196 186.307 44.1901C186.59 43.319 187.173 42.4297 186.962 41.4337C186.876 40.9411 186.649 40.484 186.293 40.082C185.953 39.6592 185.606 39.2276 185.253 38.7887C185.076 38.569 184.898 38.3471 184.718 38.1238C184.54 37.8942 184.362 37.6994 184.136 37.5313C183.694 37.1986 183.135 37.0064 182.567 37.0075C182.286 37.0023 181.998 37.0679 181.702 37.108C181.41 37.1527 181.12 37.197 180.832 37.2407C180.259 37.3298 179.695 37.4172 179.141 37.5037C178.617 37.6193 178.138 37.8942 177.787 38.2732C177.61 38.4622 177.464 38.6746 177.351 38.9011C177.243 39.1235 177.154 39.3817 177.057 39.6191C176.867 40.1013 176.683 40.5714 176.502 41.0286C176.333 41.4909 176.111 41.9205 176.046 42.3532C175.897 43.2414 176.238 44.0688 176.757 44.6384C177.239 45.2512 177.676 45.8078 178.065 46.3014C178.261 46.5445 178.425 46.7846 178.612 46.9626C178.798 47.1443 178.993 47.286 179.181 47.3906C179.948 47.8025 180.473 47.7285 180.462 47.7681C180.462 47.7728 180.432 47.7764 180.372 47.7795C180.313 47.7832 180.224 47.7816 180.107 47.7717C179.877 47.7499 179.529 47.6889 179.13 47.4833C178.931 47.3818 178.724 47.2407 178.523 47.0558C178.317 46.871 178.147 46.632 177.946 46.3961C177.549 45.9098 177.101 45.3616 176.607 44.7581C176.067 44.1885 175.667 43.2768 175.823 42.3183C175.894 41.833 176.117 41.4009 176.28 40.9416C176.456 40.4829 176.638 40.0117 176.824 39.528C176.922 39.2849 177.001 39.0448 177.122 38.7882C177.244 38.5388 177.404 38.3045 177.597 38.0957C177.982 37.6776 178.506 37.3725 179.084 37.2433C179.656 37.1423 180.213 37.0653 180.792 36.9731C181.08 36.9289 181.37 36.8841 181.662 36.8393C181.95 36.8002 182.247 36.731 182.567 36.7352C183.196 36.7341 183.811 36.946 184.299 37.3141C184.542 37.4938 184.756 37.7307 184.928 37.9551C185.107 38.179 185.284 38.4013 185.46 38.6215C185.812 39.062 186.158 39.4952 186.496 39.919C186.859 40.3304 187.124 40.8578 187.209 41.3899C187.302 41.9236 187.234 42.4693 187.042 42.9415C186.862 43.3976 186.687 43.8412 186.517 44.2703C186.348 44.6982 186.184 45.1116 186.026 45.51C185.878 45.9202 185.638 46.291 185.352 46.5752C184.779 47.1631 184.013 47.375 183.403 47.4239C182.794 47.5083 182.265 47.5817 181.82 47.6431C181.385 47.6994 181.049 47.7493 180.818 47.7665C180.583 47.7775 180.462 47.7775 180.462 47.7681Z" fill="#263238"/>
<path d="M231.193 40.9709C231.247 41.0178 230.667 41.7998 229.853 42.687C229.037 43.5758 228.261 44.1803 228.214 44.1241C228.164 44.0668 228.847 43.3821 229.654 42.5027C230.461 41.6238 231.134 40.9194 231.193 40.9709Z" fill="#263238"/>
<path d="M221.427 37.977C221.496 37.953 221.855 38.822 222.124 39.9461C222.396 41.0703 222.472 42.0069 222.399 42.0168C222.323 42.0283 222.129 41.1197 221.86 40.0097C221.594 38.8991 221.354 38.0015 221.427 37.977Z" fill="#263238"/>
<path d="M217.548 46.0321C217.518 46.1035 216.64 45.7947 215.546 45.4584C214.454 45.1184 213.555 44.8768 213.571 44.8013C213.584 44.73 214.519 44.8549 215.627 45.1996C216.735 45.5406 217.577 45.9655 217.548 46.0321Z" fill="#263238"/>
<path d="M216.442 55.0641C216.385 55.0162 216.861 54.3508 217.507 53.5781C218.153 52.8055 218.722 52.2181 218.78 52.266C218.837 52.3139 218.361 52.9794 217.715 53.752C217.07 54.5247 216.499 55.1125 216.442 55.0641Z" fill="#263238"/>
<path d="M225.212 57.9165C225.138 57.9279 224.974 57.1761 224.845 56.2373C224.717 55.298 224.673 54.53 224.747 54.5212C224.822 54.5123 224.986 55.2642 225.114 56.2003C225.242 57.1365 225.286 57.905 225.212 57.9165Z" fill="#263238"/>
<path d="M232.608 51.2441C232.581 51.3138 231.893 51.1144 231.072 50.7989C230.251 50.4834 229.607 50.1704 229.634 50.1007C229.661 50.0309 230.348 50.2298 231.17 50.5458C231.991 50.8614 232.635 51.1738 232.608 51.2441Z" fill="#263238"/>
<path d="M336.016 91.1671C339.545 86.9216 343.069 82.6313 345.815 77.8417C348.561 73.0521 350.516 67.6975 350.645 62.1785C350.664 61.3418 350.303 55.5322 349.499 55.3005C348.925 55.1344 348.53 60.2624 348.059 60.631C343.564 64.1502 340.642 69.373 338.962 74.8291C337.281 80.2846 336.486 85.4778 336.016 91.1671Z" fill="#263238"/>
<path d="M290.121 123.461C291.527 119.824 298.444 101.614 298.416 101.603C298.416 101.603 286.488 95.3943 290.582 82.754C292.561 76.6482 297.658 64.4057 302.399 53.3806C307.495 41.5308 320.839 35.5863 333.06 39.7131L334.274 40.1229C347.112 45.3103 349.878 59.1111 344.338 71.8008L318.843 130.896L296.487 123.987L290.121 123.461Z" fill="#FFBF9D"/>
<path d="M298.424 101.603C298.424 101.603 306.201 104.748 316.45 102.292C316.45 102.292 309.358 110.304 297.18 104.929L298.424 101.603Z" fill="#FF9A6C"/>
<path d="M302.364 65.5358C302.009 66.4735 302.512 67.5471 303.485 67.935C304.456 68.3218 305.531 67.8777 305.885 66.94C306.239 66.0023 305.738 64.9281 304.767 64.5408C303.794 64.1523 302.718 64.598 302.364 65.5358Z" fill="#263238"/>
<path d="M303.244 59.5139C303.388 59.8237 305.09 59.2754 307.023 59.9335C308.963 60.5635 310.046 62.0381 310.336 61.872C310.474 61.8022 310.39 61.3018 309.924 60.6432C309.467 59.9898 308.576 59.2036 307.369 58.8016C306.161 58.4017 304.999 58.5027 304.263 58.76C303.514 59.0161 303.17 59.3717 303.244 59.5139Z" fill="#263238"/>
<path d="M319.332 72.3594C318.978 73.2971 319.48 74.3707 320.453 74.7581C321.424 75.145 322.499 74.7014 322.854 73.7631C323.208 72.8254 322.706 71.7513 321.735 71.3639C320.762 70.976 319.686 71.4217 319.332 72.3594Z" fill="#263238"/>
<path d="M321.947 66.6946C322.091 67.0044 323.795 66.4577 325.726 67.1153C327.666 67.7453 328.749 69.2198 329.04 69.0537C329.178 68.9834 329.096 68.4847 328.627 67.8255C328.171 67.1715 327.28 66.3853 326.073 65.9834C324.867 65.5835 323.703 65.6845 322.967 65.9417C322.219 66.1974 321.874 66.553 321.947 66.6946Z" fill="#263238"/>
<path d="M310.027 79.2151C310.074 79.1084 308.941 78.4945 307.077 77.5875C306.6 77.3699 306.165 77.1137 306.196 76.7487C306.2 76.353 306.587 75.8896 307.02 75.3955C307.889 74.3568 308.797 73.2686 309.751 72.1278C313.588 67.4579 316.543 63.5503 316.354 63.3973C316.165 63.2442 312.901 66.9055 309.064 71.5759C308.13 72.7318 307.239 73.833 306.387 74.8873C306.011 75.3856 305.474 75.9136 305.477 76.7393C305.485 77.1533 305.757 77.5438 306.045 77.7359C306.328 77.9395 306.605 78.0389 306.844 78.1358C308.769 78.9027 309.982 79.3224 310.027 79.2151Z" fill="#263238"/>
<path d="M315.309 82.4754C315 82.351 314.288 84.4492 311.987 85.3323C309.688 86.2216 307.53 85.2302 307.414 85.5182C307.341 85.64 307.775 86.094 308.711 86.4392C309.627 86.7839 311.081 86.9432 312.489 86.4028C313.893 85.8587 314.776 84.7991 315.139 83.9614C315.515 83.1111 315.457 82.5118 315.309 82.4754Z" fill="#263238"/>
<path d="M324.805 58.8811C324.818 59.4715 326.833 59.8745 329.011 60.9143C331.208 61.9103 332.814 63.1927 333.275 62.823C333.485 62.6429 333.333 62.04 332.765 61.2808C332.203 60.5248 331.196 59.6465 329.885 59.0347C328.573 58.4255 327.253 58.2209 326.313 58.2776C325.366 58.3323 324.806 58.6041 324.805 58.8811Z" fill="#263238"/>
<path d="M306.237 53.353C306.43 53.9076 307.916 53.9013 309.525 54.4209C311.153 54.8843 312.385 55.7153 312.852 55.3613C313.064 55.1847 312.999 54.6724 312.547 54.0565C312.103 53.4447 311.239 52.7761 310.127 52.4377C309.015 52.1008 307.926 52.1769 307.216 52.4387C306.498 52.6991 306.16 53.0885 306.237 53.353Z" fill="#263238"/>
<path d="M340.171 80.7746C340.417 80.7543 349.684 81.137 346.503 89.6499C343.322 98.1628 335.432 93.2133 335.508 92.9634C335.584 92.714 340.171 80.7746 340.171 80.7746Z" fill="#FFBF9D"/>
<path d="M339.299 90.7107C339.347 90.6972 339.409 90.87 339.616 91.0783C339.819 91.2813 340.21 91.5156 340.716 91.5151C341.739 91.5214 343.03 90.3764 343.645 88.8576C343.956 88.0912 344.069 87.2925 344.023 86.5792C343.996 85.8596 343.756 85.2739 343.332 85.024C342.92 84.7517 342.499 84.9027 342.305 85.1036C342.102 85.2989 342.093 85.4889 342.042 85.4868C342.01 85.4993 341.913 85.276 342.113 84.95C342.211 84.7938 342.386 84.6309 342.647 84.5418C342.913 84.4518 343.245 84.4799 343.548 84.6319C344.187 84.9224 344.553 85.7472 344.604 86.5303C344.69 87.33 344.581 88.2344 344.231 89.0951C343.536 90.7904 342.058 92.067 340.695 91.9629C340.037 91.8952 339.605 91.5281 339.422 91.2308C339.237 90.9221 339.263 90.7149 339.299 90.7107Z" fill="#FF9A6C"/>
<path d="M313.272 41.432C312.19 40.1475 318.017 37.2818 321.979 37.0459C327.967 36.6893 336.301 38.2528 340.492 41.3909C345.537 45.1689 349.16 49.7903 350.025 56.0341C350.89 62.278 349.654 68.6915 347.232 74.5105C346.493 76.286 345.589 78.0854 344.047 79.235C342.143 80.6559 339.416 80.9652 338.522 83.5909C338.196 84.5505 337.559 85.4018 336.647 85.8428C334.461 86.8993 333.157 84.6187 332.881 82.7277C332.292 78.6889 333.607 74.6417 334.903 70.7716C335.826 68.0209 336.776 65.2145 338.537 62.9085C339.494 61.6537 340.674 60.5733 341.561 59.2669C342.447 57.9611 343.029 56.3158 342.585 54.8007C342.513 54.5544 342.365 54.2217 342.163 53.839C340.569 50.8113 337.447 48.8901 334.026 48.7995C328.6 48.6563 319.472 48.0497 317.963 45.6109C315.792 42.1016 315.643 40.2991 315.643 40.2991L313.272 41.432Z" fill="#263238"/>
<path d="M341.564 36.198C342.11 36.475 354.904 44.3792 354.819 55.9052C354.735 67.4312 352.625 70.2537 352.625 70.2537C352.625 70.2537 353.262 71.0196 353.645 71.9974C353.989 72.8737 352.026 75.8394 350.342 74.8496C338.856 64.1926 323.027 58.0722 304.97 52.4813L291.348 47.6058C287.365 46.7331 286.369 45.2539 288.316 44.8483C289.808 44.5375 302.179 43.9122 302.179 43.9122L304.851 43.0895L313.195 37.1997C313.195 37.1997 312.872 35.8699 314.566 35.4373C316.26 35.0046 330.791 30.7304 341.564 36.198Z" fill="#008E7C"/>
<path d="M304.859 43.0895C304.859 43.0895 305.041 43.1619 305.391 43.277C305.811 43.4108 306.318 43.5732 306.93 43.7685C308.274 44.1678 310.188 44.8442 312.539 45.7111C317.217 47.498 323.564 50.331 330.112 54.2896C336.687 58.205 342.273 62.324 346.261 65.359C348.26 66.8731 349.852 68.132 350.958 68.9948C351.465 69.3895 351.885 69.717 352.233 69.9872C352.526 70.2116 352.687 70.3204 352.687 70.3204C352.687 70.3204 352.546 70.1861 352.263 69.9492C351.923 69.6691 351.512 69.3301 351.017 68.9214C349.929 68.0362 348.353 66.7564 346.366 65.2236C342.403 62.1517 336.824 58.0046 330.236 54.0819C323.675 50.1154 317.3 47.2997 312.599 45.5507C307.881 43.8273 304.859 43.0895 304.859 43.0895Z" fill="#263238"/>
<g opacity="0.3">
<path d="M352.152 46.6461C352.152 46.6461 338.034 39.0881 330.234 40.0044C330.537 39.9633 330.841 39.9216 331.145 39.8805C328.718 40.0825 326.29 40.2845 323.863 40.4871C322.634 40.5897 321.221 40.6261 320.375 39.728C320.375 39.728 324.796 37.8546 331.778 37.8905C338.759 37.9259 349.003 40.4309 352.152 46.6461Z" fill="black"/>
</g>
<path d="M352.348 46.7994C352.348 46.7994 352.03 46.2829 351.31 45.4613C350.593 44.6418 349.48 43.501 347.885 42.366C346.304 41.2205 344.242 40.0865 341.795 39.2461C339.363 38.4068 336.507 37.8054 333.516 38.0965C332.025 38.2225 330.597 38.5161 329.225 38.803C327.857 39.1144 326.529 39.345 325.278 39.6929C324.036 40.0412 322.874 40.426 321.744 40.5343C320.611 40.6931 319.578 40.4207 318.656 40.1234C314.964 38.9108 312.969 37.3754 313.216 37.1994C313.218 37.19 313.205 37.3722 313.409 37.5904C313.609 37.7987 313.939 38.0751 314.407 38.3584C315.337 38.9316 316.751 39.6543 318.603 40.2869C319.516 40.5962 320.606 40.8899 321.765 40.7352C322.923 40.6321 324.103 40.2484 325.338 39.9089C326.57 39.5726 327.909 39.344 329.274 39.0363C330.644 38.7531 332.064 38.4625 333.537 38.3386C336.487 38.0517 339.303 38.6369 341.723 39.458C344.152 40.2796 346.205 41.3876 347.786 42.5065C349.381 43.614 350.504 44.7277 351.239 45.5243C351.607 45.9242 351.88 46.246 352.058 46.4704C352.242 46.6911 352.348 46.7994 352.348 46.7994Z" fill="#263238"/>
<g opacity="0.3">
<path d="M354.631 60.6674C351.957 59.7276 350.163 58.3337 347.702 56.8374C345.08 55.2431 342.44 53.7868 339.897 52.0691C337.967 50.7653 335.628 49.3882 334.769 47.3748C334.186 48.4171 334.173 49.5386 334.719 50.6003C335.266 51.6619 337.587 53.5004 338.574 54.1721C344.203 57.9979 348.114 60.6122 354.405 63.2744C354.577 62.5902 354.631 60.6674 354.631 60.6674Z" fill="black"/>
</g>
<path d="M354.757 54.6269C356.202 55.9468 357.073 56.8012 356.625 58.2643C356.252 59.4821 355.502 60.8707 354.244 60.6734C353.86 60.6135 353.515 60.4136 353.18 60.2173C347.44 56.8554 341.7 53.4934 335.959 50.1315C335.377 49.7904 334.751 49.3989 334.53 48.7616C334.188 47.7812 335.044 46.7102 336.045 46.4379C337.046 46.1656 338.106 46.4629 339.093 46.782C344.707 48.5971 349.826 51.3889 354.757 54.6269Z" fill="#008E7C"/>
<path d="M334.762 49.131C334.798 49.1206 334.509 48.816 334.542 48.1532C334.569 47.53 335.006 46.5074 336.104 46.0794C337.209 45.705 338.673 45.956 340.108 46.535C341.566 47.1192 343.164 47.7841 344.813 48.5375C348.12 50.0333 350.976 51.6713 352.92 53.0371C353.901 53.7082 354.657 54.3023 355.18 54.7141C355.393 54.8859 355.588 55.0447 355.775 55.1952C355.913 55.303 355.989 55.3571 355.994 55.3509C356 55.3447 355.935 55.2785 355.807 55.1583C355.629 54.9958 355.442 54.8255 355.239 54.6412C354.734 54.206 353.991 53.5884 353.019 52.896C351.091 51.4881 348.231 49.8167 344.913 48.3162C343.258 47.5596 341.656 46.901 340.187 46.3262C338.722 45.7519 337.217 45.4983 336.041 45.919C334.868 46.4043 334.448 47.4946 334.446 48.1496C334.44 48.4922 334.529 48.7494 334.606 48.9087C334.698 49.0628 334.757 49.1347 334.762 49.131Z" fill="#263238"/>
<path d="M310.576 39.048L322.3 42.8036L320.19 45.7459L307.625 41.1312L310.576 39.048Z" fill="white"/>
<path d="M324.637 55.4244C324.667 55.3646 319.732 52.8409 313.615 49.7887C307.497 46.7356 302.514 44.3103 302.485 44.3702C302.454 44.43 307.389 46.9532 313.507 50.0064C319.623 53.0585 324.607 55.4848 324.637 55.4244Z" fill="#263238"/>
<path d="M327.549 118.591L327.703 110.895L301.368 120.678C301.368 120.678 296.5 104.868 296.5 104.122L290.664 107.79L280.964 103.62L271.264 98.8256L251.644 133.166L231.062 193.857L279.565 226.2L315.522 187.665L337.382 154.356L349.401 133.257L327.549 118.591Z" fill="#008E7C"/>
<path d="M299.058 120.567C299.043 120.567 299.029 120.298 299.018 119.797C299.011 119.258 299.002 118.535 298.991 117.639L299.109 117.715C297.094 118.692 294.064 120.453 291.179 123.145L290.968 123.342L290.952 123.054C290.933 122.711 290.912 122.346 290.892 121.978C290.68 118.203 290.504 114.785 290.39 112.311C290.34 111.103 290.3 110.111 290.27 109.379C290.262 109.058 290.256 108.795 290.25 108.582C290.249 108.399 290.253 108.303 290.262 108.302C290.271 108.302 290.286 108.397 290.304 108.578C290.323 108.791 290.346 109.053 290.374 109.373C290.426 110.104 290.496 111.094 290.581 112.3C290.744 114.772 290.95 118.187 291.161 121.962C291.182 122.331 291.202 122.696 291.221 123.038L290.994 122.947C293.909 120.236 296.987 118.493 299.037 117.564L299.159 117.509L299.156 117.64C299.135 118.536 299.118 119.259 299.106 119.797C299.091 120.298 299.074 120.567 299.058 120.567Z" fill="#263238"/>
<path d="M325.144 118.962C325.148 118.97 325.045 119.026 324.844 119.125C324.617 119.232 324.325 119.371 323.962 119.543C323.161 119.91 322.054 120.417 320.699 121.037C317.905 122.287 314.097 123.99 309.89 125.872C308.087 126.668 306.359 127.431 304.754 128.14L304.535 128.237L304.576 128.001C305.091 125.068 305.196 122.481 305.176 120.591L305.297 120.664C304.278 121.16 303.46 121.557 302.867 121.846C302.601 121.969 302.387 122.069 302.216 122.149C302.067 122.215 301.988 122.246 301.985 122.239C301.981 122.232 302.053 122.187 302.195 122.107C302.361 122.017 302.569 121.904 302.826 121.764C303.411 121.459 304.217 121.038 305.222 120.514L305.34 120.452L305.344 120.587C305.404 122.485 305.329 125.089 304.827 128.045L304.65 127.906C306.252 127.193 307.979 126.425 309.779 125.623C313.999 123.769 317.819 122.092 320.621 120.861C321.991 120.273 323.11 119.793 323.919 119.446C324.29 119.293 324.589 119.169 324.821 119.073C325.029 118.992 325.14 118.953 325.144 118.962Z" fill="#263238"/>
<path d="M279.121 232.945H80.7955C76.6067 232.945 73.2109 229.549 73.2109 225.361V88.0399C73.2109 83.8512 76.6067 80.4554 80.7955 80.4554H279.121C283.309 80.4554 286.705 83.8512 286.705 88.0399V225.361C286.706 229.549 283.31 232.945 279.121 232.945Z" fill="#455A64"/>
<path d="M286.906 236.44H74.134C69.0164 236.44 64.8672 232.291 64.8672 227.173V223.097H296.172V227.173C296.173 232.291 292.024 236.44 286.906 236.44Z" fill="#455A64"/>
<path d="M280.405 86.5136H78.9688V215.29H280.405V86.5136Z" fill="#263238"/>
<path d="M158.898 221.667L161.769 226.598H202.158L204.823 221.667H158.898Z" fill="#263238"/>
<path d="M274.95 214.877H84.8057C83.8643 214.877 83.1016 214.114 83.1016 213.173V92.577C83.1016 91.6362 83.8643 90.8729 84.8057 90.8729H274.95C275.891 90.8729 276.654 91.6356 276.654 92.577V213.173C276.654 214.114 275.891 214.877 274.95 214.877Z" fill="#EBEBEB"/>
<path d="M276.482 215.059H82.9297L83.1369 100.14H276.482V215.059Z" fill="#FAFAFA"/>
<path d="M99.3906 95.6622C99.3906 96.5843 98.6768 97.332 97.7969 97.332C96.9164 97.332 96.2031 96.5843 96.2031 95.6622C96.2031 94.7401 96.9164 93.993 97.7969 93.993C98.6768 93.993 99.3906 94.7401 99.3906 95.6622Z" fill="#263238"/>
<path d="M89.7115 95.6622C89.7115 96.5843 88.9982 97.332 88.1172 97.332C87.2373 97.332 86.5234 96.5843 86.5234 95.6622C86.5234 94.7401 87.2373 93.993 88.1172 93.993C88.9982 93.993 89.7115 94.7401 89.7115 95.6622Z" fill="#263238"/>
<path d="M94.6563 95.6621C94.6563 96.5842 93.943 97.3319 93.0625 97.3319C92.1821 97.3319 91.4688 96.5842 91.4688 95.6621C91.4688 94.74 92.1826 93.9929 93.0625 93.9929C93.943 93.9929 94.6563 94.74 94.6563 95.6621Z" fill="#263238"/>
<path d="M284.879 221.667C284.879 221.75 237.494 221.817 179.054 221.817C120.594 221.817 73.2188 221.75 73.2188 221.667C73.2188 221.585 120.594 221.518 179.054 221.518C237.494 221.518 284.879 221.585 284.879 221.667Z" fill="#263238"/>
<path d="M159.099 122.185C162.282 120.261 165.672 118.802 169.168 117.809L171.243 107.842L188.083 107.546L190.506 117.434C194.035 118.303 197.475 119.643 200.724 121.454L209.236 115.875L221.353 127.575L216.077 136.275C218.002 139.46 219.461 142.851 220.453 146.348L230.42 148.421L230.715 165.262L220.827 167.686C219.958 171.215 218.619 174.653 216.808 177.903L222.386 186.415L210.688 198.532L201.986 193.256C198.802 195.181 195.411 196.639 191.915 197.632L189.84 207.6L173 207.896L170.577 198.007C167.048 197.137 163.609 195.798 160.359 193.987L151.848 199.566L139.73 187.867L145.006 179.167C143.082 175.982 141.622 172.592 140.63 169.095L130.662 167.021L130.367 150.181L140.255 147.756C141.125 144.228 142.464 140.789 144.275 137.539L138.697 129.026L150.396 116.909L159.099 122.185ZM168.075 144.619C161.144 151.799 161.345 163.237 168.524 170.168C175.703 177.099 187.142 176.898 194.072 169.719C201.003 162.54 200.803 151.101 193.624 144.17C186.445 137.239 175.007 137.44 168.075 144.619Z" fill="#E0E0E0"/>
<path d="M226.358 128.611C226.589 127.35 226.988 126.142 227.531 125.013L225.434 122.199L229.207 117.787L232.312 119.422C233.343 118.71 234.474 118.129 235.684 117.705L236.191 114.233L241.979 113.781L243.018 117.131C244.279 117.363 245.488 117.761 246.616 118.305L249.43 116.208L253.842 119.981L252.207 123.086C252.919 124.117 253.5 125.248 253.924 126.459L257.396 126.965L257.848 132.753L254.498 133.792C254.267 135.053 253.868 136.261 253.325 137.39L255.422 140.204L251.649 144.616L248.544 142.981C247.513 143.693 246.382 144.274 245.171 144.698L244.665 148.17L238.877 148.622L237.838 145.272C236.576 145.04 235.368 144.642 234.239 144.099L231.425 146.196L227.013 142.423L228.648 139.317C227.936 138.286 227.356 137.155 226.931 135.945L223.46 135.439L223.008 129.651L226.358 128.611ZM234.202 130.367C233.851 134.516 237.468 137.768 241.488 137.073C244.229 136.6 246.377 134.284 246.612 131.513C246.964 127.362 243.346 124.108 239.324 124.805C236.584 125.279 234.437 127.595 234.202 130.367Z" fill="#E0E0E0"/>
<path d="M99.5196 186.745C99.5639 185.232 99.8128 183.751 100.244 182.337L97.2933 179.43L100.906 173.606L104.822 174.958C105.897 173.943 107.114 173.062 108.45 172.351L108.419 168.21L115.091 166.648L116.903 170.37C118.416 170.414 119.898 170.663 121.312 171.095L124.219 168.145L130.042 171.758L128.69 175.674C129.705 176.749 130.585 177.965 131.297 179.301L135.437 179.271L137.001 185.943L133.278 187.754C133.234 189.267 132.985 190.748 132.553 192.163L135.504 195.07L131.891 200.893L127.976 199.541C126.9 200.556 125.684 201.436 124.348 202.148L124.379 206.288L117.707 207.851L115.895 204.128C114.382 204.084 112.901 203.835 111.486 203.404L108.579 206.354L102.756 202.741L104.107 198.826C103.092 197.751 102.213 196.534 101.5 195.199L97.3599 195.229L95.7969 188.556L99.5196 186.745ZM109.17 188.623C110.096 192.576 114.051 195.03 118.005 194.104C121.958 193.178 124.412 189.223 123.485 185.269C122.559 181.317 118.604 178.862 114.651 179.788C110.698 180.715 108.244 184.67 109.17 188.623Z" fill="#E0E0E0"/>
<path d="M111.517 131.113C111.692 130.162 111.992 129.251 112.402 128.4L110.82 126.279L113.665 122.953L116.006 124.185C116.783 123.648 117.637 123.21 118.549 122.89L118.931 120.273L123.294 119.933L124.077 122.458C125.029 122.632 125.94 122.933 126.791 123.342L128.912 121.761L132.238 124.606L131.006 126.947C131.542 127.724 131.981 128.577 132.3 129.489L134.917 129.871L135.258 134.234L132.733 135.017C132.558 135.969 132.258 136.879 131.848 137.731L133.429 139.852L130.585 143.178L128.244 141.946C127.466 142.482 126.614 142.921 125.701 143.241L125.32 145.858L120.956 146.199L120.173 143.673C119.222 143.499 118.311 143.198 117.46 142.789L115.339 144.37L112.012 141.526L113.244 139.185C112.708 138.407 112.27 137.555 111.95 136.642L109.333 136.261L108.992 131.897L111.517 131.113ZM117.428 133.233C117.63 135.819 119.889 137.75 122.475 137.548C125.06 137.346 126.992 135.087 126.79 132.502C126.588 129.916 124.329 127.984 121.743 128.186C119.158 128.388 117.226 130.647 117.428 133.233Z" fill="#EBEBEB"/>
<path d="M226.584 178.103C226.734 177.286 226.991 176.504 227.343 175.773L225.984 173.951L228.428 171.093L230.439 172.152C231.106 171.691 231.839 171.315 232.623 171.04L232.951 168.792L236.699 168.499L237.372 170.668C238.189 170.818 238.971 171.077 239.702 171.428L241.524 170.07L244.382 172.513L243.323 174.524C243.784 175.191 244.16 175.924 244.435 176.708L246.683 177.036L246.976 180.784L244.806 181.457C244.657 182.274 244.398 183.056 244.047 183.787L245.405 185.609L242.962 188.467L240.951 187.408C240.283 187.869 239.55 188.245 238.767 188.52L238.439 190.768L234.69 191.06L234.018 188.891C233.201 188.741 232.418 188.483 231.687 188.131L229.865 189.489L227.008 187.046L228.067 185.035C227.606 184.368 227.23 183.635 226.954 182.851L224.707 182.523L224.414 178.775L226.584 178.103ZM231.661 179.924C231.834 182.144 233.775 183.804 235.996 183.631C238.216 183.458 239.876 181.517 239.702 179.296C239.529 177.075 237.588 175.415 235.367 175.589C233.147 175.763 231.487 177.703 231.661 179.924Z" fill="#EBEBEB"/>
<path d="M180.507 183.752H154.602C147.912 183.752 143.731 176.51 147.076 170.716L160.028 148.282L172.981 125.848C176.326 120.054 184.688 120.054 188.033 125.848L200.986 148.282L213.939 170.716C217.283 176.51 213.102 183.752 206.412 183.752H180.507Z" fill="#008E7C"/>
<path d="M208.392 173.308C208.392 173.308 208.464 173.442 208.595 173.711C208.693 173.989 208.857 174.415 208.857 175.004C208.871 175.585 208.727 176.33 208.251 177.05C208.009 177.403 207.691 177.749 207.275 178.022C206.857 178.287 206.344 178.471 205.786 178.509C201.371 178.556 194.997 178.548 187.113 178.567C179.229 178.576 169.844 178.586 159.424 178.597C158.122 178.598 156.803 178.598 155.469 178.599C154.064 178.63 152.729 177.632 152.277 176.29C152.039 175.626 151.987 174.89 152.146 174.193C152.191 174.02 152.247 173.85 152.304 173.681C152.38 173.52 152.452 173.353 152.532 173.197L153.032 172.284C153.699 171.063 154.373 169.83 155.053 168.586C157.775 163.611 160.592 158.46 163.478 153.185C166.366 147.91 169.186 142.758 171.909 137.783C173.271 135.296 174.61 132.853 175.921 130.46C176.255 129.863 176.56 129.266 176.913 128.678C177.27 128.084 177.77 127.571 178.37 127.231C179.565 126.534 181.072 126.486 182.288 127.055C182.895 127.338 183.438 127.761 183.836 128.292C184.227 128.836 184.498 129.408 184.81 129.962C185.419 131.076 186.019 132.176 186.61 133.259C187.793 135.426 188.942 137.53 190.053 139.563C192.272 143.631 194.34 147.421 196.227 150.881C199.993 157.8 203.041 163.4 205.151 167.278C206.197 169.213 207.01 170.716 207.566 171.743C207.836 172.25 208.044 172.639 208.187 172.907C208.327 173.17 208.392 173.308 208.392 173.308C208.392 173.308 208.311 173.179 208.164 172.92C208.015 172.654 207.799 172.27 207.518 171.769C206.952 170.748 206.125 169.253 205.06 167.329C202.931 163.461 199.858 157.875 196.06 150.973C194.163 147.518 192.086 143.733 189.856 139.671C188.742 137.639 187.589 135.538 186.402 133.373C185.809 132.291 185.207 131.193 184.596 130.079C184.286 129.528 184.002 128.941 183.64 128.442C183.265 127.941 182.754 127.546 182.183 127.281C181.04 126.747 179.618 126.795 178.499 127.45C177.936 127.769 177.468 128.251 177.133 128.81C176.792 129.379 176.479 129.991 176.148 130.584C174.84 132.978 173.503 135.422 172.143 137.911C169.421 142.887 166.602 148.039 163.716 153.316C160.828 158.59 158.009 163.739 155.287 168.713C154.606 169.957 153.931 171.189 153.262 172.41C152.943 173.031 152.535 173.603 152.4 174.252C152.252 174.899 152.3 175.584 152.521 176.202C152.944 177.454 154.171 178.371 155.469 178.345C156.803 178.346 158.122 178.347 159.424 178.348C169.844 178.359 179.229 178.369 187.113 178.377C194.989 178.389 201.364 178.398 205.779 178.404C206.32 178.372 206.816 178.198 207.226 177.945C207.632 177.684 207.945 177.349 208.185 177.006C208.656 176.307 208.808 175.578 208.803 175.006C208.781 173.837 208.342 173.318 208.392 173.308Z" fill="#263238"/>
<path d="M176.312 168.513C176.312 166.216 178.143 164.503 180.751 164.503C183.36 164.503 185.151 166.216 185.151 168.513C185.151 170.772 183.36 172.602 180.751 172.602C178.143 172.602 176.312 170.772 176.312 168.513ZM176.352 144.995H185.151L183.672 162.323H177.792L176.352 144.995Z" fill="white"/>
<path d="M181.743 123.271C181.724 123.326 181.137 122.98 180.094 122.932C179.068 122.871 177.591 123.209 176.34 124.187C175.09 125.173 174.33 126.447 173.857 127.374C173.385 128.312 173.163 128.929 173.121 128.914C173.104 128.908 173.14 128.747 173.23 128.464C173.319 128.181 173.466 127.777 173.685 127.291C174.119 126.331 174.872 125.001 176.173 123.973C177.483 122.949 179.041 122.627 180.107 122.74C180.645 122.792 181.067 122.919 181.34 123.042C181.614 123.163 181.751 123.258 181.743 123.271Z" fill="white"/>
<path d="M170.916 132.79C170.852 132.752 171.107 132.202 171.486 131.561C171.866 130.919 172.225 130.43 172.29 130.469C172.354 130.507 172.099 131.058 171.72 131.699C171.341 132.339 170.981 132.828 170.916 132.79Z" fill="white"/>
<g opacity="0.3">
<path d="M193.505 135.32L153.162 160.18L147.922 169.256L196.353 140.253L193.505 135.32Z" fill="white"/>
</g>
<g opacity="0.3">
<path d="M199.85 146.336L146.375 177.88C146.528 178.596 147.008 179.52 147.537 180.128L200.796 147.974L199.85 146.336Z" fill="white"/>
</g>
<path d="M332.015 205.161C327.731 200.44 321.238 198.924 315.539 200.75L310.554 195.281L309.86 194.505L270.431 151.244C272.801 145.748 271.921 139.139 267.638 134.418C263.995 130.403 258.753 128.704 253.761 129.408L251.835 130.173L258.542 134.677L258.187 141.99L252.764 146.91L245.452 146.554L240.671 141.285L238.695 142.057C238.129 146.471 241.088 152.029 244.312 155.582C248.589 160.296 255.069 161.815 260.762 160.002L300.852 203.988L302.085 205.355L305.884 209.524C303.527 215.014 304.411 221.611 308.688 226.325C311.899 229.865 316.158 232.228 320.589 232.108L322.564 231.336L317.784 226.066L318.139 218.753L323.562 213.833L330.874 214.189L333.679 220.231L335.655 219.459C336.841 214.558 335.657 209.177 332.015 205.161Z" fill="#E0E0E0"/>
<g opacity="0.3">
<path d="M332.015 205.161C327.731 200.44 321.238 198.924 315.539 200.75L310.554 195.281L309.86 194.505L270.431 151.244C272.801 145.748 271.921 139.139 267.638 134.418C263.995 130.403 258.753 128.704 253.761 129.408L251.835 130.173L258.542 134.677L258.187 141.99L252.764 146.91L245.452 146.554L240.671 141.285L238.695 142.057C238.129 146.471 241.088 152.029 244.312 155.582C248.589 160.296 255.069 161.815 260.762 160.002L300.852 203.988L302.085 205.355L305.884 209.524C303.527 215.014 304.411 221.611 308.688 226.325C311.899 229.865 316.158 232.228 320.589 232.108L322.564 231.336L317.784 226.066L318.139 218.753L323.562 213.833L330.874 214.189L333.679 220.231L335.655 219.459C336.841 214.558 335.657 209.177 332.015 205.161Z" fill="black"/>
</g>
<path d="M330.037 205.934C325.753 201.213 319.261 199.696 313.561 201.522L308.577 196.054L307.883 195.277L268.454 152.017C270.823 146.521 269.944 139.912 265.66 135.191C262.017 131.176 256.776 129.476 251.783 130.18L256.564 135.45L256.209 142.762L250.787 147.682L243.474 147.326L238.693 142.057C237.508 146.957 238.692 152.339 242.334 156.354C246.612 161.068 253.091 162.587 258.785 160.774L298.874 204.759L300.107 206.126L303.906 210.295C301.55 215.786 302.433 222.383 306.71 227.097C310.353 231.112 315.595 232.811 320.587 232.107L315.806 226.838L316.161 219.525L321.583 214.605L328.896 214.961L333.677 220.23C334.864 215.33 333.68 209.949 330.037 205.934Z" fill="#E0E0E0"/>
<path d="M330.037 205.934C330.037 205.934 330.264 206.185 330.698 206.688C331.099 207.215 331.717 207.996 332.328 209.146C332.942 210.291 333.547 211.806 333.91 213.683C334.24 215.559 334.315 217.813 333.733 220.244L333.708 220.347L333.637 220.269C332.219 218.711 330.603 216.935 328.848 215.007L328.894 215.029C326.638 214.922 324.186 214.806 321.581 214.683L321.636 214.663C319.943 216.202 318.125 217.856 316.219 219.588L316.247 219.53C316.138 221.802 316.021 224.275 315.898 226.843L315.875 226.777C317.355 228.406 318.983 230.196 320.66 232.043L320.784 232.178L320.602 232.204C318.128 232.558 315.481 232.325 312.98 231.419C310.481 230.522 308.139 228.942 306.323 226.804C304.493 224.683 303.191 221.996 302.726 219.087C302.249 216.185 302.587 213.075 303.8 210.25L303.821 210.375C290.451 195.709 275.09 178.86 258.686 160.865L258.827 160.903C256.067 161.784 252.971 161.909 250.026 161.15C247.08 160.405 244.316 158.749 242.231 156.44C240.476 154.507 239.217 152.148 238.594 149.644C237.964 147.141 237.963 144.501 238.564 142.026L238.623 141.778L238.795 141.966C240.399 143.735 241.993 145.492 243.575 147.236L243.482 147.192C245.938 147.312 248.376 147.431 250.795 147.548L250.699 147.583C252.524 145.927 254.331 144.288 256.121 142.664L256.078 142.756C256.199 140.291 256.317 137.855 256.435 135.443L256.469 135.538C254.857 133.761 253.265 132.005 251.689 130.267L251.524 130.085L251.767 130.052C254.709 129.654 257.725 130.06 260.369 131.234C263.017 132.395 265.295 134.273 266.914 136.563C268.543 138.845 269.543 141.524 269.785 144.232C270.04 146.938 269.592 149.651 268.562 152.063L268.541 151.938C288.082 173.421 303.809 190.712 313.605 201.482L313.543 201.465C316.364 200.568 319.046 200.598 321.247 200.987C323.454 201.425 325.211 202.198 326.507 202.992C327.815 203.777 328.66 204.576 329.234 205.09C329.771 205.646 330.037 205.934 330.037 205.934C330.037 205.934 329.755 205.66 329.212 205.113C328.633 204.608 327.783 203.818 326.475 203.045C325.18 202.263 323.426 201.504 321.231 201.078C319.04 200.701 316.377 200.681 313.58 201.579L313.543 201.591L313.517 201.563C303.703 190.81 287.946 173.546 268.368 152.096L268.318 152.041L268.347 151.971C269.359 149.594 269.799 146.92 269.545 144.256C269.304 141.59 268.318 138.954 266.713 136.709C265.117 134.455 262.873 132.608 260.268 131.467C257.665 130.313 254.698 129.915 251.803 130.309L251.881 130.095C253.457 131.831 255.05 133.586 256.663 135.363L256.699 135.403L256.697 135.457C256.58 137.869 256.462 140.304 256.343 142.77L256.34 142.824L256.3 142.861C254.509 144.486 252.703 146.126 250.878 147.782L250.837 147.819L250.782 147.816C248.364 147.699 245.925 147.581 243.469 147.461L243.414 147.459L243.376 147.418C241.793 145.673 240.199 143.917 238.595 142.149L238.826 142.09C238.236 144.524 238.238 147.119 238.857 149.579C239.47 152.041 240.707 154.358 242.432 156.259C244.482 158.529 247.197 160.156 250.094 160.888C252.988 161.635 256.032 161.512 258.745 160.647L258.827 160.62L258.886 160.684C275.28 178.687 290.632 195.545 303.994 210.218L304.045 210.274L304.016 210.343C302.818 213.125 302.482 216.19 302.949 219.051C303.404 221.92 304.684 224.57 306.488 226.664C308.277 228.776 310.585 230.336 313.051 231.226C315.518 232.123 318.131 232.357 320.575 232.012L320.517 232.173C318.843 230.324 317.218 228.531 315.74 226.9L315.715 226.872L315.717 226.834C315.844 224.266 315.967 221.793 316.079 219.522L316.081 219.487L316.107 219.464C318.016 217.735 319.839 216.085 321.534 214.55L321.558 214.529L321.59 214.531C324.194 214.66 326.646 214.783 328.902 214.896L328.93 214.897L328.949 214.918C330.698 216.852 332.308 218.632 333.722 220.195L333.626 220.219C334.213 217.808 334.146 215.567 333.828 213.7C333.475 211.831 332.882 210.32 332.279 209.175C331.678 208.024 331.07 207.24 330.677 206.708C330.249 206.198 330.037 205.934 330.037 205.934Z" fill="#263238"/>
<path d="M266.667 154.54C266.683 154.549 266.622 154.686 266.496 154.928C266.373 155.172 266.167 155.509 265.889 155.91C265.335 156.713 264.438 157.743 263.254 158.656C262.067 159.566 260.841 160.168 259.923 160.497C259.463 160.662 259.085 160.774 258.818 160.83C258.552 160.89 258.403 160.914 258.399 160.896C258.387 160.852 258.966 160.691 259.853 160.32C260.741 159.952 261.927 159.336 263.091 158.444C264.252 157.548 265.152 156.561 265.736 155.798C266.323 155.035 266.627 154.517 266.667 154.54Z" fill="#263238"/>
<path d="M310.646 173.329L295.647 166.351L282.259 164.682L287.176 168.823C287.176 168.823 269.87 174.854 269.567 176.214C269.263 177.574 270.934 181.227 273.982 180.553C273.982 180.553 272.267 182.616 272.981 184.928C273.695 187.24 275.271 187.658 278.181 187.121C278.181 187.121 276.201 190.085 277.753 191.595C279.306 193.106 281.719 192.722 281.719 192.722C281.719 192.722 281.749 196.332 283.655 196.647C285.562 196.963 290.873 196.589 292.855 195.977C294.838 195.365 302.93 192.866 302.93 192.866L309.496 191.425L310.646 173.329Z" fill="#FFBF9D"/>
<path d="M283.081 177.91C283.138 178.108 281.147 178.861 278.634 179.591C276.119 180.322 274.035 180.753 273.978 180.554C273.92 180.356 275.911 179.604 278.425 178.873C280.939 178.143 283.023 177.711 283.081 177.91Z" fill="#FF9A6C"/>
<path d="M285.642 185.032C285.702 185.23 284.12 185.881 282.11 186.486C280.098 187.091 278.42 187.422 278.361 187.224C278.302 187.027 279.883 186.375 281.894 185.77C283.905 185.164 285.583 184.834 285.642 185.032Z" fill="#FF9A6C"/>
<path d="M287.943 190.949C287.977 191.172 286.541 191.476 284.853 191.899C283.174 192.34 281.852 192.918 281.748 192.722C281.65 192.559 282.866 191.652 284.662 191.176C286.449 190.73 287.915 190.765 287.943 190.949Z" fill="#FF9A6C"/>
<path d="M289.868 168.248C289.924 168.451 287.959 169.164 285.531 170.001C283.101 170.836 281.114 171.482 281.034 171.289C280.955 171.102 282.833 170.137 285.288 169.294C287.741 168.448 289.815 168.053 289.868 168.248Z" fill="#FF9A6C"/>
<path d="M307.872 172.018L340.303 183.763L338.407 206.023L302.703 191.628L307.872 172.018Z" fill="#FFBF9D"/>
<path d="M349.474 133.065C349.474 133.065 353.704 137.436 356.164 145.293C358.608 153.094 370.239 186.454 369.942 197.054C369.636 208.013 362.258 215.833 346.044 211.502C336.368 208.918 324.844 204.74 324.844 204.74L333.036 177.804L339.445 179.42L329.096 159.992L349.474 133.065Z" fill="#008E7C"/>
<path d="M342.066 145.798C342.127 145.842 337.642 152.232 332.05 160.068C326.456 167.908 321.874 174.226 321.813 174.182C321.752 174.139 326.236 167.751 331.83 159.911C337.422 152.074 342.005 145.755 342.066 145.798Z" fill="#263238"/>
<path d="M354.467 183.105C354.455 183.124 354.187 182.968 353.68 182.735C353.174 182.501 352.419 182.213 351.457 181.949C350.495 181.683 349.329 181.435 348.034 181.153C346.735 180.866 345.315 180.552 343.825 180.223C340.84 179.555 338.141 178.936 336.191 178.475C335.251 178.247 334.474 178.058 333.884 177.915C333.341 177.777 333.043 177.691 333.047 177.673C333.051 177.655 333.358 177.705 333.908 177.811C334.503 177.933 335.286 178.094 336.234 178.287C338.195 178.701 340.901 179.291 343.886 179.958C345.375 180.295 346.793 180.616 348.09 180.909C349.381 181.204 350.545 181.472 351.51 181.765C352.474 182.055 353.23 182.374 353.726 182.641C353.976 182.771 354.163 182.885 354.286 182.968C354.41 183.05 354.472 183.097 354.467 183.105Z" fill="#263238"/>
<g opacity="0.3">
<path d="M362.759 184.277C362.631 182.991 361.667 181.904 360.528 181.294C359.388 180.683 358.082 180.47 356.801 180.295C350.973 179.495 345.082 179.273 339.203 179.053L339.747 179.289C347.003 180.628 354.123 182.703 360.964 185.47C361.357 185.63 361.805 185.791 362.192 185.618C362.666 185.406 362.811 184.794 362.759 184.277Z" fill="black"/>
</g>
<g opacity="0.3">
<path d="M229.139 80.993C223.674 80.0636 217.136 81.6495 211.67 80.7201C210.853 80.5811 209.96 80.4551 209.242 80.8685C208.379 81.3653 208.081 82.4665 208.039 83.4609C207.922 86.2127 209.195 88.9279 211.181 90.8351C213.167 92.7423 215.811 93.8821 218.526 94.3429C220.708 94.7136 223.053 94.6423 224.999 93.5884C228.396 91.7484 230.039 84.7501 229.139 80.993Z" fill="black"/>
</g>
<path d="M207.944 90.995C207.944 90.995 204.626 87.1098 204.146 85.3156C203.827 84.1269 203.987 80.8024 204.131 78.6942C204.23 77.2494 205.127 75.9295 206.499 75.4645C206.977 75.3026 207.43 75.2818 207.736 75.5645C207.736 75.5645 207.946 75.2011 209.247 73.8687C210.549 72.5363 211.167 71.633 214.032 72.4619C214.032 72.4619 216.139 70.2371 217.351 70.4031C218.563 70.5698 219.764 70.9233 219.764 70.9233C219.764 70.9233 224.383 70.7286 225.329 72.1953C225.744 72.8367 226.597 73.285 227.426 73.586C228.885 74.1155 230.083 75.1777 230.721 76.5923C231.588 78.5172 231.643 80.6171 231.643 80.6171L226.943 80.8035C226.943 80.8035 227.275 91.5844 226.095 92.4539C224.915 93.3239 224.463 93.0147 224.463 93.0147C224.463 93.0147 223.563 95.5446 220.05 93.6723C220.05 93.6723 217.132 94.5517 215.888 93.3494C214.644 92.1472 210.068 80.5926 210.068 80.5926L210.195 86.335C210.195 86.335 212.606 90.051 211.426 90.9211C210.247 91.7906 207.944 90.995 207.944 90.995Z" fill="#FFBF9D"/>
<path d="M213.8 76.3809C213.818 76.3752 213.913 76.6168 214.068 77.0578C214.234 77.5503 214.447 78.1803 214.702 78.9348C215.226 80.5228 215.933 82.7226 216.697 85.1573C217.468 87.5909 218.089 89.8188 218.811 91.3193C219.16 92.0738 219.511 92.6496 219.767 93.0375C220.022 93.427 220.184 93.6285 220.166 93.6441C220.158 93.6504 220.111 93.6056 220.027 93.5145C219.942 93.4244 219.823 93.2864 219.681 93.0985C219.396 92.7251 219.014 92.1566 218.639 91.4026C217.862 89.9 217.208 87.6669 216.438 85.2385C215.674 82.8038 214.997 80.5952 214.519 78.992C214.297 78.2277 214.112 77.5888 213.967 77.0895C213.842 76.6386 213.782 76.3866 213.8 76.3809Z" fill="#FF9A6C"/>
<path d="M219.566 75.0506C219.584 75.0459 219.669 75.2948 219.805 75.7488C219.95 76.2544 220.136 76.9021 220.36 77.6779C220.816 79.3097 221.429 81.5688 222.089 84.0675C222.75 86.5672 223.333 88.8342 223.742 90.4785C223.932 91.2636 224.09 91.9186 224.214 92.4294C224.319 92.8918 224.369 93.1495 224.351 93.1547C224.332 93.1599 224.249 92.911 224.112 92.4575C223.966 91.9525 223.78 91.3048 223.558 90.529C223.101 88.8972 222.488 86.6375 221.827 84.1367C221.167 81.637 220.584 79.3695 220.174 77.7253C219.985 76.9406 219.827 76.2851 219.704 75.7743C219.598 75.313 219.548 75.0553 219.566 75.0506Z" fill="#FF9A6C"/>
</svg>
